<?xml version="1.0" encoding="utf-8"?>
<!-- Generator: Adobe Illustrator 28.2.0, SVG Export Plug-In . SVG Version: 6.00 Build 0)  -->
<svg version="1.1" id="Layer_1" xmlns="http://www.w3.org/2000/svg" xmlns:xlink="http://www.w3.org/1999/xlink" x="0px" y="0px"
	 viewBox="0 0 66.7 66.7" style="enable-background:new 0 0 66.7 66.7;" xml:space="preserve">
<g>
	<g>
		
			<image style="overflow:visible;" width="489" height="512" xlink:href="455972A535115F82.png"  transform="matrix(0.1289 0 0 0.1289 1.8206 0.3382)">
		</image>
	</g>
</g>
<g>
	<g>
		
			<image style="overflow:visible;" width="485" height="512" xlink:href="455972A535115F86.png"  transform="matrix(0.1094 0 0 0.1094 6.8147 -23.9728)">
		</image>
	</g>
</g>
<g>
	<g>
		
			<image style="overflow:visible;" width="485" height="512" xlink:href="455972A535115F81.png"  transform="matrix(0.1094 0 0 0.1094 6.8147 34.6491)">
		</image>
	</g>
</g>
<g>
	<g>
		
			<image style="overflow:visible;" width="485" height="512" xlink:href="455972A535115F83.png"  transform="matrix(0.1094 0 0 0.1094 36.1257 5.3381)">
		</image>
	</g>
</g>
<g>
	<g>
		
			<image style="overflow:visible;" width="485" height="512" xlink:href="455972A535115F80.png"  transform="matrix(0.1094 0 0 0.1094 -22.4963 5.3381)">
		</image>
	</g>
</g>
<g>
	<g>
		
			<image style="overflow:visible;" width="485" height="512" xlink:href="455972A535115F8E.png"  transform="matrix(0.1094 0 0 0.1094 27.525 -15.4037)">
		</image>
	</g>
</g>
<g>
	<g>
		
			<image style="overflow:visible;" width="485" height="512" xlink:href="455972A535115F85.png"  transform="matrix(0.1094 0 0 0.1094 -13.895 26.0799)">
		</image>
	</g>
</g>
<g>
	<g>
		
			<image style="overflow:visible;" width="485" height="512" xlink:href="455972A535115F87.png"  transform="matrix(0.1094 0 0 0.1094 27.5565 26.0484)">
		</image>
	</g>
</g>
<g>
	<g>
		
			<image style="overflow:visible;" width="485" height="512" xlink:href="455972A535115F84.png"  transform="matrix(0.1094 0 0 0.1094 -13.927 -15.3719)">
		</image>
	</g>
</g>
</svg>
