<?xml version="1.0" encoding="utf-8"?>
<!-- Generator: Adobe Illustrator 28.2.0, SVG Export Plug-In . SVG Version: 6.00 Build 0)  -->
<svg version="1.1" id="Layer_1" xmlns="http://www.w3.org/2000/svg" xmlns:xlink="http://www.w3.org/1999/xlink" x="0px" y="0px"
	 viewBox="0 0 32 32" style="enable-background:new 0 0 32 32;" xml:space="preserve">
<style type="text/css">
	.st0{fill:url(#SVGID_1_);}
	.st1{fill:url(#SVGID_00000080887698251262010440000002423635730973574804_);}
	.st2{fill:url(#SVGID_00000171704723110697816590000012926750171539721346_);}
	.st3{fill:#5768FB;}
	.st4{font-family:'Roboto-Black';}
	.st5{font-size:6.3149px;}
</style>
<g>
	
		<linearGradient id="SVGID_1_" gradientUnits="userSpaceOnUse" x1="0" y1="32" x2="1" y2="32" gradientTransform="matrix(2.887098e-16 -4.715 4.715 2.887098e-16 -124.4286 17.6635)">
		<stop  offset="0" style="stop-color:#797778"/>
		<stop  offset="3.829736e-02" style="stop-color:#A2A1A2"/>
		<stop  offset="3.871932e-02" style="stop-color:#A2A1A2"/>
		<stop  offset="7.165430e-02" style="stop-color:#BDBCBD"/>
		<stop  offset="0.109" style="stop-color:#D2D2D2"/>
		<stop  offset="0.1531" style="stop-color:#E3E3E3"/>
		<stop  offset="0.2077" style="stop-color:#EEEEEE"/>
		<stop  offset="0.2842" style="stop-color:#F5F5F5"/>
		<stop  offset="0.4967" style="stop-color:#F7F7F7"/>
		<stop  offset="0.6927" style="stop-color:#F5F6F7"/>
		<stop  offset="0.7633" style="stop-color:#EEF2F7"/>
		<stop  offset="0.8136" style="stop-color:#E3ECF8"/>
		<stop  offset="0.8543" style="stop-color:#D2E2F8"/>
		<stop  offset="0.8891" style="stop-color:#BCD6F9"/>
		<stop  offset="0.92" style="stop-color:#A0C6FA"/>
		<stop  offset="0.9479" style="stop-color:#80B4FC"/>
		<stop  offset="0.9736" style="stop-color:#5A9FFD"/>
		<stop  offset="0.9964" style="stop-color:#3188FF"/>
		<stop  offset="1" style="stop-color:#2A84FF"/>
	</linearGradient>
	<path class="st0" d="M26.5,13.2v0.2c1,0,1.8,0.8,1.8,1.8c0,1-0.8,1.8-1.8,1.8c-1,0-1.8-0.8-1.8-1.8c0-1,0.8-1.8,1.8-1.8V13.2V13
		c-1.3,0-2.3,1.1-2.3,2.3c0,1.3,1.1,2.3,2.3,2.3c1.3,0,2.3-1.1,2.3-2.3c0-1.3-1.1-2.3-2.3-2.3V13.2z"/>
	
		<linearGradient id="SVGID_00000141427453590756352700000008600126284276305843_" gradientUnits="userSpaceOnUse" x1="1.273401e-06" y1="32" x2="1" y2="32" gradientTransform="matrix(-4.3562 -1.8044 1.8044 -4.3562 -29.4155 156.0294)">
		<stop  offset="0" style="stop-color:#797778"/>
		<stop  offset="3.829736e-02" style="stop-color:#A2A1A2"/>
		<stop  offset="3.871932e-02" style="stop-color:#A2A1A2"/>
		<stop  offset="7.165430e-02" style="stop-color:#BDBCBD"/>
		<stop  offset="0.109" style="stop-color:#D2D2D2"/>
		<stop  offset="0.1531" style="stop-color:#E3E3E3"/>
		<stop  offset="0.2077" style="stop-color:#EEEEEE"/>
		<stop  offset="0.2842" style="stop-color:#F5F5F5"/>
		<stop  offset="0.4967" style="stop-color:#F7F7F7"/>
		<stop  offset="0.6927" style="stop-color:#F5F6F7"/>
		<stop  offset="0.7633" style="stop-color:#EEF2F7"/>
		<stop  offset="0.8136" style="stop-color:#E3ECF8"/>
		<stop  offset="0.8543" style="stop-color:#D2E2F8"/>
		<stop  offset="0.8891" style="stop-color:#BCD6F9"/>
		<stop  offset="0.92" style="stop-color:#A0C6FA"/>
		<stop  offset="0.9479" style="stop-color:#80B4FC"/>
		<stop  offset="0.9736" style="stop-color:#5A9FFD"/>
		<stop  offset="0.9964" style="stop-color:#3188FF"/>
		<stop  offset="1" style="stop-color:#2A84FF"/>
	</linearGradient>
	<path style="fill:url(#SVGID_00000141427453590756352700000008600126284276305843_);" d="M24.2,14.9l0.2,0.1c0.3-0.7,1-1.1,1.7-1.1
		c0.2,0,0.5,0,0.7,0.1c0.7,0.3,1.1,1,1.1,1.7c0,0.2,0,0.5-0.1,0.7c-0.3,0.7-1,1.1-1.7,1.1c-0.2,0-0.5,0-0.7-0.1
		c-0.7-0.3-1.1-1-1.1-1.7c0-0.2,0-0.5,0.1-0.7L24.2,14.9L24,14.8c-0.1,0.3-0.2,0.6-0.2,0.9c0,0.9,0.5,1.8,1.5,2.2
		c0.3,0.1,0.6,0.2,0.9,0.2c0.9,0,1.8-0.5,2.2-1.5c0.1-0.3,0.2-0.6,0.2-0.9c0-0.9-0.5-1.8-1.5-2.2c-0.3-0.1-0.6-0.2-0.9-0.2
		c-0.9,0-1.8,0.5-2.2,1.5L24.2,14.9z"/>
	
		<linearGradient id="SVGID_00000183953656835078868160000010798908034020844709_" gradientUnits="userSpaceOnUse" x1="0" y1="32" x2="1" y2="32" gradientTransform="matrix(2.887098e-16 -4.715 4.715 2.887098e-16 -125.0371 18.4686)">
		<stop  offset="0" style="stop-color:#797778"/>
		<stop  offset="3.829736e-02" style="stop-color:#A2A1A2"/>
		<stop  offset="3.871932e-02" style="stop-color:#A2A1A2"/>
		<stop  offset="7.165430e-02" style="stop-color:#BDBCBD"/>
		<stop  offset="0.109" style="stop-color:#D2D2D2"/>
		<stop  offset="0.1531" style="stop-color:#E3E3E3"/>
		<stop  offset="0.2077" style="stop-color:#EEEEEE"/>
		<stop  offset="0.2842" style="stop-color:#F5F5F5"/>
		<stop  offset="0.4967" style="stop-color:#F7F7F7"/>
		<stop  offset="0.6927" style="stop-color:#F5F6F7"/>
		<stop  offset="0.7633" style="stop-color:#EEF2F7"/>
		<stop  offset="0.8136" style="stop-color:#E3ECF8"/>
		<stop  offset="0.8543" style="stop-color:#D2E2F8"/>
		<stop  offset="0.8891" style="stop-color:#BCD6F9"/>
		<stop  offset="0.92" style="stop-color:#A0C6FA"/>
		<stop  offset="0.9479" style="stop-color:#80B4FC"/>
		<stop  offset="0.9736" style="stop-color:#5A9FFD"/>
		<stop  offset="0.9964" style="stop-color:#3188FF"/>
		<stop  offset="1" style="stop-color:#2A84FF"/>
	</linearGradient>
	<path style="fill:url(#SVGID_00000183953656835078868160000010798908034020844709_);" d="M25.8,14v0.2c1,0,1.8,0.8,1.8,1.8
		c0,1-0.8,1.8-1.8,1.8c-1,0-1.8-0.8-1.8-1.8c0-1,0.8-1.8,1.8-1.8V14v-0.2c-1.3,0-2.3,1.1-2.3,2.3c0,1.3,1.1,2.3,2.3,2.3
		c1.3,0,2.3-1.1,2.3-2.3c0-1.3-1.1-2.3-2.3-2.3V14z"/>
	<text transform="matrix(1 0 0 1 2.6128 17.876)" class="st3 st4 st5">$05.AI</text>
</g>
</svg>
