<?xml version="1.0" encoding="utf-8"?>
<svg version="1.1" id="Layer_1" xmlns="http://www.w3.org/2000/svg" xmlns:xlink="http://www.w3.org/1999/xlink" x="0px" y="0px"
	 viewBox="0 0 102.6 28.3" style="enable-background:new 0 0 102.6 28.3;" xml:space="preserve">
<style type="text/css">
	.st0{fill:none;stroke:#FFFFFF;stroke-width:1.3;stroke-miterlimit:10;}
	.st1{enable-background:new    ;}
	.st2{fill:#FFFFFF;}
</style>
<g>
	<circle class="st0" cx="91.7" cy="12.2" r="9.8"/>
	<circle class="st0" cx="90.5" cy="14.2" r="9.8"/>
	<circle class="st0" cx="89.4" cy="16.1" r="9.8"/>
</g>
<g class="st1">
	<path class="st2" d="M8.8,17.5c0-0.6-0.2-1.2-0.5-1.5c-0.3-0.4-0.9-0.7-1.7-1c-0.8-0.3-1.5-0.7-2.2-1c-0.7-0.3-1.3-0.7-1.8-1.2
		c-0.5-0.4-0.9-1-1.1-1.5c-0.3-0.6-0.4-1.3-0.4-2.1c0-1.4,0.5-2.5,1.4-3.4c0.9-0.9,2.2-1.4,3.7-1.6V1.5h2v2.6C9.7,4.4,10.9,5,11.7,6
		C12.6,7,13,8.3,13,9.9H8.9c0-0.9-0.2-1.5-0.5-2C8,7.4,7.6,7.2,7,7.2c-0.5,0-1,0.2-1.3,0.5C5.4,8.1,5.3,8.5,5.3,9.1
		c0,0.6,0.2,1.1,0.5,1.4c0.3,0.4,0.9,0.7,1.7,1c0.8,0.3,1.5,0.7,2.2,1c0.7,0.3,1.3,0.7,1.8,1.2s0.9,1,1.2,1.5
		c0.3,0.6,0.4,1.3,0.4,2.1c0,1.4-0.4,2.5-1.3,3.4c-0.9,0.9-2.1,1.4-3.6,1.5v2.5H6v-2.5c-1.8-0.2-3.2-0.8-4.1-1.8
		c-1-1-1.4-2.4-1.4-4.1h4.1c0,0.9,0.2,1.6,0.6,2.1c0.4,0.5,1,0.7,1.8,0.7c0.6,0,1-0.2,1.3-0.5S8.8,18,8.8,17.5z"/>
	<path class="st2" d="M27.5,14.9c0,2.4-0.5,4.3-1.6,5.6c-1.1,1.3-2.6,2-4.6,2c-2,0-3.5-0.7-4.6-2S15,17.3,15,14.9v-3.3
		c0-2.4,0.5-4.3,1.6-5.6c1.1-1.3,2.6-2,4.6-2s3.5,0.7,4.6,2c1.1,1.3,1.6,3.2,1.6,5.6V14.9z M23.4,11.1c0-1.3-0.2-2.2-0.5-2.9
		c-0.3-0.6-0.9-1-1.6-1c-0.7,0-1.2,0.3-1.6,0.9c-0.3,0.6-0.5,1.5-0.5,2.7v4.6c0,1.3,0.2,2.3,0.5,2.9c0.3,0.6,0.9,0.9,1.6,0.9
		c0.7,0,1.2-0.3,1.6-0.9c0.3-0.6,0.5-1.5,0.5-2.8V11.1z"/>
	<path class="st2" d="M29.9,13.5L31,4.3h10.5v3.2h-7.1L34,11.1c0.3-0.2,0.7-0.3,1.2-0.5c0.5-0.1,0.9-0.2,1.4-0.2
		c1.8,0,3.1,0.5,4.1,1.6c1,1.1,1.4,2.5,1.4,4.4c0,1.1-0.3,2.2-0.8,3.1c-0.5,0.9-1.2,1.6-2.2,2.1c-0.9,0.5-2,0.8-3.3,0.8
		c-1.1,0-2.2-0.2-3.2-0.7c-1-0.5-1.8-1.1-2.3-1.9s-0.8-1.7-0.8-2.7h4.2c0,0.7,0.2,1.2,0.6,1.6s0.9,0.6,1.5,0.6c1.4,0,2.1-1,2.1-3.1
		c0-1.9-0.9-2.9-2.6-2.9c-1,0-1.7,0.3-2.2,0.9L29.9,13.5z"/>
	<path class="st2" d="M46.9,18.2c0.7,0,1.2,0.2,1.6,0.6c0.4,0.4,0.7,0.9,0.7,1.5c0,0.6-0.2,1.1-0.7,1.5c-0.4,0.4-1,0.6-1.6,0.6
		c-0.7,0-1.2-0.2-1.6-0.6c-0.4-0.4-0.6-0.9-0.6-1.5s0.2-1.1,0.6-1.5C45.6,18.4,46.2,18.2,46.9,18.2z"/>
	<path class="st2" d="M62.2,18.9h-5.9l-1,3.3h-4.6l6.6-17.9h4.1l6.6,17.9h-4.6L62.2,18.9z M57.4,15.5h3.8l-1.9-6.2L57.4,15.5z"/>
	<path class="st2" d="M73.8,22.2h-4.3V4.3h4.3V22.2z"/>
</g>
</svg>
