<?xml version="1.0" encoding="utf-8"?>
<!-- Generator: Adobe Illustrator 28.2.0, SVG Export Plug-In . SVG Version: 6.00 Build 0)  -->
<svg version="1.1" id="Layer_1" xmlns="http://www.w3.org/2000/svg" xmlns:xlink="http://www.w3.org/1999/xlink" x="0px" y="0px"
	 viewBox="0 0 32 32" style="enable-background:new 0 0 32 32;" xml:space="preserve">
<style type="text/css">
	.st0{fill:none;stroke:#000000;stroke-miterlimit:10;}
</style>
<g>
	<path d="M16.4,4.5C10.1,4.2,4.3,9.7,4.3,16.1C4,22.7,9.7,28.7,16.4,28.8C28,29.1,34,14.9,26,6.5C23.5,4,20,2.4,16.4,2.3
		C16.4,2.3,16.4,4.5,16.4,4.5L16.4,4.5z M16.4,2.3C23.9,2,30.7,8.5,30.8,16.1C31.1,23.9,24.3,31,16.4,31C2.8,31.3-4.2,14.7,5.2,4.9
		C8.1,2,12.2,0.1,16.4,0V2.3L16.4,2.3z"/>
</g>
<g>
	<polygon points="15.8,14.4 24.3,7.7 18,16.5 15.8,14.4 	"/>
</g>
<g>
	<polygon points="17,17.6 8.6,24.3 14.8,15.5 17,17.6 	"/>
</g>
<circle class="st0" cx="16.4" cy="16" r="1.2"/>
</svg>
