<?xml version="1.0" encoding="utf-8"?>
<!-- Generator: Adobe Illustrator 28.2.0, SVG Export Plug-In . SVG Version: 6.00 Build 0)  -->
<svg version="1.1" id="Layer_1" xmlns="http://www.w3.org/2000/svg" xmlns:xlink="http://www.w3.org/1999/xlink" x="0px" y="0px"
	 viewBox="0 0 32 32" style="enable-background:new 0 0 32 32;" xml:space="preserve">
<style type="text/css">
	.st0{fill:none;stroke:#000000;stroke-miterlimit:10;}
	.st1{fill:#FFFFFF;}
</style>
<g>
	<path d="M16.4,4.5C10.1,4.2,4.3,9.7,4.3,16.1C4,22.7,9.7,28.7,16.4,28.8C28,29.1,34,14.9,26,6.5C23.5,4,20,2.4,16.4,2.3
		C16.4,2.3,16.4,4.5,16.4,4.5L16.4,4.5z M16.4,2.3C23.9,2,30.7,8.5,30.8,16.1C31.1,23.9,24.3,31,16.4,31C2.8,31.3-4.2,14.7,5.2,4.9
		C8.1,2,12.2,0.1,16.4,0V2.3L16.4,2.3z"/>
</g>
<g>
	<polygon points="15.8,14.4 24.3,7.7 18,16.5 15.8,14.4 	"/>
</g>
<g>
	<polygon points="17,17.6 8.6,24.3 14.8,15.5 17,17.6 	"/>
</g>
<circle class="st0" cx="16.4" cy="16" r="1.2"/>
<path class="st1" d="M32.1,15.4c0,5.5-2.1,9.8-6.1,13.1c-2.2,1.8-4.7,2.9-7.5,3.3c-3.4,0.5-6.6-0.1-9.6-1.7
	c-4.1-2.3-6.7-5.7-7.8-10.3c-0.4-1.5-0.5-3-0.4-4.6c0.2-3.3,1.3-6.4,3.4-9c2.2-2.8,5.1-4.7,8.6-5.6c1.5-0.4,3-0.5,4.6-0.4
	c3.5,0.2,6.6,1.5,9.2,3.8c2.7,2.4,4.5,5.3,5.3,8.8C32,13.7,32,14.7,32.1,15.4z M30.4,15.6c-0.1-0.6-0.1-1.5-0.3-2.5
	c-0.5-2.7-1.8-5-3.7-6.9c-3.7-3.8-8.2-5.2-13.3-4C9.5,3,6.6,5.1,4.6,8.3c-2.1,3.4-2.7,7.1-1.9,10.9c1,4.4,3.5,7.5,7.5,9.5
	c1.8,0.9,3.7,1.3,5.7,1.4c1.1,0,2.3-0.1,3.4-0.4c2.2-0.5,4.2-1.5,5.9-3C28.6,24,30.3,20.4,30.4,15.6z"/>
</svg>
