<?xml version="1.0" encoding="utf-8"?>
<!-- Generator: Adobe Illustrator 28.2.0, SVG Export Plug-In . SVG Version: 6.00 Build 0)  -->
<svg version="1.1" id="Layer_1" xmlns="http://www.w3.org/2000/svg" xmlns:xlink="http://www.w3.org/1999/xlink" x="0px" y="0px"
	 viewBox="0 0 102.6 28.3" style="enable-background:new 0 0 102.6 28.3;" xml:space="preserve">
<style type="text/css">
	.st0{fill:#FFFFFF;}
	.st1{fill:none;}
</style>
<path class="st0" d="M101.5,13.7c0,3.9-1.4,6.9-4.3,9.2c-1.5,1.2-3.3,2-5.3,2.3c-2.4,0.4-4.6,0-6.7-1.2c-2.9-1.6-4.7-4-5.5-7.2
	c-0.3-1-0.4-2.1-0.3-3.2c0.1-2.3,0.9-4.5,2.4-6.3c1.6-2,3.6-3.3,6-3.9C89,3.1,90,3,91.1,3.1c2.4,0.2,4.6,1,6.5,2.6
	c1.9,1.7,3.2,3.7,3.7,6.2C101.4,12.6,101.5,13.3,101.5,13.7z M100.3,13.9c-0.1-0.4-0.1-1.1-0.2-1.7c-0.4-1.9-1.2-3.5-2.6-4.9
	c-2.6-2.6-5.7-3.6-9.3-2.8c-2.6,0.6-4.5,2-5.9,4.2c-1.5,2.4-1.9,4.9-1.3,7.7c0.7,3.1,2.5,5.3,5.3,6.7c1.3,0.6,2.6,0.9,4,1
	c0.8,0,1.6-0.1,2.4-0.3c1.6-0.4,2.9-1.1,4.2-2.1C99.1,19.8,100.2,17.3,100.3,13.9z"/>
<path class="st0" d="M82.9,16c-0.5-1.2-0.4-2.3,0.3-3.4c0.6-0.9,1.5-1.6,2.5-2.1c1.7-0.8,3.5-1.2,5.4-1c1.1,0.1,2.2,0.4,3.1,0.8
	c1.2,0.6,2.2,1.2,3,2.3c0.7,0.9,1,1.9,0.7,3.1c-0.1,0.3-0.2,0.6-0.3,0.9c-1.5-0.9-3-1.9-4.4-2.8c0.2-0.3,0.3-0.5,0.5-0.8
	c-1.5-1.1-4.1-1.5-6.7-0.2c0.2,0.5,0.4,1,0.6,1.5C86.1,14.8,84.5,15.4,82.9,16z"/>
<path class="st0" d="M92.8,14.5c1.5,0.9,2.9,1.8,4.4,2.7c-0.1,0.4-0.6,0.6-1.1,0.3c-1-0.6-1.9-1.2-2.9-1.8c-0.1-0.1-0.2-0.1-0.3-0.2
	C92.6,15.4,92.5,14.9,92.8,14.5z"/>
<path class="st0" d="M83.3,16.8c1.1-0.4,2.3-0.8,3.4-1.2c0.4-0.1,0.8-0.3,1.1-0.4c0.1,0,0.2,0,0.2,0.1c0.1,0.2,0,0.7-0.4,0.8
	c-0.6,0.2-1.1,0.4-1.7,0.6c-0.6,0.2-1.1,0.4-1.7,0.6c-0.1,0-0.2,0.1-0.3,0.1C83.6,17.4,83.3,17.2,83.3,16.8z"/>
<g>
	<rect x="1.4" y="7.7" class="st1" width="77.3" height="13.7"/>
	<path class="st0" d="M12.7,16.9c0,0.9-0.3,1.7-0.7,2.4s-1.1,1.2-1.9,1.6s-1.7,0.6-2.7,0.6c-1.7,0-3-0.5-4-1.6S2,17.1,2,15.1v-0.6
		c0-1.3,0.2-2.4,0.7-3.3S3.7,9.5,4.5,9s1.8-0.8,2.8-0.8c1.6,0,2.8,0.4,3.7,1.2s1.5,1.9,1.6,3.4H9.6c0-0.8-0.2-1.3-0.6-1.7
		s-0.9-0.5-1.7-0.5c-0.8,0-1.3,0.3-1.7,0.9S5.1,13,5.1,14.3v0.9c0,1.4,0.2,2.3,0.5,2.9S6.6,19,7.4,19c0.7,0,1.3-0.2,1.6-0.5
		s0.6-0.9,0.6-1.6H12.7z"/>
	<path class="st0" d="M19.4,21.2c-0.1-0.2-0.2-0.5-0.3-0.9c-0.5,0.7-1.3,1-2.3,1c-0.9,0-1.7-0.3-2.3-0.8s-0.9-1.2-0.9-2
		c0-1,0.4-1.8,1.1-2.3s1.9-0.8,3.3-0.8H19v-0.5c0-0.9-0.4-1.3-1.1-1.3c-0.7,0-1.1,0.3-1.1,1h-3c0-0.9,0.4-1.7,1.2-2.2
		c0.8-0.6,1.8-0.9,3-0.9s2.2,0.3,2.9,0.9s1.1,1.4,1.1,2.4v4.2c0,0.9,0.1,1.5,0.4,2v0.1H19.4z M17.5,19.3c0.4,0,0.7-0.1,0.9-0.2
		s0.4-0.3,0.5-0.5V17h-0.9c-1,0-1.5,0.5-1.5,1.4c0,0.3,0.1,0.5,0.3,0.7S17.2,19.3,17.5,19.3z"/>
	<path class="st0" d="M26.7,21.2h-3V7.7h3V21.2z"/>
	<path class="st0" d="M31.6,21.2h-3V7.7h3V21.2z"/>
	<path class="st0" d="M48.8,21.2h-3.1l-4.5-8v8h-3.1V8.4h3.1l4.5,8v-8h3.1V21.2z"/>
	<path class="st0" d="M50.2,16.4c0-0.9,0.2-1.8,0.6-2.5s0.9-1.3,1.6-1.7s1.5-0.6,2.4-0.6c1.4,0,2.5,0.4,3.4,1.3s1.2,2.1,1.2,3.6v0.1
		c0,1.5-0.4,2.7-1.2,3.5c-0.8,0.9-1.9,1.3-3.3,1.3c-1.4,0-2.4-0.4-3.3-1.2s-1.3-1.9-1.3-3.3L50.2,16.4z M53.2,16.5
		c0,0.9,0.1,1.5,0.4,1.9s0.7,0.6,1.2,0.6c1.1,0,1.6-0.8,1.6-2.4v-0.3c0-1.7-0.5-2.6-1.6-2.6c-1,0-1.5,0.7-1.6,2.2L53.2,16.5z"/>
	<path class="st0" d="M68.9,17.3l1-5.6h2.8l-2.2,9.5H68l-1.6-5.6l-1.6,5.6h-2.5l-2.2-9.5h2.8l0.9,5.7l1.5-5.7h2.1L68.9,17.3z"/>
	<path class="st0" d="M73.8,19.9c0-0.4,0.2-0.8,0.5-1.1s0.7-0.4,1.2-0.4s0.9,0.1,1.2,0.4c0.3,0.3,0.5,0.6,0.5,1.1s-0.2,0.8-0.5,1.1
		c-0.3,0.3-0.7,0.4-1.2,0.4s-0.9-0.1-1.2-0.4S73.8,20.3,73.8,19.9z M76.7,17.2h-2.4l-0.4-8.7h3.2L76.7,17.2z"/>
</g>
</svg>
