<?xml version="1.0" encoding="utf-8"?>
<!-- Generator: Adobe Illustrator 28.2.0, SVG Export Plug-In . SVG Version: 6.00 Build 0)  -->
<svg version="1.1" id="Layer_1" xmlns="http://www.w3.org/2000/svg" xmlns:xlink="http://www.w3.org/1999/xlink" x="0px" y="0px"
	 viewBox="0 0 32 32" style="enable-background:new 0 0 32 32;" xml:space="preserve">
<style type="text/css">
	.st0{fill:#FFFFFF;}
	.st1{fill:#FFFFFF;stroke:#FFFFFF;stroke-width:1.5;stroke-miterlimit:10;}
	.st2{fill:none;stroke:#FFFFFF;stroke-width:1.5;stroke-miterlimit:10;}
</style>
<g>
	<polygon class="st0" points="15.4,13.7 23.1,8.5 18.3,16.5 15.4,13.7 	"/>
</g>
<g>
	<polygon class="st0" points="16.6,18.3 8.9,23.6 13.7,15.6 16.6,18.3 	"/>
</g>
<path class="st1" d="M30.4,15.4c0,5-1.9,9-5.6,12c-2,1.7-4.3,2.7-6.9,3c-3.1,0.5-6.1-0.1-8.8-1.6C5.4,26.8,3,23.6,2,19.4
	c-0.4-1.4-0.5-2.8-0.4-4.2c0.2-3,1.2-5.9,3.1-8.3c2-2.6,4.7-4.3,7.9-5.1c1.4-0.4,2.8-0.5,4.2-0.4c3.2,0.2,6.1,1.4,8.4,3.5
	c2.5,2.2,4.1,4.9,4.9,8.1C30.3,13.8,30.3,14.7,30.4,15.4z M28.9,15.6c-0.1-0.6-0.1-1.4-0.3-2.3c-0.5-2.5-1.7-4.6-3.4-6.3
	C21.8,3.5,17.7,2.2,13,3.3C9.7,4,7,5.9,5.2,8.9c-1.9,3.1-2.5,6.5-1.7,10c0.9,4,3.2,6.9,6.9,8.7c1.7,0.8,3.4,1.2,5.2,1.3
	c1,0,2.1-0.1,3.1-0.4c2-0.5,3.9-1.4,5.4-2.8C27.2,23.3,28.8,20,28.9,15.6z"/>
<circle class="st2" cx="16" cy="16" r="1.7"/>
</svg>
