<?xml version="1.0" encoding="utf-8"?>
<!-- Generator: Adobe Illustrator 28.2.0, SVG Export Plug-In . SVG Version: 6.00 Build 0)  -->
<svg version="1.1" id="Layer_1" xmlns="http://www.w3.org/2000/svg" xmlns:xlink="http://www.w3.org/1999/xlink" x="0px" y="0px"
	 viewBox="0 0 32 32" style="enable-background:new 0 0 32 32;" xml:space="preserve">
<style type="text/css">
	.st0{fill:#FFFFFF;}
	.st1{fill:#FFFFFF;stroke:#FFFFFF;stroke-width:1.5;stroke-miterlimit:10;}
	.st2{fill:none;stroke:#FFFFFF;stroke-width:1.5;stroke-miterlimit:10;}
</style>
<g>
	<path class="st0" d="M16.4,5.2C10.4,4.9,5,10.1,4.9,16.1c-0.3,6.3,5.1,12,11.5,12c6.6,0.3,12.5-5.4,12.6-12C29.3,9.2,23.3,3,16.4,3
		C16.4,3,16.4,5.2,16.4,5.2L16.4,5.2z M16.4,3c12-0.3,18.2,14.4,9.9,23c-8.8,9.2-24.5,2.9-24.7-9.9C1.5,12.2,3,8.3,5.7,5.4
		c2.7-2.9,6.7-4.6,10.7-4.7V3L16.4,3z"/>
</g>
<g>
	<polygon class="st0" points="15.9,13.6 24.2,7.8 18.8,16.4 15.9,13.6 	"/>
</g>
<g>
	<polygon class="st0" points="16.9,18.4 8.6,24.2 14,15.6 16.9,18.4 	"/>
</g>
<path class="st1" d="M32.1,15.4c0,5.5-2.1,9.8-6.1,13.1c-2.2,1.8-4.7,2.9-7.5,3.3c-3.4,0.5-6.6-0.1-9.6-1.7
	c-4.1-2.3-6.7-5.7-7.8-10.3c-0.4-1.5-0.5-3-0.4-4.6c0.2-3.3,1.3-6.4,3.4-9c2.2-2.8,5.1-4.7,8.6-5.6c1.5-0.4,3-0.5,4.6-0.4
	c3.5,0.2,6.6,1.5,9.2,3.8c2.7,2.4,4.5,5.3,5.3,8.8C32,13.7,32,14.7,32.1,15.4z M30.4,15.6c-0.1-0.6-0.1-1.5-0.3-2.5
	c-0.5-2.7-1.8-5-3.7-6.9c-3.7-3.8-8.2-5.2-13.3-4C9.5,3,6.6,5.1,4.6,8.3c-2.1,3.4-2.7,7.1-1.9,10.9c1,4.4,3.5,7.5,7.5,9.5
	c1.8,0.9,3.7,1.3,5.7,1.4c1.1,0,2.3-0.1,3.4-0.4c2.2-0.5,4.2-1.5,5.9-3C28.6,24,30.3,20.4,30.4,15.6z"/>
<circle class="st2" cx="16.4" cy="16" r="1.9"/>
</svg>
