<?xml version="1.0" encoding="utf-8"?>
<!-- Generator: Adobe Illustrator 28.2.0, SVG Export Plug-In . SVG Version: 6.00 Build 0)  -->
<svg version="1.1" id="Layer_1" xmlns="http://www.w3.org/2000/svg" xmlns:xlink="http://www.w3.org/1999/xlink" x="0px" y="0px"
	 viewBox="0 0 508.1 1457.2" style="enable-background:new 0 0 508.1 1457.2;" xml:space="preserve">
<style type="text/css">
	.st0{fill:none;stroke:#FFFFFF;stroke-width:4;stroke-miterlimit:10;}
	.st1{fill:none;stroke:#FFFFFF;stroke-width:5;stroke-miterlimit:10;}
</style>
<circle class="st0" cx="-24.1" cy="-1643.5" r="502"/>
<circle class="st1" cx="530.9" cy="-1642.7" r="502"/>
<circle class="st0" cx="-24.1" cy="-1485.5" r="502"/>
<circle class="st1" cx="530.9" cy="-1484.6" r="502"/>
<circle class="st0" cx="-24.1" cy="-1327.4" r="502"/>
<circle class="st1" cx="530.9" cy="-1326.6" r="502"/>
<circle class="st0" cx="-24.1" cy="-1169.3" r="502"/>
<circle class="st1" cx="530.9" cy="-1168.5" r="502"/>
<circle class="st0" cx="-24.1" cy="-1011.3" r="502"/>
<circle class="st1" cx="530.9" cy="-1010.4" r="502"/>
<circle class="st0" cx="-24.1" cy="-853.2" r="502"/>
<circle class="st1" cx="530.9" cy="-852.4" r="502"/>
<circle class="st0" cx="-24.1" cy="-695.2" r="502"/>
<circle class="st1" cx="530.9" cy="-694.3" r="502"/>
<circle class="st0" cx="-24.1" cy="-537.1" r="502"/>
<circle class="st1" cx="530.9" cy="-536.3" r="502"/>
<circle class="st0" cx="-24.1" cy="-379.1" r="502"/>
<circle class="st1" cx="530.9" cy="-378.2" r="502"/>
<circle class="st0" cx="-24.1" cy="-221" r="502"/>
<circle class="st1" cx="530.9" cy="-220.1" r="502"/>
<circle class="st0" cx="-24.1" cy="-62.9" r="502"/>
<circle class="st1" cx="530.9" cy="-62.1" r="502"/>
<circle class="st0" cx="-24.1" cy="95.1" r="502"/>
<circle class="st1" cx="530.9" cy="96" r="502"/>
<circle class="st0" cx="-24.1" cy="253.2" r="502"/>
<circle class="st1" cx="530.9" cy="254" r="502"/>
<circle class="st0" cx="-24.1" cy="411.2" r="502"/>
<circle class="st1" cx="530.9" cy="412.1" r="502"/>
<circle class="st0" cx="-24.1" cy="569.3" r="502"/>
<circle class="st1" cx="530.9" cy="570.1" r="502"/>
<circle class="st0" cx="-24.1" cy="727.4" r="502"/>
<circle class="st1" cx="530.9" cy="728.2" r="502"/>
<circle class="st0" cx="-24.1" cy="885.4" r="502"/>
<circle class="st1" cx="530.9" cy="886.3" r="502"/>
<circle class="st0" cx="-24.1" cy="1043.5" r="502"/>
<circle class="st1" cx="530.9" cy="1044.3" r="502"/>
<circle class="st0" cx="-24.1" cy="1201.5" r="502"/>
<circle class="st1" cx="530.9" cy="1202.4" r="502"/>
<circle class="st0" cx="-24.1" cy="1359.6" r="502"/>
<circle class="st1" cx="530.9" cy="1360.4" r="502"/>
<circle class="st0" cx="-24.1" cy="1517.6" r="502"/>
<circle class="st1" cx="530.9" cy="1518.5" r="502"/>
<circle class="st0" cx="-24.1" cy="1675.7" r="502"/>
<circle class="st1" cx="530.9" cy="1676.5" r="502"/>
<circle class="st0" cx="-24.1" cy="1833.8" r="502"/>
<circle class="st1" cx="530.9" cy="1834.6" r="502"/>
<circle class="st0" cx="-24.1" cy="1991.8" r="502"/>
<circle class="st1" cx="530.9" cy="1992.7" r="502"/>
<circle class="st0" cx="-24.1" cy="2149.9" r="502"/>
<circle class="st1" cx="530.9" cy="2150.7" r="502"/>
<circle class="st0" cx="-24.1" cy="2307.9" r="502"/>
<circle class="st1" cx="530.9" cy="2308.8" r="502"/>
<circle class="st0" cx="-24.1" cy="2466" r="502"/>
<circle class="st1" cx="530.9" cy="2466.8" r="502"/>
<circle class="st0" cx="-24.1" cy="2624" r="502"/>
<circle class="st1" cx="530.9" cy="2624.9" r="502"/>
<circle class="st0" cx="-24.1" cy="2782.1" r="502"/>
<circle class="st1" cx="530.9" cy="2783" r="502"/>
<circle class="st0" cx="-24.1" cy="2940.2" r="502"/>
<circle class="st1" cx="530.9" cy="2941" r="502"/>
<circle class="st0" cx="-24.1" cy="3098.2" r="502"/>
<circle class="st1" cx="530.9" cy="3099.1" r="502"/>
<circle class="st0" cx="-24.1" cy="3256.3" r="502"/>
<circle class="st1" cx="530.9" cy="3257.1" r="502"/>
<circle class="st0" cx="-24.1" cy="3414.3" r="502"/>
<circle class="st1" cx="530.9" cy="3415.2" r="502"/>
<circle class="st0" cx="-24.1" cy="3572.4" r="502"/>
<circle class="st1" cx="530.9" cy="3573.2" r="502"/>
<circle class="st1" cx="-575.5" cy="-1645.6" r="502"/>
<circle class="st1" cx="-575.5" cy="-1487.6" r="502"/>
<circle class="st1" cx="-575.5" cy="-1329.5" r="502"/>
<circle class="st1" cx="-575.5" cy="-1171.5" r="502"/>
<circle class="st1" cx="-575.5" cy="-1013.4" r="502"/>
<circle class="st1" cx="-575.5" cy="-855.4" r="502"/>
<circle class="st1" cx="-575.5" cy="-697.3" r="502"/>
<circle class="st1" cx="-575.5" cy="-539.2" r="502"/>
<circle class="st1" cx="-575.5" cy="-381.2" r="502"/>
<circle class="st1" cx="-575.5" cy="-223.1" r="502"/>
<circle class="st1" cx="-575.5" cy="-65.1" r="502"/>
<circle class="st1" cx="-575.5" cy="93" r="502"/>
<circle class="st1" cx="-575.5" cy="251.1" r="502"/>
<circle class="st1" cx="-575.5" cy="409.1" r="502"/>
<circle class="st1" cx="-575.5" cy="567.2" r="502"/>
<circle class="st1" cx="-575.5" cy="725.2" r="502"/>
<circle class="st1" cx="-575.5" cy="883.3" r="502"/>
<circle class="st1" cx="-575.5" cy="1041.3" r="502"/>
<circle class="st1" cx="-575.5" cy="1199.4" r="502"/>
<circle class="st1" cx="-575.5" cy="1357.5" r="502"/>
<circle class="st1" cx="-575.5" cy="1515.5" r="502"/>
<circle class="st1" cx="-575.5" cy="1673.6" r="502"/>
<circle class="st1" cx="-575.5" cy="1831.6" r="502"/>
<circle class="st1" cx="-575.5" cy="1989.7" r="502"/>
<circle class="st1" cx="-575.5" cy="2147.7" r="502"/>
<circle class="st1" cx="-575.5" cy="2305.8" r="502"/>
<circle class="st1" cx="-575.5" cy="2463.9" r="502"/>
<circle class="st1" cx="-575.5" cy="2621.9" r="502"/>
<circle class="st1" cx="-575.5" cy="2780" r="502"/>
<circle class="st1" cx="-575.5" cy="2938" r="502"/>
<circle class="st1" cx="-575.5" cy="3096.1" r="502"/>
<circle class="st1" cx="-575.5" cy="3254.1" r="502"/>
<circle class="st1" cx="-575.5" cy="3412.2" r="502"/>
<circle class="st1" cx="-575.5" cy="3570.3" r="502"/>
</svg>
