<?xml version="1.0" encoding="utf-8"?>
<!-- Generator: Adobe Illustrator 28.2.0, SVG Export Plug-In . SVG Version: 6.00 Build 0)  -->
<svg version="1.1" id="Layer_1" xmlns="http://www.w3.org/2000/svg" xmlns:xlink="http://www.w3.org/1999/xlink" x="0px" y="0px"
	 viewBox="0 0 32 32" style="enable-background:new 0 0 32 32;" xml:space="preserve">
<style type="text/css">
	.st0{fill:#4AFF5E;}
</style>
<path class="st0" d="M31.7,15.4c0,5.5-2.1,9.8-6.1,13.1c-2.2,1.8-4.7,2.9-7.5,3.3c-3.4,0.5-6.6-0.1-9.6-1.7
	c-4.1-2.3-6.7-5.7-7.8-10.3c-0.4-1.5-0.5-3-0.4-4.6c0.2-3.3,1.3-6.4,3.4-9c2.2-2.8,5.1-4.7,8.6-5.6c1.5-0.4,3-0.5,4.6-0.4
	c3.5,0.2,6.6,1.5,9.2,3.8c2.7,2.4,4.5,5.3,5.3,8.8C31.6,13.7,31.6,14.7,31.7,15.4z M30,15.6c-0.1-0.6-0.1-1.5-0.3-2.5
	c-0.5-2.7-1.8-5-3.7-6.9c-3.7-3.8-8.2-5.2-13.3-4C9.1,3,6.2,5.1,4.2,8.3c-2.1,3.4-2.7,7.1-1.9,10.9c1,4.4,3.5,7.5,7.5,9.5
	c1.8,0.9,3.7,1.3,5.7,1.4c1.1,0,2.3-0.1,3.4-0.4c2.2-0.5,4.2-1.5,5.9-3C28.2,24,29.9,20.4,30,15.6z"/>
<path class="st0" d="M5.1,18.6c-0.7-1.7-0.6-3.3,0.5-4.9c0.9-1.4,2.2-2.3,3.6-2.9c2.4-1.2,5-1.6,7.7-1.5c1.6,0.1,3.1,0.5,4.5,1.2
	c1.7,0.8,3.2,1.8,4.3,3.3c1,1.3,1.4,2.8,1.1,4.4c-0.1,0.4-0.3,0.8-0.5,1.3c-2.1-1.3-4.2-2.6-6.3-3.9c0.2-0.4,0.5-0.8,0.7-1.2
	c-2.1-1.5-5.9-2.1-9.6-0.2c0.3,0.7,0.5,1.4,0.8,2.2C9.7,16.9,7.4,17.8,5.1,18.6z"/>
<path class="st0" d="M19.3,16.5c2.1,1.3,4.2,2.6,6.2,3.9c-0.2,0.6-0.9,0.8-1.5,0.4c-1.4-0.9-2.7-1.7-4.1-2.6
	c-0.1-0.1-0.3-0.2-0.4-0.3C19,17.7,18.9,17,19.3,16.5z"/>
<path class="st0" d="M5.7,19.8c1.6-0.6,3.2-1.2,4.9-1.7c0.5-0.2,1.1-0.4,1.6-0.6c0.2-0.1,0.3,0,0.3,0.2c0.1,0.3,0,1-0.5,1.1
	c-0.8,0.3-1.6,0.6-2.5,0.9c-0.8,0.3-1.6,0.6-2.4,0.8c-0.1,0-0.2,0.1-0.4,0.1C6.2,20.7,5.8,20.4,5.7,19.8z"/>
</svg>
