<?xml version="1.0" encoding="utf-8"?>
<!-- Generator: Adobe Illustrator 28.2.0, SVG Export Plug-In . SVG Version: 6.00 Build 0)  -->
<svg version="1.1" id="Layer_1" xmlns="http://www.w3.org/2000/svg" xmlns:xlink="http://www.w3.org/1999/xlink" x="0px" y="0px"
	 viewBox="0 0 32 32" style="enable-background:new 0 0 32 32;" xml:space="preserve">
<style type="text/css">
	.st0{fill:none;stroke:#FFFFFF;stroke-width:2;stroke-miterlimit:10;}
	.st1{fill:#FFFFFF;}
</style>
<circle class="st0" cx="16.4" cy="16.1" r="13.8"/>
<g>
	<path class="st1" d="M25,18c-0.4,0-0.7,0-1.1,0c-0.2,0-0.3,0.1-0.3,0.3c-0.1,0.4-0.3,0.8-0.5,1.3c-0.1,0.3-0.1,0.4,0.1,0.5
		c0.5,0.4,0.9,0.7,1.4,1.1c0.3,0.2,0.3,0.5,0.1,0.8c-0.6,0.9-1.4,1.7-2.3,2.3c-0.3,0.2-0.6,0.2-0.9-0.1c-0.4-0.5-0.8-0.9-1.2-1.3
		c-0.2-0.2-0.2-0.2-0.5-0.1c-0.4,0.2-0.8,0.3-1.2,0.5c-0.1,0-0.1,0-0.2,0.1c-0.2,0.1-0.3,0.2-0.3,0.4c0,0.6,0,1.3,0,1.9
		c0,0.3-0.1,0.5-0.5,0.5c-0.9,0.1-1.8,0.2-2.7,0c-0.1,0-0.1,0-0.2,0c-0.3-0.1-0.4-0.2-0.4-0.5c0-0.6,0-1.3,0-1.9
		c0-0.3-0.1-0.4-0.3-0.5c-0.4-0.2-0.8-0.3-1.3-0.5c-0.2-0.1-0.3-0.1-0.5,0.1c-0.4,0.5-0.8,0.9-1.2,1.4c-0.2,0.2-0.5,0.3-0.8,0.1
		c-0.3-0.2-0.6-0.4-0.8-0.7c-0.6-0.5-1.1-1-1.5-1.6c-0.2-0.3-0.2-0.6,0.1-0.8c0.5-0.4,0.9-0.7,1.4-1.1c0.2-0.1,0.2-0.2,0.1-0.5
		c-0.2-0.4-0.4-0.9-0.5-1.3C9.1,18,9,18,8.8,18c-0.7,0-1.4,0-2.1,0c-0.3,0-0.5-0.1-0.5-0.4c-0.1-0.8-0.1-1.6-0.1-2.4
		c0-0.2,0-0.3,0.1-0.5c0-0.3,0.2-0.4,0.5-0.4c0.7,0,1.4,0,2.1,0c0.3,0,0.3-0.1,0.4-0.3c0.1-0.4,0.3-0.8,0.5-1.2
		c0.1-0.3,0.1-0.4-0.1-0.5c-0.4-0.3-0.9-0.7-1.3-1c0,0,0,0-0.1-0.1c-0.3-0.2-0.3-0.5-0.1-0.8c0.3-0.4,0.6-0.8,1-1.1
		c0.4-0.4,0.9-0.8,1.4-1.2c0.1-0.1,0.2-0.1,0.3-0.1c0.2-0.1,0.4,0,0.6,0.2c0.4,0.4,0.8,0.9,1.2,1.3c0.2,0.3,0.3,0.3,0.6,0.1
		c0.4-0.2,0.8-0.3,1.2-0.5c0.2-0.1,0.3-0.2,0.3-0.5c0-0.6,0-1.3,0-1.9c0-0.3,0.1-0.5,0.4-0.5c1-0.1,1.9-0.1,2.9,0
		c0.3,0,0.4,0.2,0.5,0.5c0,0.6,0,1.3,0,1.9c0,0.3,0.1,0.4,0.3,0.5c0.4,0.2,0.9,0.3,1.3,0.5c0.2,0.1,0.3,0.1,0.5-0.1
		c0.4-0.4,0.8-0.9,1.2-1.3c0.3-0.3,0.5-0.3,0.9-0.1c0.9,0.6,1.7,1.4,2.3,2.3c0,0,0.1,0.1,0.1,0.1c0.1,0.2,0.1,0.5-0.1,0.7
		c-0.5,0.4-1,0.8-1.4,1.1c-0.2,0.2-0.2,0.3-0.1,0.5c0.2,0.4,0.3,0.8,0.5,1.2c0.1,0.2,0.2,0.3,0.4,0.3c0.7,0,1.4,0,2,0
		c0.3,0,0.5,0.1,0.5,0.4c0.1,0.9,0.1,1.5,0.1,1.5c0,0.9-0.1,0.8-0.1,1.1c0,0,0,0.2-0.1,0.4c0,0.2-0.2,0.3-0.4,0.3
		C25.8,18,25.4,18,25,18C25,18,25,18,25,18z M16.4,11.8c-2.4,0-4.3,2.1-4.3,4.3c0,2.2,1.9,4.3,4.3,4.2c2.3,0,4.3-2,4.3-4.3
		C20.7,13.8,18.7,11.8,16.4,11.8z"/>
</g>
</svg>
