<?xml version="1.0" encoding="utf-8"?>
<!-- Generator: Adobe Illustrator 28.2.0, SVG Export Plug-In . SVG Version: 6.00 Build 0)  -->
<svg version="1.1" id="Layer_1" xmlns="http://www.w3.org/2000/svg" xmlns:xlink="http://www.w3.org/1999/xlink" x="0px" y="0px"
	 viewBox="0 0 32 32" style="enable-background:new 0 0 32 32;" xml:space="preserve">
<style type="text/css">
	.st0{fill:none;stroke:#FFFFFF;stroke-width:2;stroke-miterlimit:10;}
	.st1{fill:#FFFFFF;}
</style>
<circle class="st0" cx="16.4" cy="16.1" r="13.8"/>
<g>
	<path class="st1" d="M24.1,17.8c-0.3,0-0.6,0-1,0c-0.2,0-0.2,0.1-0.3,0.2c-0.1,0.4-0.3,0.8-0.4,1.1c-0.1,0.2-0.1,0.3,0.1,0.5
		c0.4,0.3,0.8,0.7,1.2,1c0.3,0.2,0.3,0.4,0.1,0.7c-0.6,0.8-1.3,1.5-2,2c-0.2,0.2-0.6,0.2-0.8-0.1c-0.3-0.4-0.7-0.8-1.1-1.2
		c-0.2-0.2-0.2-0.2-0.4-0.1c-0.3,0.2-0.7,0.3-1,0.4c0,0-0.1,0-0.1,0c-0.2,0.1-0.2,0.1-0.2,0.3c0,0.6,0,1.1,0,1.7
		c0,0.3-0.1,0.4-0.4,0.5c-0.8,0.1-1.6,0.2-2.4,0c-0.1,0-0.1,0-0.2,0c-0.2,0-0.3-0.2-0.3-0.4c0-0.6,0-1.1,0-1.7
		c0-0.3-0.1-0.3-0.3-0.4c-0.4-0.1-0.8-0.3-1.1-0.5c-0.2-0.1-0.3-0.1-0.4,0.1c-0.4,0.4-0.7,0.8-1.1,1.2c-0.2,0.2-0.5,0.3-0.7,0.1
		c-0.3-0.2-0.5-0.4-0.7-0.6c-0.5-0.4-0.9-0.9-1.3-1.5C8.7,21,8.8,20.8,9,20.6c0.4-0.3,0.8-0.7,1.3-1c0.2-0.1,0.2-0.2,0.1-0.4
		c-0.2-0.4-0.3-0.8-0.4-1.2c0-0.2-0.1-0.2-0.3-0.2c-0.6,0-1.2,0-1.9,0c-0.3,0-0.4-0.1-0.5-0.4c-0.1-0.7-0.1-1.4,0-2.2
		c0-0.1,0-0.3,0.1-0.4c0-0.2,0.2-0.4,0.4-0.4c0.6,0,1.2,0,1.8,0c0.2,0,0.3,0,0.4-0.3c0.1-0.4,0.3-0.7,0.4-1.1
		c0.1-0.2,0.1-0.3-0.1-0.5c-0.4-0.3-0.8-0.6-1.2-0.9c0,0,0,0-0.1-0.1c-0.2-0.2-0.3-0.4-0.1-0.7c0.3-0.3,0.5-0.7,0.8-1
		c0.4-0.4,0.8-0.7,1.2-1.1c0.1,0,0.1-0.1,0.2-0.1c0.2-0.1,0.4,0,0.5,0.2c0.4,0.4,0.7,0.8,1.1,1.2c0.2,0.2,0.2,0.2,0.5,0.1
		c0.4-0.2,0.7-0.3,1.1-0.4c0.2-0.1,0.3-0.2,0.3-0.4c0-0.6,0-1.1,0-1.7c0-0.3,0.1-0.4,0.4-0.5C16,7,16.8,7,17.7,7.2
		c0.3,0,0.4,0.2,0.4,0.5c0,0.6,0,1.1,0,1.7c0,0.2,0.1,0.3,0.3,0.4c0.4,0.1,0.8,0.3,1.1,0.5c0.2,0.1,0.3,0.1,0.4-0.1
		c0.4-0.4,0.7-0.8,1.1-1.2c0.2-0.3,0.5-0.3,0.8-0.1c0.8,0.6,1.5,1.3,2.1,2c0,0,0,0.1,0.1,0.1c0.1,0.2,0.1,0.4-0.1,0.6
		c-0.4,0.3-0.9,0.7-1.3,1c-0.2,0.2-0.2,0.2-0.1,0.5c0.1,0.4,0.3,0.7,0.4,1.1c0.1,0.2,0.1,0.3,0.4,0.3c0.6,0,1.2,0,1.8,0
		c0.3,0,0.4,0.1,0.5,0.4c0.1,0.8,0.1,1.5,0,2.3c0,0.1,0,0.2,0,0.3c0,0.2-0.2,0.3-0.4,0.3C24.8,17.8,24.4,17.8,24.1,17.8
		C24.1,17.8,24.1,17.8,24.1,17.8z M16.4,12.3c-2.2,0-3.8,1.8-3.8,3.8c0,2,1.7,3.8,3.8,3.8c2.1,0,3.8-1.8,3.8-3.8
		C20.2,14.1,18.5,12.3,16.4,12.3z"/>
</g>
</svg>
