<?xml version="1.0" encoding="utf-8"?>
<!-- Generator: Adobe Illustrator 28.2.0, SVG Export Plug-In . SVG Version: 6.00 Build 0)  -->
<svg version="1.1" id="Layer_1" xmlns="http://www.w3.org/2000/svg" xmlns:xlink="http://www.w3.org/1999/xlink" x="0px" y="0px"
	 viewBox="0 0 32 32" style="enable-background:new 0 0 32 32;" xml:space="preserve">
<style type="text/css">
	.st0{fill:none;stroke:#FFFFFF;stroke-width:2;stroke-miterlimit:10;}
	.st1{fill:#FFFFFF;}
</style>
<g>
	<circle class="st0" cx="16.4" cy="16.1" r="13.8"/>
	<path class="st1" d="M18.4,8.8c0,0.3,0,0.6,0,0.9c0,0.1,0,0.3,0.1,0.5c0,0.1,0.1,0.1,0.2,0.2c0.4,0.3,0.4,1.1-0.3,1.4
		c-0.3,0.1-0.7,0.2-1,0.3l-0.2,0.1c0.3,0.1,0.7,0.2,1,0.2c2,0.4,4.1,0.8,6.1,1.2c0.2,0,0.4,0.1,0.6,0.1c0.4,0.1,0.7,0.4,0.7,0.8
		c0,0.4-0.3,0.7-0.7,0.8c-1.2,0.2-2.4,0.4-3.6,0.6c-1.9,0.3-3.9,0.7-5.8,1c-0.8,0.1-1.6,0.3-2.4,0.4l-0.2,0.1
		c0.6,0.1,1.2,0.2,1.8,0.3c1.5,0.3,3.1,0.6,4.6,0.9c0.3,0.1,0.6,0.1,0.9,0.2c0.5,0.1,0.8,0.5,0.8,1c0,0.5-0.2,0.9-0.8,1.1
		c-1.1,0.4-2.2,0.8-3.4,1.2l-0.2,0.1c0.4,0.1,0.8,0.2,1.1,0.3c0.2,0.1,0.4,0.1,0.6,0.2c0.3,0.1,0.5,0.4,0.5,0.7
		c0,0.3-0.1,0.6-0.4,0.8l-0.1,0.2c0,0.5,0,1,0,1.5c0,0.3,0,1.3,0,2.5c0,0,0.3,43.7-0.6,53.8c0,0.1,0,0.5-0.3,0.7
		c-0.1,0.1-0.3,0.2-0.5,0.2c-0.5,0-0.9-0.3-0.9-0.9c0-3.2,0.6-54.8,0.6-58c0-0.2,0-0.3-0.3-0.4c-0.7-0.2-1.5-0.4-2.2-0.6
		c-0.5-0.1-0.7-0.5-0.8-0.9c0-0.4,0.2-0.9,0.6-1c0.8-0.3,1.7-0.6,2.5-0.9c0.4-0.1,0.8-0.3,1.2-0.4l0,0c-0.6-0.1-1.3-0.2-1.9-0.3
		c-1.5-0.3-3-0.5-4.4-0.8c-1.2-0.2-2.4-0.4-3.6-0.6c-0.4-0.1-0.6-0.3-0.6-0.7c0-0.4,0.3-0.7,0.7-0.8c1-0.2,2-0.4,3-0.5
		c1.9-0.3,3.7-0.7,5.6-1c1.3-0.2,2.6-0.4,3.9-0.7l0.1-0.1c-0.6-0.1-1.2-0.2-1.8-0.4c-1.5-0.3-2.9-0.6-4.4-0.9
		c-0.4-0.1-0.8-0.5-0.8-0.9c0-0.5,0.2-0.8,0.7-1c0.8-0.2,1.5-0.5,2.3-0.7c0.1,0,0.2-0.1,0.2-0.1c0.1-0.1,0.1-0.2,0.1-0.3
		c-0.1-1,0-1.9,0-2.9c0-0.2,0-0.9,0-2.4c0-0.1,0-0.3,0-0.4c0-1,0-2.1,0-3.1c0-0.6,0.3-1,0.8-1c0.2,0,0.4,0.1,0.6,0.3
		c0.2,0.2,0.2,0.6,0.2,0.7c0,1.3,0,4.7,0,4.8C18.4,7.4,18.5,8.2,18.4,8.8z"/>
</g>
<path class="st1" d="M-2.5,26.3"/>
</svg>
