<?xml version="1.0" encoding="utf-8"?>
<!-- Generator: Adobe Illustrator 28.2.0, SVG Export Plug-In . SVG Version: 6.00 Build 0)  -->
<svg version="1.1" id="Layer_1" xmlns="http://www.w3.org/2000/svg" xmlns:xlink="http://www.w3.org/1999/xlink" x="0px" y="0px"
	 viewBox="0 0 32 32" style="enable-background:new 0 0 32 32;" xml:space="preserve">
<style type="text/css">
	.st0{fill:#FFFFFF;}
</style>
<path class="st0" d="M10.5,8.5c0,0.3,0,0.6,0,0.9c0,0.1,0,0.1,0,0.2c0.1,0,0.1,0,0.2-0.1c0.2-0.2,0.4-0.4,0.6-0.7
	C11.9,8.2,12.4,7.6,13,7c0.7-0.7,1.3-1.5,2-2.2c0.2-0.3,0.5-0.5,0.8-0.7c0.5-0.2,1-0.2,1.4,0.1c0.3,0.3,0.6,0.6,0.9,0.9
	c0.7,0.7,1.4,1.5,2,2.2c1.2,1.3,2.4,2.6,3.6,3.9c0.6,0.6,1.1,1.3,1.7,1.9c0.5,0.6,1,1.1,1.5,1.7c0.4,0.4,0.5,0.9,0.4,1.4
	c-0.1,0.4-0.4,0.7-0.8,0.7s-0.6-0.1-0.9-0.4c-0.5-0.5-1-1.1-1.5-1.6c-0.6-0.7-1.2-1.3-1.8-1.9c-0.7-0.8-1.4-1.5-2.1-2.3
	c-0.4-0.5-0.8-0.9-1.3-1.4c-0.5-0.6-1-1.1-1.6-1.7c0-0.2-0.1-0.4-0.3-0.6c-0.1-0.1-0.2-0.2-0.3-0.3c-0.1-0.1-0.3-0.1-0.5,0
	C16.1,6.8,16,6.9,15.9,7c-0.7,0.8-1.4,1.6-2.1,2.3c-0.8,0.9-1.6,1.7-2.4,2.6c-0.6,0.6-1.1,1.2-1.7,1.8c-0.9,1-1.7,1.9-2.6,2.9
	c-0.4,0.4-0.9,0.5-1.3,0.2c-0.2-0.1-0.3-0.4-0.4-0.6c-0.2-0.5,0-1,0.3-1.3c0.6-0.7,1.2-1.3,1.8-2c0.2-0.3,0.5-0.5,0.7-0.8
	c0.1-0.1,0.2-0.3,0.2-0.4c0-1.3,0-2.7,0-4c0-0.3,0.1-0.6,0.3-0.9c0.4-0.4,1-0.4,1.4,0c0.2,0.3,0.3,0.6,0.3,0.9
	C10.5,8,10.5,8.2,10.5,8.5L10.5,8.5z"/>
<path class="st0" d="M12.7,19.9c0,1.9,0,3.8,0,5.7c0,0.4-0.1,0.5-0.5,0.5c-0.7,0-1.4,0-2.2,0c-0.6,0-1-0.3-1.3-0.7
	c-0.3-0.4-0.4-0.8-0.4-1.3c0-1.9,0-3.8,0-5.7c0-0.3,0.1-0.5,0.3-0.7c0.7-0.8,1.4-1.6,2.2-2.4c0.4-0.4,0.8-0.9,1.2-1.3
	c0.1-0.1,0.2-0.3,0.4-0.2s0.2,0.3,0.2,0.4C12.7,16.1,12.7,18,12.7,19.9L12.7,19.9z"/>
<path class="st0" d="M20.1,19.9c0-1.9,0-3.7,0-5.6c0-0.1,0-0.3,0.1-0.4c0.1-0.2,0.3-0.2,0.4,0c0.3,0.4,0.7,0.7,1,1.1
	c0.6,0.7,1.3,1.4,1.9,2.1c0.2,0.2,0.4,0.4,0.6,0.7c0.2,0.2,0.3,0.4,0.3,0.7c0,1.9,0,3.8,0,5.7c0,0.6-0.2,1.2-0.6,1.6
	c-0.3,0.2-0.6,0.4-0.9,0.4c-0.7,0-1.5,0-2.2,0c-0.4,0-0.5-0.1-0.5-0.5C20.1,23.7,20.1,21.8,20.1,19.9L20.1,19.9z"/>
<path class="st0" d="M18.8,23.4c0,0.7,0,1.4,0,2.2c0,0.3-0.1,0.5-0.4,0.5c-1.3,0-2.6,0-3.8,0c-0.3,0-0.5-0.2-0.5-0.5
	c0-1.4,0-2.8,0-4.1c0-0.1,0-0.2,0-0.3c0-0.3,0.2-0.5,0.6-0.5c0.6,0,1.3,0,1.9,0c0.5,0,1.1,0,1.6,0c0.4,0,0.6,0.3,0.6,0.6
	C18.8,22,18.8,22.7,18.8,23.4L18.8,23.4z"/>
<path class="st0" d="M16.4,13.5c-0.6,0-1.2,0-1.8,0c-0.4,0-0.6-0.2-0.6-0.6c-0.1-0.4,0-0.8,0.3-1.2c0.5-0.5,1-1.1,1.5-1.6
	c0.2-0.2,0.4-0.3,0.6-0.3s0.4,0.1,0.5,0.3c0.5,0.6,1.1,1.2,1.6,1.7c0.3,0.4,0.4,1,0.2,1.4c-0.1,0.2-0.2,0.3-0.4,0.2
	C17.6,13.5,17,13.5,16.4,13.5L16.4,13.5z"/>
<path class="st0" d="M15.8,17.1c0,0.6,0,1.1,0,1.7c0,0.3-0.2,0.4-0.4,0.4c-0.3,0-0.6,0-0.9,0c-0.3,0-0.5-0.2-0.5-0.5
	c0-1.1,0-2.2,0-3.3c0-0.3,0.2-0.4,0.4-0.4c0.3,0,0.6,0,0.9,0c0.3,0,0.5,0.1,0.5,0.5C15.8,16,15.8,16.5,15.8,17.1z"/>
<path class="st0" d="M18.8,17.1c0,0.5,0,1.1,0,1.6c0,0.3-0.2,0.5-0.5,0.5s-0.6,0-0.9,0c-0.2,0-0.3-0.1-0.4-0.3c0-0.1,0-0.1,0-0.2
	c0-1.1,0-2.1,0-3.2c0-0.3,0.2-0.5,0.5-0.5s0.6,0,0.9,0c0.2,0,0.4,0.2,0.4,0.5C18.8,16,18.8,16.5,18.8,17.1L18.8,17.1z"/>
<path class="st0" d="M25.4,6.5c0,0.1-0.1,0.2-0.1,0.4C25.3,7,25.2,7,25.1,7s-0.2-0.1-0.2-0.2s-0.1-0.3-0.1-0.4
	c0-0.4-0.2-0.6-0.6-0.6c-0.1,0-0.2,0-0.3,0c-0.2,0-0.3-0.2-0.3-0.3c0-0.1,0.2-0.3,0.3-0.3c0.1,0,0.3,0,0.4-0.1
	c0.2-0.1,0.4-0.3,0.4-0.5c0-0.1,0-0.3,0.1-0.4C24.8,4.1,24.9,4,25,4s0.2,0.1,0.2,0.1c0,0.1,0.1,0.1,0.1,0.2s0,0.2,0,0.3
	c0,0.3,0.2,0.5,0.5,0.5c0.1,0,0.2,0,0.3,0c0.2,0,0.3,0.1,0.3,0.2s0,0.2-0.2,0.3c-0.1,0-0.2,0-0.3,0c-0.2,0-0.4,0-0.5,0.2
	C25.4,6.2,25.4,6.3,25.4,6.5C25.3,6.5,25.4,6.5,25.4,6.5z"/>
</svg>
