<?xml version="1.0" encoding="utf-8"?>
<!-- Generator: Adobe Illustrator 28.2.0, SVG Export Plug-In . SVG Version: 6.00 Build 0)  -->
<svg version="1.1" id="Layer_1" xmlns="http://www.w3.org/2000/svg" xmlns:xlink="http://www.w3.org/1999/xlink" x="0px" y="0px"
	 viewBox="0 0 32 32" style="enable-background:new 0 0 32 32;" xml:space="preserve">
<style type="text/css">
	.st0{fill:#FFFFFF;}
</style>
<path class="st0" d="M8.4,7.1c0,0.4,0,0.8,0,1.2c0,0.1,0,0.1,0,0.3c0.1,0,0.1,0,0.3-0.1c0.3-0.3,0.5-0.5,0.8-1
	C10.3,6.7,11,5.8,11.8,5c1-1,1.8-2,2.7-3c0.3-0.4,0.7-0.7,1.1-1c0.7-0.3,1.4-0.3,1.9,0.1c0.4,0.4,0.8,0.8,1.2,1.2c1,1,1.9,2,2.7,3
	c1.6,1.8,3.3,3.5,4.9,5.3c0.8,0.8,1.5,1.8,2.3,2.6c0.7,0.8,1.4,1.5,2,2.3c0.5,0.5,0.7,1.2,0.5,1.9c-0.1,0.5-0.5,1-1.1,1
	s-0.8-0.1-1.2-0.5c-0.7-0.7-1.4-1.5-2-2.2c-0.8-1-1.6-1.8-2.4-2.6c-1-1.1-1.9-2-2.9-3.1c-0.5-0.7-1.1-1.2-1.8-1.9
	c-0.7-0.8-1.4-1.5-2.2-2.3c0-0.3-0.1-0.5-0.4-0.8c-0.1-0.1-0.3-0.3-0.4-0.4c-0.1-0.1-0.4-0.1-0.7,0C16,4.8,15.9,4.9,15.7,5
	c-1,1.1-1.9,2.2-2.9,3.1c-1.1,1.2-2.2,2.3-3.3,3.5c-0.8,0.8-1.5,1.6-2.3,2.4c-1.2,1.4-2.3,2.6-3.5,3.9c-0.5,0.5-1.2,0.7-1.8,0.3
	c-0.3-0.1-0.4-0.5-0.5-0.8c-0.3-0.7,0-1.4,0.4-1.8c0.8-1,1.6-1.8,2.4-2.7c0.3-0.4,0.7-0.7,1-1.1c0.1-0.1,0.3-0.4,0.3-0.5
	c0-1.8,0-3.7,0-5.4c0-0.4,0.1-0.8,0.4-1.2c0.5-0.5,1.4-0.5,1.9,0C8.1,5.2,8.3,5.6,8.3,6C8.4,6.4,8.4,6.7,8.4,7.1L8.4,7.1z"/>
<path class="st0" d="M11.4,22.5c0,2.6,0,5.2,0,7.7c0,0.5-0.1,0.7-0.7,0.7c-1,0-1.9,0-3,0c-0.8,0-1.4-0.4-1.8-1
	c-0.4-0.5-0.5-1.1-0.5-1.8c0-2.6,0-5.2,0-7.7c0-0.4,0.1-0.7,0.4-1c1-1.1,1.9-2.2,3-3.3c0.5-0.5,1.1-1.2,1.6-1.8
	c0.1-0.1,0.3-0.4,0.5-0.3c0.3,0.1,0.3,0.4,0.3,0.5C11.4,17.4,11.4,20,11.4,22.5L11.4,22.5z"/>
<path class="st0" d="M21.5,22.5c0-2.6,0-5,0-7.6c0-0.1,0-0.4,0.1-0.5c0.1-0.3,0.4-0.3,0.5,0c0.4,0.5,1,1,1.4,1.5
	c0.8,1,1.8,1.9,2.6,2.9c0.3,0.3,0.5,0.5,0.8,1c0.3,0.3,0.4,0.5,0.4,1c0,2.6,0,5.2,0,7.7c0,0.8-0.3,1.6-0.8,2.2
	c-0.4,0.3-0.8,0.5-1.2,0.5c-1,0-2,0-3,0c-0.5,0-0.7-0.1-0.7-0.7C21.5,27.7,21.5,25.1,21.5,22.5L21.5,22.5z"/>
<path class="st0" d="M19.7,27.3c0,1,0,1.9,0,3c0,0.4-0.1,0.7-0.5,0.7c-1.8,0-3.5,0-5.2,0c-0.4,0-0.7-0.3-0.7-0.7c0-1.9,0-3.8,0-5.6
	c0-0.1,0-0.3,0-0.4c0-0.4,0.3-0.7,0.8-0.7c0.8,0,1.8,0,2.6,0c0.7,0,1.5,0,2.2,0c0.5,0,0.8,0.4,0.8,0.8
	C19.7,25.4,19.7,26.3,19.7,27.3L19.7,27.3z"/>
<path class="st0" d="M16.4,13.9c-0.8,0-1.6,0-2.4,0c-0.5,0-0.8-0.3-0.8-0.8c-0.1-0.5,0-1.1,0.4-1.6c0.7-0.7,1.4-1.5,2-2.2
	c0.3-0.3,0.5-0.4,0.8-0.4c0.3,0,0.5,0.1,0.7,0.4c0.7,0.8,1.5,1.6,2.2,2.3c0.4,0.5,0.5,1.4,0.3,1.9c-0.1,0.3-0.3,0.4-0.5,0.3
	C18.1,13.9,17.2,13.9,16.4,13.9L16.4,13.9z"/>
<path class="st0" d="M15.6,18.7c0,0.8,0,1.5,0,2.3c0,0.4-0.3,0.5-0.5,0.5c-0.4,0-0.8,0-1.2,0c-0.4,0-0.7-0.3-0.7-0.7
	c0-1.5,0-3,0-4.5c0-0.4,0.3-0.5,0.5-0.5c0.4,0,0.8,0,1.2,0s0.7,0.1,0.7,0.7C15.6,17.2,15.6,17.9,15.6,18.7z"/>
<path class="st0" d="M19.7,18.7c0,0.7,0,1.5,0,2.2c0,0.4-0.3,0.7-0.7,0.7c-0.4,0-0.8,0-1.2,0c-0.3,0-0.4-0.1-0.5-0.4
	c0-0.1,0-0.1,0-0.3c0-1.5,0-2.9,0-4.3c0-0.4,0.3-0.7,0.7-0.7s0.8,0,1.2,0c0.3,0,0.5,0.3,0.5,0.7C19.7,17.2,19.7,17.9,19.7,18.7
	L19.7,18.7z"/>
<path class="st0" d="M28.6,4.3c0,0.1-0.1,0.3-0.1,0.5C28.5,5,28.4,5,28.2,5S28,4.9,28,4.8s-0.1-0.4-0.1-0.5c0-0.5-0.3-0.8-0.8-0.8
	c-0.1,0-0.3,0-0.4,0c-0.3,0-0.4-0.3-0.4-0.4c0-0.1,0.3-0.4,0.4-0.4c0.1,0,0.4,0,0.5-0.1c0.3-0.1,0.5-0.4,0.5-0.7
	c0-0.1,0-0.4,0.1-0.5C27.8,1.1,28,1,28.1,1s0.3,0.1,0.3,0.1c0,0.1,0.1,0.1,0.1,0.3s0,0.3,0,0.4c0,0.4,0.3,0.7,0.7,0.7
	c0.1,0,0.3,0,0.4,0c0.3,0,0.4,0.1,0.4,0.3s0,0.3-0.3,0.4c-0.1,0-0.3,0-0.4,0c-0.3,0-0.5,0-0.7,0.3C28.6,3.9,28.6,4.1,28.6,4.3
	C28.5,4.3,28.6,4.3,28.6,4.3z"/>
</svg>
