<?xml version="1.0" encoding="utf-8"?>
<!-- Generator: Adobe Illustrator 28.2.0, SVG Export Plug-In . SVG Version: 6.00 Build 0)  -->
<svg version="1.1" id="Layer_1" xmlns="http://www.w3.org/2000/svg" xmlns:xlink="http://www.w3.org/1999/xlink" x="0px" y="0px"
	 viewBox="0 0 32 32" style="enable-background:new 0 0 32 32;" xml:space="preserve">
<style type="text/css">
	.st0{fill:none;stroke:#FFFFFF;stroke-width:2;stroke-miterlimit:10;}
	.st1{fill:#FFFFFF;stroke:#FFFFFF;stroke-width:2;stroke-miterlimit:10;}
	.st2{fill:#FFFFFF;}
</style>
<line class="st0" x1="16.4" y1="13.7" x2="16.4" y2="26"/>
<circle class="st1" cx="16.5" cy="8.5" r="0.9"/>
<g>
	<path class="st2" d="M16,4.4C9.7,4.1,3.9,9.6,3.9,16C3.6,22.6,9.3,28.6,16,28.7C27.6,29,33.6,14.8,25.6,6.4
		c-2.4-2.6-5.9-4.2-9.6-4.2C16,2.2,16,4.4,16,4.4L16,4.4z M16,2.2C23.5,1.9,30.3,8.4,30.4,16c0.4,7.8-6.5,14.9-14.4,14.9
		C2.4,31.2-4.6,14.6,4.8,4.8C7.7,1.9,11.8,0,16-0.1V2.2L16,2.2z"/>
</g>
</svg>
