<?xml version="1.0" encoding="utf-8"?>
<!-- Generator: Adobe Illustrator 28.2.0, SVG Export Plug-In . SVG Version: 6.00 Build 0)  -->
<svg version="1.1" id="Layer_1" xmlns="http://www.w3.org/2000/svg" xmlns:xlink="http://www.w3.org/1999/xlink" x="0px" y="0px"
	 viewBox="0 0 32 32" style="enable-background:new 0 0 32 32;" xml:space="preserve">
<style type="text/css">
	.st0{fill:none;stroke:#FFF13F;stroke-width:2;stroke-miterlimit:10;}
	.st1{fill:none;stroke:#FFFFFF;stroke-width:2;stroke-miterlimit:10;}
	.st2{fill:none;stroke:#FFFFFF;stroke-miterlimit:10;}
	.st3{fill:#FFF13F;}
</style>
<circle class="st0" cx="16.4" cy="16.1" r="13.8"/>
<path class="st1" d="M38.5-2.9"/>
<line class="st2" x1="23.6" y1="4.3" x2="23.6" y2="4.3"/>
<path class="st3" d="M21.8,11.4H11c-1.2,0-2.2,1-2.2,2.2v4.9c0,1.2,1,2.2,2.2,2.2h10.8c1.2,0,2.2-1,2.2-2.2v-4.9
	C24,12.4,23,11.4,21.8,11.4z M12.5,18.8c-0.8,0-1.5-0.7-1.5-1.5s0.7-1.5,1.5-1.5s1.5,0.7,1.5,1.5C14,18.1,13.3,18.8,12.5,18.8z
	 M16.5,18.8c-0.8,0-1.5-0.7-1.5-1.5s0.7-1.5,1.5-1.5c0.8,0,1.5,0.7,1.5,1.5C18,18.1,17.3,18.8,16.5,18.8z M20.5,18.8
	c-0.8,0-1.5-0.7-1.5-1.5s0.7-1.5,1.5-1.5s1.5,0.7,1.5,1.5C22,18.1,21.3,18.8,20.5,18.8z"/>
</svg>
