<?xml version="1.0" encoding="utf-8"?>
<!-- Generator: Adobe Illustrator 28.2.0, SVG Export Plug-In . SVG Version: 6.00 Build 0)  -->
<svg version="1.1" id="Layer_1" xmlns="http://www.w3.org/2000/svg" xmlns:xlink="http://www.w3.org/1999/xlink" x="0px" y="0px"
	 viewBox="0 0 32 32" style="enable-background:new 0 0 32 32;" xml:space="preserve">
<style type="text/css">
	.st0{fill:none;stroke:#FFFFFF;stroke-width:2;stroke-miterlimit:10;}
	.st1{fill:#FFFFFF;}
</style>
<circle class="st0" cx="16" cy="16" r="13.8"/>
<path class="st1" d="M18.3,24.9"/>
<g>
	<g>
		<path class="st1" d="M30.1,16.3c0,8.3-6.7,14.5-14.7,14.5c-8.3,0-14.5-6.8-14.5-14.5C1,8.4,7.5,1.6,15.6,1.7
			C23.3,1.7,30,8.1,30.1,16.3z M25.3,8c-0.7-0.8-2.6-3-5.9-4.1c-0.6-0.2-2.9-0.9-5.9-0.4C10.2,4,7.7,5.6,5.6,8.2
			C5.4,8.5,5.2,8.7,5,9c-0.3,0.4-0.5,0.8-0.8,1.2c-0.4,0.7-0.8,1.4-1,2.2c-0.6,2-0.8,4.1-0.4,6.2c0.3,1.7,0.9,3.3,1.9,4.8
			c0.6,1,2.3,1.3,3.1,0.9C8,24.1,8.2,24.1,8.4,24c0.9-0.4,1.7-0.4,2.6,0c0.3,0.1,0.6,0.3,0.9,0.4c0.1,0,0.3,0,0.3,0
			c0.1-0.1,0-0.3,0-0.4c0.1-0.2,0.7-0.1,1.1,0.1c0.4,0.1,0.6,0.3,0.8,0.4c1.4,0.4,2.7,0.3,4-0.3c1.1-0.5,2.2-0.5,3.3,0
			c0.8,0.4,1.6,0.5,2.4,0.3c1.2-0.2,2.2-0.7,2.8-1.9c0.9-1.6,1.4-3.3,1.6-5c0-0.5,0.1-1.9-0.2-3.7c-0.2-0.8-0.4-1.4-0.5-1.7
			C27.5,11.6,26.8,9.8,25.3,8z M9,26.8c0.2,0.1,0.2,0.2,0.4,0.3c0.5,0.3,1.1,0.6,1.6,0.8c1.3,0.5,2.6,0.5,3.9-0.3
			c0.3-0.2,0.6-0.3,0.9-0.5c0.8-0.3,1.6-0.1,2.4,0.2c0.4,0.2,0.8,0.3,1.2,0.3c0.5,0.1,0.9,0,1.3-0.3c0.1-0.1,0.2-0.2,0.2-0.3
			c0-0.1-0.2-0.2-0.3-0.2c-0.2,0-0.3-0.1-0.5,0c-0.7,0-1.3-0.1-1.9-0.4c-0.8-0.4-1.7-0.5-2.6-0.2c-0.5,0.2-0.9,0.4-1.3,0.7
			c-0.5,0.3-1.1,0.5-1.8,0.5c-0.6,0-1.2-0.2-1.7-0.4C10.3,26.6,9.7,26.6,9,26.8z M6.4,25.4C6.4,25.4,6.4,25.4,6.4,25.4
			c0,0.1,0,0.1,0.1,0.1c0,0,0.1,0.1,0.1,0.1c0.5,0.6,1.1,0.7,1.8,0.4c1-0.4,2-0.4,3,0.1c1.1,0.5,2.3,0.3,3.1-0.6
			c0,0,0.1-0.1,0.1-0.2c-0.1,0-0.1-0.1-0.2-0.1c-0.2,0-0.3,0.1-0.5,0.1c-0.9,0.1-1.9,0.1-2.7-0.4c-0.9-0.5-1.8-0.4-2.8,0
			c-0.3,0.2-0.7,0.3-1.1,0.4C7.1,25.4,6.7,25.4,6.4,25.4z M24.7,25.3c-0.2,0-0.3,0.1-0.5,0.1c-0.9,0.1-1.8,0.2-2.7-0.3
			c-0.7-0.4-1.5-0.5-2.3-0.3c-0.4,0.1-0.8,0.2-1.1,0.5c0.6,0.3,1,0.7,1.7,0.5c0.6-0.2,1.2,0.1,1.7,0.4
			C22.7,26.6,23.9,26.3,24.7,25.3z M14.6,29c1.5,0.1,2.9-0.1,4.3-0.5C17.3,27.6,16.1,27.7,14.6,29z"/>
		<path class="st1" d="M9.7,12.7c0-3.2,2.7-5.9,5.9-5.8c3.3,0.1,6,2.8,6,6c0,3.2-2.8,6-6,5.9C12.4,18.7,9.7,15.9,9.7,12.7z"/>
	</g>
	<path class="st1" d="M10.8,4c0.1,0.8,0.4,1.4,1.3,1.4c-0.9,0-1.2,0.5-1.3,1.3c-0.1-0.3-0.1-0.7-0.4-1c-0.3-0.3-0.6-0.3-1-0.4
		c0.3-0.1,0.7-0.1,1-0.4C10.7,4.8,10.7,4.4,10.8,4"/>
	<path class="st1" d="M20,6c0-0.3-0.2-0.5-0.5-0.5C19.8,5.4,20,5.2,20,4.9c0,0.3,0.2,0.5,0.5,0.6C20.3,5.5,20.1,5.7,20,6z"/>
	<path class="st1" d="M8.2,10c0-0.3-0.2-0.5-0.5-0.5C8,9.4,8.2,9.2,8.2,8.9c0,0.3,0.2,0.5,0.5,0.5C8.6,9.5,8.5,9.5,8.4,9.6
		C8.3,9.7,8.3,9.8,8.2,10"/>
	<path class="st1" d="M16.7,4.8c0,0.3,0.2,0.4,0.4,0.4c-0.2,0.1-0.4,0.2-0.4,0.5c0-0.3-0.2-0.4-0.4-0.5C16.5,5.2,16.7,5.1,16.7,4.8z
		"/>
	<path class="st1" d="M14.2,5.2c-0.2,0-0.3,0.2-0.4,0.4c0-0.2-0.1-0.3-0.3-0.4c0.2-0.1,0.3-0.1,0.3-0.4C13.9,5.1,13.9,5.2,14.2,5.2z
		"/>
	<path class="st1" d="M15.9,6.3c-0.1,0-0.2,0.1-0.2,0.3c0-0.2-0.1-0.3-0.2-0.3c0.1-0.1,0.2-0.2,0.3-0.3C15.7,6.1,15.8,6.2,15.9,6.3"
		/>
	<path class="st1" d="M8.6,7.2C8.7,7.1,8.8,7,8.9,6.9C9,7,9.1,7.1,9.1,7.2C9,7.2,8.9,7.3,8.9,7.5C8.9,7.3,8.8,7.2,8.6,7.2"/>
</g>
<path class="st1" d="M12.3,19.8"/>
<path class="st1" d="M14.4,22.6c-0.9,0.2-1.7,0.2-2.6,0.1c-0.8,0-1.6-0.2-2.5-0.4c-0.8-0.2-1.6-0.2-2.4-0.1c-1,0-2.1,0.1-3.1,0.1
	c-0.4,0-0.9-0.1-1.3-0.2c0,0,0,0,0,0c0.4,0,0.7,0,1.1,0c1.2,0,2.3-0.1,3.4-0.3c0.9-0.2,1.8-0.1,2.7,0.1c1,0.2,2,0.4,3.1,0.5
	C13.4,22.4,13.9,22.5,14.4,22.6z"/>
<path class="st1" d="M7.8,21.3c-0.7,0-1.3,0.1-2,0.2c-1.4,0.1-2.8,0.2-4.1,0c-0.3,0-0.5-0.1-0.8-0.2"/>
<path class="st1" d="M10.3,21c0.8,0.2,1.5,0.4,2.3,0.5c0.2,0,0.3,0,0.5,0.1c0,0,0,0,0,0c-0.3,0-0.5,0.1-0.8,0.1
	c-0.7,0.1-1.4,0-2.1-0.2c-0.8-0.2-1.6-0.3-2.4-0.3"/>
<path class="st1" d="M13.8,23.3c-0.2,0-0.4,0.1-0.7,0.1c-1.1,0.2-2.2,0.1-3.3,0c-0.6,0-1.3-0.1-1.9-0.2c-0.6,0-1.2,0-1.8-0.1
	c-0.6,0-1.2-0.1-1.8-0.3c0,0,0,0-0.1,0c0,0,0,0,0.1,0c0.9,0,1.9-0.1,2.8-0.2c0.9-0.1,1.7,0,2.5,0.2C11,23.2,12.4,23.3,13.8,23.3z"/>
<path class="st1" d="M17.8,21.3c-0.6,0.3-3.5,0.5-4.5,0"/>
<path class="st1" d="M10.5,24c-1.2,0.2-2.3,0.1-3.4-0.2C8.2,23.6,9.3,24,10.5,24z"/>
<path class="st1" d="M14.9,22.3c0.8,0,1.7,0,2.5,0C16.5,22.7,15.7,22.7,14.9,22.3z"/>
<path class="st1" d="M29.2,22.5c-0.8,0.2-1.7,0.2-2.5,0.1c-0.8,0-1.9,0.1-2.7-0.1c-0.7-0.2-1.5-0.2-2.3-0.1c-1,0-2,0.1-3,0.1
	c-0.4,0-0.5-0.3-0.9-0.5c0,0,0,0,0,0c0.4,0,0.4,0.3,0.7,0.3c1.1,0,2.2-0.1,3.3-0.3c0.9-0.2,1.7-0.1,2.6,0.1c1,0.2,2.3,0.1,3.3,0.3
	C28.2,22.3,28.6,22.4,29.2,22.5z"/>
<path class="st1" d="M22.7,21.4c-0.7,0-1.3,0.1-2,0.2c-1.4,0.1-2.4-0.1-3.8-0.3c-0.3,0-0.5-0.1-0.8-0.2"/>
<path class="st1" d="M25.5,20.9c0.8,0.2,1.5,0.4,2.3,0.5c0.2,0,0.3,0,0.5,0.1c0,0,0,0,0,0c-0.3,0-0.5,0.1-0.8,0.1
	c-0.7,0.1-1.7,0.2-2.4,0.1c-0.8-0.2-1.6-0.3-2.4-0.3"/>
<path class="st1" d="M27.3,23.4c-0.2,0-0.4,0.1-0.6,0.1c-1,0.2-2.1,0.1-3.1,0c-0.6,0-1.2-0.1-1.9-0.2c-0.6,0-1.2,0-1.8-0.1
	c-0.6,0-1.1-0.1-1.7-0.3c0,0,0,0-0.1,0c0,0,0,0,0.1,0c0.9,0,1.8-0.1,2.7-0.2c0.8-0.1,1.6,0,2.4,0.2C24.6,23.3,25.9,23.4,27.3,23.4z"
	/>
<path class="st1" d="M18.8,23.3c-0.6,0.3-3.5,0.5-4.5,0"/>
<path class="st1" d="M24.8,24.1c-1.2,0.2-2.3,0.1-3.4-0.2C22.5,23.7,23.6,24.1,24.8,24.1z"/>
<path class="st1" d="M30.9,22c0.7,0,1.3,0,2,0"/>
</svg>
