<?xml version="1.0" encoding="utf-8"?>
<!-- Generator: Adobe Illustrator 28.2.0, SVG Export Plug-In . SVG Version: 6.00 Build 0)  -->
<svg version="1.1" id="Layer_1" xmlns="http://www.w3.org/2000/svg" xmlns:xlink="http://www.w3.org/1999/xlink" x="0px" y="0px"
	 viewBox="0 0 32 32" style="enable-background:new 0 0 32 32;" xml:space="preserve">
<style type="text/css">
	.st0{fill:none;stroke:#FFFFFF;stroke-width:2;stroke-miterlimit:10;}
</style>
<circle class="st0" cx="16.4" cy="11" r="3.8"/>
<g>
	<g>
		<path class="st0" d="M16.4,2.3C8.8,2.3,2.6,8.4,2.6,16.1c0,4.4,2,8.2,5.2,10.8c-0.1-0.5-0.1-1-0.1-1.5c0-4.9,4-8.9,8.9-8.9
			s8.9,4,8.9,8.9c0,0.4,0,0.8-0.1,1.3c3-2.5,4.9-6.3,4.9-10.6C30.2,8.4,24,2.3,16.4,2.3z"/>
	</g>
</g>
<g>
	<g>
		
			<ellipse transform="matrix(0.7071 -0.7071 0.7071 0.7071 -7.0802 16.5231)" class="st0" cx="16.4" cy="16.8" rx="13.8" ry="13.8"/>
	</g>
</g>
</svg>
