<?xml version="1.0" encoding="utf-8"?>
<!-- Generator: Adobe Illustrator 28.2.0, SVG Export Plug-In . SVG Version: 6.00 Build 0)  -->
<svg version="1.1" id="Layer_1" xmlns="http://www.w3.org/2000/svg" xmlns:xlink="http://www.w3.org/1999/xlink" x="0px" y="0px"
	 viewBox="0 0 32 96" style="enable-background:new 0 0 32 96;" xml:space="preserve">
<style type="text/css">
	.st0{fill:none;stroke:#FFFFFF;stroke-width:2;stroke-linecap:round;stroke-miterlimit:10;}
	.st1{opacity:0.24;fill:none;stroke:#FFFFFF;stroke-width:2;stroke-linecap:round;stroke-miterlimit:10;enable-background:new    ;}
</style>
<line class="st0" x1="9" y1="41.7" x2="9" y2="49.7"/>
<line class="st0" x1="9" y1="55.3" x2="9" y2="60.8"/>
<line class="st0" x1="9" y1="34.4" x2="9" y2="36.3"/>
<line class="st0" x1="12.4" y1="46.8" x2="12.4" y2="54.9"/>
<line class="st0" x1="12.4" y1="60.3" x2="12.4" y2="62.6"/>
<line class="st0" x1="12.4" y1="33.4" x2="12.4" y2="41.3"/>
<line class="st1" x1="22.9" y1="41.7" x2="22.9" y2="49.7"/>
<line class="st1" x1="22.9" y1="55.3" x2="22.9" y2="60.8"/>
<line class="st1" x1="22.9" y1="34.4" x2="22.9" y2="36.3"/>
<line class="st0" x1="9.1" y1="74.7" x2="9.1" y2="82.8"/>
<line class="st0" x1="9.1" y1="88.3" x2="9.1" y2="93.8"/>
<line class="st0" x1="9.1" y1="67.4" x2="9.1" y2="69.3"/>
<line class="st0" x1="12.5" y1="79.9" x2="12.5" y2="87.9"/>
<line class="st0" x1="12.5" y1="93.3" x2="12.5" y2="95.6"/>
<line class="st0" x1="12.5" y1="66.4" x2="12.5" y2="74.3"/>
<line class="st1" x1="23" y1="74.7" x2="23" y2="82.8"/>
<line class="st1" x1="23" y1="88.3" x2="23" y2="93.8"/>
<line class="st1" x1="23" y1="67.4" x2="23" y2="69.3"/>
<line class="st0" x1="9.1" y1="8.6" x2="9.1" y2="16.7"/>
<line class="st0" x1="9.1" y1="22.2" x2="9.1" y2="27.8"/>
<line class="st0" x1="9.1" y1="1.4" x2="9.1" y2="3.2"/>
<line class="st0" x1="12.5" y1="13.8" x2="12.5" y2="21.9"/>
<line class="st0" x1="12.5" y1="27.3" x2="12.5" y2="29.6"/>
<line class="st0" x1="12.5" y1="0.4" x2="12.5" y2="8.3"/>
<line class="st1" x1="23" y1="8.6" x2="23" y2="16.7"/>
<line class="st1" x1="23" y1="22.2" x2="23" y2="27.8"/>
<line class="st1" x1="23" y1="1.4" x2="23" y2="3.2"/>
</svg>
