<?xml version="1.0" encoding="utf-8"?>
<!-- Generator: Adobe Illustrator 28.2.0, SVG Export Plug-In . SVG Version: 6.00 Build 0)  -->
<svg version="1.1" id="Layer_1" xmlns="http://www.w3.org/2000/svg" xmlns:xlink="http://www.w3.org/1999/xlink" x="0px" y="0px"
	 viewBox="0 0 32 32" style="enable-background:new 0 0 32 32;" xml:space="preserve">
<style type="text/css">
	.st0{fill:none;stroke:#FFFFFF;stroke-width:2;stroke-miterlimit:10;}
	.st1{fill:#FFFFFF;}
	.st2{fill:none;stroke:#FFFFFF;stroke-width:3;stroke-miterlimit:10;}
	.st3{fill:#FFFFFF;stroke:#FFFFFF;stroke-width:3;stroke-miterlimit:10;}
</style>
<circle class="st0" cx="16.4" cy="16.1" r="13.8"/>
<path class="st1" d="M25.4,6.5c0,0.1-0.1,0.2-0.1,0.4c0,0.1-0.1,0.1-0.2,0.1c-0.1,0-0.2-0.1-0.2-0.2c0-0.1-0.1-0.3-0.1-0.4
	c0-0.4-0.2-0.6-0.6-0.6c-0.1,0-0.2,0-0.3,0c-0.2,0-0.3-0.2-0.3-0.3c0-0.1,0.2-0.3,0.3-0.3c0.1,0,0.3,0,0.4-0.1
	c0.2-0.1,0.4-0.3,0.4-0.5c0-0.1,0-0.3,0.1-0.4c0-0.1,0.1-0.2,0.2-0.2c0.1,0,0.2,0.1,0.2,0.1c0,0.1,0.1,0.1,0.1,0.2
	c0,0.1,0,0.2,0,0.3c0,0.3,0.2,0.5,0.5,0.5c0.1,0,0.2,0,0.3,0c0.2,0,0.3,0.1,0.3,0.2c0,0.1,0,0.2-0.2,0.3c-0.1,0-0.2,0-0.3,0
	c-0.2,0-0.4,0-0.5,0.2C25.4,6.2,25.4,6.3,25.4,6.5C25.3,6.5,25.4,6.5,25.4,6.5z"/>
<line class="st0" x1="12.8" y1="16.4" x2="9.9" y2="25"/>
<line class="st0" x1="20.6" y1="16.4" x2="24.3" y2="25.7"/>
<ellipse class="st2" cx="16.4" cy="11.2" rx="9.5" ry="2.8"/>
<ellipse class="st3" cx="16.4" cy="10.1" rx="4.9" ry="3.9"/>
<line class="st0" x1="16.4" y1="28.4" x2="16.4" y2="18.4"/>
</svg>
