<?xml version="1.0" encoding="utf-8"?>
<!-- Generator: Adobe Illustrator 28.2.0, SVG Export Plug-In . SVG Version: 6.00 Build 0)  -->
<svg version="1.1" id="Layer_1" xmlns="http://www.w3.org/2000/svg" xmlns:xlink="http://www.w3.org/1999/xlink" x="0px" y="0px"
	 viewBox="0 0 102.6 28.3" style="enable-background:new 0 0 102.6 28.3;" xml:space="preserve">
<style type="text/css">
	.st0{fill:none;}
	.st1{fill:#FFFFFF;}
	.st2{fill:#FFFFFF;stroke:#FFFFFF;stroke-width:3.0001;stroke-miterlimit:10.0002;}
</style>
<g>
	<rect x="9.7" y="5.7" class="st0" width="54.2" height="19.1"/>
	<path class="st1" d="M18.5,17.4c0-0.5-0.2-0.9-0.6-1.2c-0.4-0.3-1-0.6-2-0.9c-0.9-0.3-1.7-0.6-2.3-0.9c-1.9-0.9-2.9-2.2-2.9-3.9
		c0-0.8,0.2-1.5,0.7-2.2c0.5-0.6,1.2-1.1,2-1.5c0.9-0.4,1.9-0.5,3-0.5c1.1,0,2,0.2,2.9,0.6c0.8,0.4,1.5,0.9,2,1.6
		c0.5,0.7,0.7,1.5,0.7,2.4h-3.6c0-0.6-0.2-1.1-0.6-1.4C17.6,9.2,17.1,9,16.5,9c-0.6,0-1.1,0.1-1.5,0.4c-0.4,0.3-0.6,0.6-0.6,1.1
		c0,0.4,0.2,0.7,0.6,1c0.4,0.3,1.1,0.6,2.2,1c1,0.3,1.9,0.7,2.5,1.1c1.6,0.9,2.4,2.2,2.4,3.8c0,1.3-0.5,2.3-1.5,3.1
		c-1,0.7-2.3,1.1-4,1.1c-1.2,0-2.3-0.2-3.3-0.6s-1.7-1-2.2-1.8c-0.5-0.8-0.7-1.6-0.7-2.6H14c0,0.8,0.2,1.4,0.6,1.8
		c0.4,0.4,1.1,0.6,2,0.6c0.6,0,1.1-0.1,1.4-0.4C18.3,18.2,18.5,17.9,18.5,17.4z"/>
	<path class="st1" d="M32.3,18.6h-4.9l-0.9,2.8h-3.8l5.4-14.8h3.4l5.5,14.8h-3.8L32.3,18.6z M28.3,15.8h3.2l-1.6-5.1L28.3,15.8z"/>
	<path class="st1" d="M43.1,17.3l3-10.8h4l-5,14.8h-3.9l-5-14.8h4L43.1,17.3z"/>
	<path class="st1" d="M60.4,15.1h-5.6v3.5h6.6v2.8H51.1V6.5h10.2v2.8h-6.7v3.1h5.6V15.1z"/>
</g>
<ellipse transform="matrix(0.8258 -0.564 0.564 0.8258 5.908 46.302)" class="st2" cx="77.9" cy="13.6" rx="5.2" ry="8.9"/>
<ellipse transform="matrix(0.564 -0.8258 0.8258 0.564 25.3061 75.1152)" class="st2" cx="83.8" cy="13.6" rx="8.9" ry="5.2"/>
</svg>
