<?xml version="1.0" encoding="utf-8"?>
<!-- Generator: Adobe Illustrator 28.2.0, SVG Export Plug-In . SVG Version: 6.00 Build 0)  -->
<svg version="1.1" id="Layer_1" xmlns="http://www.w3.org/2000/svg" xmlns:xlink="http://www.w3.org/1999/xlink" x="0px" y="0px"
	 viewBox="0 0 508.1 1457.2" style="enable-background:new 0 0 508.1 1457.2;" xml:space="preserve">
<style type="text/css">
	.st0{opacity:0.5;fill:none;stroke:#FFFFFF;stroke-width:4;stroke-miterlimit:10;}
</style>
<circle class="st0" cx="419.5" cy="84.6" r="81.4"/>
<circle class="st0" cx="256.8" cy="87.8" r="81.4"/>
<circle class="st0" cx="94" cy="87.8" r="81.4"/>
<circle class="st0" cx="419.5" cy="106.3" r="81.4"/>
<circle class="st0" cx="256.8" cy="109.5" r="81.4"/>
<circle class="st0" cx="94" cy="109.5" r="81.4"/>
<circle class="st0" cx="419.5" cy="127.9" r="81.4"/>
<circle class="st0" cx="256.8" cy="131.2" r="81.4"/>
<circle class="st0" cx="94" cy="131.2" r="81.4"/>
<circle class="st0" cx="419.5" cy="149.6" r="81.4"/>
<circle class="st0" cx="256.8" cy="152.8" r="81.4"/>
<circle class="st0" cx="94" cy="152.8" r="81.4"/>
<circle class="st0" cx="419.5" cy="171.3" r="81.4"/>
<circle class="st0" cx="256.8" cy="174.5" r="81.4"/>
<circle class="st0" cx="94" cy="174.5" r="81.4"/>
<circle class="st0" cx="419.5" cy="192.9" r="81.4"/>
<circle class="st0" cx="256.8" cy="196.2" r="81.4"/>
<circle class="st0" cx="94" cy="196.2" r="81.4"/>
<circle class="st0" cx="419.5" cy="214.6" r="81.4"/>
<circle class="st0" cx="256.8" cy="217.8" r="81.4"/>
<circle class="st0" cx="94" cy="217.8" r="81.4"/>
<circle class="st0" cx="419.5" cy="236.3" r="81.4"/>
<circle class="st0" cx="256.8" cy="239.5" r="81.4"/>
<circle class="st0" cx="94" cy="239.5" r="81.4"/>
<circle class="st0" cx="419.5" cy="258" r="81.4"/>
<circle class="st0" cx="256.8" cy="261.2" r="81.4"/>
<circle class="st0" cx="94" cy="261.2" r="81.4"/>
<circle class="st0" cx="419.5" cy="279.6" r="81.4"/>
<circle class="st0" cx="256.8" cy="282.9" r="81.4"/>
<circle class="st0" cx="94" cy="282.9" r="81.4"/>
<circle class="st0" cx="419.5" cy="301.3" r="81.4"/>
<circle class="st0" cx="256.8" cy="304.5" r="81.4"/>
<circle class="st0" cx="94" cy="304.5" r="81.4"/>
<circle class="st0" cx="419.5" cy="323" r="81.4"/>
<circle class="st0" cx="256.8" cy="326.2" r="81.4"/>
<circle class="st0" cx="94" cy="326.2" r="81.4"/>
<circle class="st0" cx="419.5" cy="344.6" r="81.4"/>
<circle class="st0" cx="256.8" cy="347.9" r="81.4"/>
<circle class="st0" cx="94" cy="347.9" r="81.4"/>
<circle class="st0" cx="419.5" cy="366.3" r="81.4"/>
<circle class="st0" cx="256.8" cy="369.5" r="81.4"/>
<circle class="st0" cx="94" cy="369.5" r="81.4"/>
<circle class="st0" cx="419.5" cy="388" r="81.4"/>
<circle class="st0" cx="256.8" cy="391.2" r="81.4"/>
<circle class="st0" cx="94" cy="391.2" r="81.4"/>
<circle class="st0" cx="419.5" cy="409.7" r="81.4"/>
<circle class="st0" cx="256.8" cy="412.9" r="81.4"/>
<circle class="st0" cx="94" cy="412.9" r="81.4"/>
<circle class="st0" cx="419.5" cy="431.3" r="81.4"/>
<circle class="st0" cx="256.8" cy="434.6" r="81.4"/>
<circle class="st0" cx="94" cy="434.6" r="81.4"/>
<circle class="st0" cx="419.5" cy="453" r="81.4"/>
<circle class="st0" cx="256.8" cy="456.2" r="81.4"/>
<circle class="st0" cx="94" cy="456.2" r="81.4"/>
<circle class="st0" cx="419.5" cy="474.7" r="81.4"/>
<circle class="st0" cx="256.8" cy="477.9" r="81.4"/>
<circle class="st0" cx="94" cy="477.9" r="81.4"/>
<circle class="st0" cx="419.5" cy="496.3" r="81.4"/>
<circle class="st0" cx="256.8" cy="499.6" r="81.4"/>
<circle class="st0" cx="94" cy="499.6" r="81.4"/>
<circle class="st0" cx="419.5" cy="518" r="81.4"/>
<circle class="st0" cx="256.8" cy="521.2" r="81.4"/>
<circle class="st0" cx="94" cy="521.2" r="81.4"/>
<circle class="st0" cx="419.5" cy="539.7" r="81.4"/>
<circle class="st0" cx="256.8" cy="542.9" r="81.4"/>
<circle class="st0" cx="94" cy="542.9" r="81.4"/>
<circle class="st0" cx="419.5" cy="561.4" r="81.4"/>
<circle class="st0" cx="256.8" cy="564.6" r="81.4"/>
<circle class="st0" cx="94" cy="564.6" r="81.4"/>
<circle class="st0" cx="419.5" cy="583" r="81.4"/>
<circle class="st0" cx="256.8" cy="586.3" r="81.4"/>
<circle class="st0" cx="94" cy="586.3" r="81.4"/>
<circle class="st0" cx="419.5" cy="604.7" r="81.4"/>
<circle class="st0" cx="256.8" cy="607.9" r="81.4"/>
<circle class="st0" cx="94" cy="607.9" r="81.4"/>
<circle class="st0" cx="419.5" cy="626.4" r="81.4"/>
<circle class="st0" cx="256.8" cy="629.6" r="81.4"/>
<circle class="st0" cx="94" cy="629.6" r="81.4"/>
<circle class="st0" cx="419.5" cy="648" r="81.4"/>
<circle class="st0" cx="256.8" cy="651.3" r="81.4"/>
<circle class="st0" cx="94" cy="651.3" r="81.4"/>
<circle class="st0" cx="419.5" cy="669.7" r="81.4"/>
<circle class="st0" cx="256.8" cy="672.9" r="81.4"/>
<circle class="st0" cx="94" cy="672.9" r="81.4"/>
<circle class="st0" cx="419.5" cy="691.4" r="81.4"/>
<circle class="st0" cx="256.8" cy="694.6" r="81.4"/>
<circle class="st0" cx="94" cy="694.6" r="81.4"/>
<circle class="st0" cx="419.5" cy="713.1" r="81.4"/>
<circle class="st0" cx="256.8" cy="716.3" r="81.4"/>
<circle class="st0" cx="94" cy="716.3" r="81.4"/>
<circle class="st0" cx="419.5" cy="734.7" r="81.4"/>
<circle class="st0" cx="256.8" cy="738" r="81.4"/>
<circle class="st0" cx="94" cy="738" r="81.4"/>
<circle class="st0" cx="419.5" cy="756.4" r="81.4"/>
<circle class="st0" cx="256.8" cy="759.6" r="81.4"/>
<circle class="st0" cx="94" cy="759.6" r="81.4"/>
<circle class="st0" cx="419.5" cy="778.1" r="81.4"/>
<circle class="st0" cx="256.8" cy="781.3" r="81.4"/>
<circle class="st0" cx="94" cy="781.3" r="81.4"/>
<circle class="st0" cx="419.5" cy="799.7" r="81.4"/>
<circle class="st0" cx="256.8" cy="803" r="81.4"/>
<circle class="st0" cx="94" cy="803" r="81.4"/>
<circle class="st0" cx="419.5" cy="821.4" r="81.4"/>
<circle class="st0" cx="256.8" cy="824.6" r="81.4"/>
<circle class="st0" cx="94" cy="824.6" r="81.4"/>
<circle class="st0" cx="419.5" cy="843.1" r="81.4"/>
<circle class="st0" cx="256.8" cy="846.3" r="81.4"/>
<circle class="st0" cx="94" cy="846.3" r="81.4"/>
<circle class="st0" cx="419.5" cy="864.7" r="81.4"/>
<circle class="st0" cx="256.8" cy="868" r="81.4"/>
<circle class="st0" cx="94" cy="868" r="81.4"/>
<circle class="st0" cx="419.5" cy="886.4" r="81.4"/>
<circle class="st0" cx="256.8" cy="889.7" r="81.4"/>
<circle class="st0" cx="94" cy="889.7" r="81.4"/>
<circle class="st0" cx="419.5" cy="908.1" r="81.4"/>
<circle class="st0" cx="256.8" cy="911.3" r="81.4"/>
<circle class="st0" cx="94" cy="911.3" r="81.4"/>
<circle class="st0" cx="419.5" cy="929.8" r="81.4"/>
<circle class="st0" cx="256.8" cy="933" r="81.4"/>
<circle class="st0" cx="94" cy="933" r="81.4"/>
<circle class="st0" cx="419.5" cy="951.4" r="81.4"/>
<circle class="st0" cx="256.8" cy="954.7" r="81.4"/>
<circle class="st0" cx="94" cy="954.7" r="81.4"/>
<circle class="st0" cx="419.5" cy="973.1" r="81.4"/>
<circle class="st0" cx="256.8" cy="976.3" r="81.4"/>
<circle class="st0" cx="94" cy="976.3" r="81.4"/>
<circle class="st0" cx="419.5" cy="994.8" r="81.4"/>
<circle class="st0" cx="256.8" cy="998" r="81.4"/>
<circle class="st0" cx="94" cy="998" r="81.4"/>
<circle class="st0" cx="419.5" cy="1016.4" r="81.4"/>
<circle class="st0" cx="256.8" cy="1019.7" r="81.4"/>
<circle class="st0" cx="94" cy="1019.7" r="81.4"/>
<circle class="st0" cx="419.5" cy="1038.1" r="81.4"/>
<circle class="st0" cx="256.8" cy="1041.3" r="81.4"/>
<circle class="st0" cx="94" cy="1041.3" r="81.4"/>
<circle class="st0" cx="419.5" cy="1059.8" r="81.4"/>
<circle class="st0" cx="256.8" cy="1063" r="81.4"/>
<circle class="st0" cx="94" cy="1063" r="81.4"/>
<circle class="st0" cx="419.5" cy="1081.5" r="81.4"/>
<circle class="st0" cx="256.8" cy="1084.7" r="81.4"/>
<circle class="st0" cx="94" cy="1084.7" r="81.4"/>
<circle class="st0" cx="419.5" cy="1103.1" r="81.4"/>
<circle class="st0" cx="256.8" cy="1106.4" r="81.4"/>
<circle class="st0" cx="94" cy="1106.4" r="81.4"/>
<circle class="st0" cx="419.5" cy="1124.8" r="81.4"/>
<circle class="st0" cx="256.8" cy="1128" r="81.4"/>
<circle class="st0" cx="94" cy="1128" r="81.4"/>
<circle class="st0" cx="419.5" cy="1146.5" r="81.4"/>
<circle class="st0" cx="256.8" cy="1149.7" r="81.4"/>
<circle class="st0" cx="94" cy="1149.7" r="81.4"/>
<circle class="st0" cx="419.5" cy="1168.1" r="81.4"/>
<circle class="st0" cx="256.8" cy="1171.4" r="81.4"/>
<circle class="st0" cx="94" cy="1171.4" r="81.4"/>
<circle class="st0" cx="419.5" cy="1189.8" r="81.4"/>
<circle class="st0" cx="256.8" cy="1193" r="81.4"/>
<circle class="st0" cx="94" cy="1193" r="81.4"/>
<circle class="st0" cx="419.5" cy="1211.5" r="81.4"/>
<circle class="st0" cx="256.8" cy="1214.7" r="81.4"/>
<circle class="st0" cx="94" cy="1214.7" r="81.4"/>
<circle class="st0" cx="419.5" cy="1233.2" r="81.4"/>
<circle class="st0" cx="256.8" cy="1236.4" r="81.4"/>
<circle class="st0" cx="94" cy="1236.4" r="81.4"/>
<circle class="st0" cx="419.5" cy="1254.8" r="81.4"/>
<circle class="st0" cx="256.8" cy="1258.1" r="81.4"/>
<circle class="st0" cx="94" cy="1258.1" r="81.4"/>
<circle class="st0" cx="419.5" cy="1276.5" r="81.4"/>
<circle class="st0" cx="256.8" cy="1279.7" r="81.4"/>
<circle class="st0" cx="94" cy="1279.7" r="81.4"/>
<circle class="st0" cx="419.5" cy="1298.2" r="81.4"/>
<circle class="st0" cx="256.8" cy="1301.4" r="81.4"/>
<circle class="st0" cx="94" cy="1301.4" r="81.4"/>
<circle class="st0" cx="419.5" cy="1319.8" r="81.4"/>
<circle class="st0" cx="256.8" cy="1323.1" r="81.4"/>
<circle class="st0" cx="94" cy="1323.1" r="81.4"/>
<circle class="st0" cx="419.5" cy="1341.5" r="81.4"/>
<circle class="st0" cx="256.8" cy="1344.7" r="81.4"/>
<circle class="st0" cx="94" cy="1344.7" r="81.4"/>
<circle class="st0" cx="419.5" cy="1363.2" r="81.4"/>
<circle class="st0" cx="256.8" cy="1366.4" r="81.4"/>
<circle class="st0" cx="94" cy="1366.4" r="81.4"/>
</svg>
