<?xml version="1.0" encoding="utf-8"?>
<!-- Generator: Adobe Illustrator 28.2.0, SVG Export Plug-In . SVG Version: 6.00 Build 0)  -->
<svg version="1.1" id="Layer_1" xmlns="http://www.w3.org/2000/svg" xmlns:xlink="http://www.w3.org/1999/xlink" x="0px" y="0px"
	 viewBox="0 0 508.1 1457.2" style="enable-background:new 0 0 508.1 1457.2;" xml:space="preserve">
<style type="text/css">
	.st0{fill:none;stroke:#FFFFFF;stroke-width:4;stroke-miterlimit:10;}
	.st1{fill:none;stroke:#FFFFFF;stroke-width:5;stroke-miterlimit:10;}
</style>
<circle class="st0" cx="254" cy="-556.6" r="254"/>
<circle class="st1" cx="534.8" cy="-556.2" r="254"/>
<circle class="st0" cx="254" cy="-476.6" r="254"/>
<circle class="st1" cx="534.8" cy="-476.2" r="254"/>
<circle class="st0" cx="254" cy="-396.6" r="254"/>
<circle class="st1" cx="534.8" cy="-396.2" r="254"/>
<circle class="st0" cx="254" cy="-316.7" r="254"/>
<circle class="st1" cx="534.8" cy="-316.2" r="254"/>
<circle class="st0" cx="254" cy="-236.7" r="254"/>
<circle class="st1" cx="534.8" cy="-236.3" r="254"/>
<circle class="st0" cx="254" cy="-156.7" r="254"/>
<circle class="st1" cx="534.8" cy="-156.3" r="254"/>
<circle class="st0" cx="254" cy="-76.7" r="254"/>
<circle class="st1" cx="534.8" cy="-76.3" r="254"/>
<circle class="st0" cx="254" cy="3.3" r="254"/>
<circle class="st1" cx="534.8" cy="3.7" r="254"/>
<circle class="st0" cx="254" cy="83.2" r="254"/>
<circle class="st1" cx="534.8" cy="83.7" r="254"/>
<circle class="st0" cx="254" cy="163.2" r="254"/>
<circle class="st1" cx="534.8" cy="163.6" r="254"/>
<circle class="st0" cx="254" cy="243.2" r="254"/>
<circle class="st1" cx="534.8" cy="243.6" r="254"/>
<circle class="st0" cx="254" cy="323.2" r="254"/>
<circle class="st1" cx="534.8" cy="323.6" r="254"/>
<circle class="st0" cx="254" cy="403.1" r="254"/>
<circle class="st1" cx="534.8" cy="403.6" r="254"/>
<circle class="st0" cx="254" cy="483.1" r="254"/>
<circle class="st1" cx="534.8" cy="483.5" r="254"/>
<circle class="st0" cx="254" cy="563.1" r="254"/>
<circle class="st1" cx="534.8" cy="563.5" r="254"/>
<circle class="st0" cx="254" cy="643.1" r="254"/>
<circle class="st1" cx="534.8" cy="643.5" r="254"/>
<circle class="st0" cx="254" cy="723" r="254"/>
<circle class="st1" cx="534.8" cy="723.5" r="254"/>
<circle class="st0" cx="254" cy="803" r="254"/>
<circle class="st1" cx="534.8" cy="803.5" r="254"/>
<circle class="st0" cx="254" cy="883" r="254"/>
<circle class="st1" cx="534.8" cy="883.4" r="254"/>
<circle class="st0" cx="254" cy="963" r="254"/>
<circle class="st1" cx="534.8" cy="963.4" r="254"/>
<circle class="st0" cx="254" cy="1043" r="254"/>
<circle class="st1" cx="534.8" cy="1043.4" r="254"/>
<circle class="st0" cx="254" cy="1122.9" r="254"/>
<circle class="st1" cx="534.8" cy="1123.4" r="254"/>
<circle class="st0" cx="254" cy="1202.9" r="254"/>
<circle class="st1" cx="534.8" cy="1203.3" r="254"/>
<circle class="st0" cx="254" cy="1282.9" r="254"/>
<circle class="st1" cx="534.8" cy="1283.3" r="254"/>
<circle class="st0" cx="254" cy="1362.9" r="254"/>
<circle class="st1" cx="534.8" cy="1363.3" r="254"/>
<circle class="st0" cx="254" cy="1442.8" r="254"/>
<circle class="st1" cx="534.8" cy="1443.3" r="254"/>
<circle class="st0" cx="254" cy="1522.8" r="254"/>
<circle class="st1" cx="534.8" cy="1523.3" r="254"/>
<circle class="st0" cx="254" cy="1602.8" r="254"/>
<circle class="st1" cx="534.8" cy="1603.2" r="254"/>
<circle class="st0" cx="254" cy="1682.8" r="254"/>
<circle class="st1" cx="534.8" cy="1683.2" r="254"/>
<circle class="st0" cx="254" cy="1762.8" r="254"/>
<circle class="st1" cx="534.8" cy="1763.2" r="254"/>
<circle class="st0" cx="254" cy="1842.7" r="254"/>
<circle class="st1" cx="534.8" cy="1843.2" r="254"/>
<circle class="st0" cx="254" cy="1922.7" r="254"/>
<circle class="st1" cx="534.8" cy="1923.1" r="254"/>
<circle class="st0" cx="254" cy="2002.7" r="254"/>
<circle class="st1" cx="534.8" cy="2003.1" r="254"/>
<circle class="st0" cx="254" cy="2082.7" r="254"/>
<circle class="st1" cx="534.8" cy="2083.1" r="254"/>
<circle class="st1" cx="-25" cy="-557.7" r="254"/>
<circle class="st1" cx="-25" cy="-477.7" r="254"/>
<circle class="st1" cx="-25" cy="-397.7" r="254"/>
<circle class="st1" cx="-25" cy="-317.7" r="254"/>
<circle class="st1" cx="-25" cy="-237.8" r="254"/>
<circle class="st1" cx="-25" cy="-157.8" r="254"/>
<circle class="st1" cx="-25" cy="-77.8" r="254"/>
<circle class="st1" cx="-25" cy="2.2" r="254"/>
<circle class="st1" cx="-25" cy="82.2" r="254"/>
<circle class="st1" cx="-25" cy="162.1" r="254"/>
<circle class="st1" cx="-25" cy="242.1" r="254"/>
<circle class="st1" cx="-25" cy="322.1" r="254"/>
<circle class="st1" cx="-25" cy="402.1" r="254"/>
<circle class="st1" cx="-25" cy="482" r="254"/>
<circle class="st1" cx="-25" cy="562" r="254"/>
<circle class="st1" cx="-25" cy="642" r="254"/>
<circle class="st1" cx="-25" cy="722" r="254"/>
<circle class="st1" cx="-25" cy="801.9" r="254"/>
<circle class="st1" cx="-25" cy="881.9" r="254"/>
<circle class="st1" cx="-25" cy="961.9" r="254"/>
<circle class="st1" cx="-25" cy="1041.9" r="254"/>
<circle class="st1" cx="-25" cy="1121.9" r="254"/>
<circle class="st1" cx="-25" cy="1201.8" r="254"/>
<circle class="st1" cx="-25" cy="1281.8" r="254"/>
<circle class="st1" cx="-25" cy="1361.8" r="254"/>
<circle class="st1" cx="-25" cy="1441.8" r="254"/>
<circle class="st1" cx="-25" cy="1521.7" r="254"/>
<circle class="st1" cx="-25" cy="1601.7" r="254"/>
<circle class="st1" cx="-25" cy="1681.7" r="254"/>
<circle class="st1" cx="-25" cy="1761.7" r="254"/>
<circle class="st1" cx="-25" cy="1841.7" r="254"/>
<circle class="st1" cx="-25" cy="1921.6" r="254"/>
<circle class="st1" cx="-25" cy="2001.6" r="254"/>
<circle class="st1" cx="-25" cy="2081.6" r="254"/>
</svg>
