<?xml version="1.0" encoding="utf-8"?>
<!-- Generator: Adobe Illustrator 28.2.0, SVG Export Plug-In . SVG Version: 6.00 Build 0)  -->
<svg version="1.1" id="Layer_1" xmlns="http://www.w3.org/2000/svg" xmlns:xlink="http://www.w3.org/1999/xlink" x="0px" y="0px"
	 viewBox="0 0 508.1 1457.2" style="enable-background:new 0 0 508.1 1457.2;" xml:space="preserve">
<style type="text/css">
	.st0{opacity:0.5;fill:none;stroke:#FFFFFF;stroke-width:4;stroke-miterlimit:10;}
	.st1{opacity:0.5;fill:none;stroke:#FFFFFF;stroke-width:5;stroke-miterlimit:10;}
</style>
<circle class="st0" cx="-57.9" cy="-533.3" r="563.2"/>
<circle class="st1" cx="564.7" cy="-532.3" r="563.2"/>
<circle class="st0" cx="-57.9" cy="-355.9" r="563.2"/>
<circle class="st1" cx="564.7" cy="-355" r="563.2"/>
<circle class="st0" cx="-57.9" cy="-178.6" r="563.2"/>
<circle class="st1" cx="564.7" cy="-177.7" r="563.2"/>
<circle class="st0" cx="-57.9" cy="-1.3" r="563.2"/>
<circle class="st1" cx="564.7" cy="-0.3" r="563.2"/>
<circle class="st0" cx="-57.9" cy="176.1" r="563.2"/>
<circle class="st1" cx="564.7" cy="177" r="563.2"/>
<circle class="st0" cx="-57.9" cy="353.4" r="563.2"/>
<circle class="st1" cx="564.7" cy="354.3" r="563.2"/>
<circle class="st0" cx="-57.9" cy="530.7" r="563.2"/>
<circle class="st1" cx="564.7" cy="531.7" r="563.2"/>
<circle class="st0" cx="-57.9" cy="708" r="563.2"/>
<circle class="st1" cx="564.7" cy="709" r="563.2"/>
<circle class="st0" cx="-57.9" cy="885.4" r="563.2"/>
<circle class="st1" cx="564.7" cy="886.3" r="563.2"/>
<circle class="st0" cx="-57.9" cy="1062.7" r="563.2"/>
<circle class="st1" cx="564.7" cy="1063.6" r="563.2"/>
<circle class="st0" cx="-57.9" cy="1240" r="563.2"/>
<circle class="st1" cx="564.7" cy="1241" r="563.2"/>
<circle class="st0" cx="-57.9" cy="1417.3" r="563.2"/>
<circle class="st1" cx="564.7" cy="1418.3" r="563.2"/>
<circle class="st0" cx="-57.9" cy="1594.7" r="563.2"/>
<circle class="st1" cx="564.7" cy="1595.6" r="563.2"/>
<circle class="st0" cx="-57.9" cy="1772" r="563.2"/>
<circle class="st1" cx="564.7" cy="1772.9" r="563.2"/>
<circle class="st0" cx="-57.9" cy="1949.3" r="563.2"/>
<circle class="st1" cx="564.7" cy="1950.3" r="563.2"/>
</svg>
