<?xml version="1.0" encoding="utf-8"?>
<!-- Generator: Adobe Illustrator 28.2.0, SVG Export Plug-In . SVG Version: 6.00 Build 0)  -->
<svg version="1.1" id="Layer_1" xmlns="http://www.w3.org/2000/svg" xmlns:xlink="http://www.w3.org/1999/xlink" x="0px" y="0px"
	 viewBox="0 0 508.1 1457.2" style="enable-background:new 0 0 508.1 1457.2;" xml:space="preserve">
<style type="text/css">
	.st0{opacity:0.5;fill:none;stroke:#FFFFFF;stroke-width:4;stroke-miterlimit:10;}
</style>
<circle class="st0" cx="254" cy="1203.2" r="252"/>
<circle class="st0" cx="254" cy="1174.7" r="252"/>
<circle class="st0" cx="254" cy="1144.6" r="252"/>
<circle class="st0" cx="254" cy="1113.7" r="252"/>
<circle class="st0" cx="254" cy="1081.3" r="252"/>
<circle class="st0" cx="254" cy="1052.8" r="252"/>
<circle class="st0" cx="254" cy="1022.7" r="252"/>
<circle class="st0" cx="254" cy="991.7" r="252"/>
<circle class="st0" cx="254" cy="956.7" r="252"/>
<circle class="st0" cx="254" cy="928.2" r="252"/>
<circle class="st0" cx="254" cy="898.1" r="252"/>
<circle class="st0" cx="254" cy="867.1" r="252"/>
<circle class="st0" cx="254" cy="834.7" r="252"/>
<circle class="st0" cx="254" cy="806.3" r="252"/>
<circle class="st0" cx="254" cy="776.2" r="252"/>
<circle class="st0" cx="254" cy="745.2" r="252"/>
<circle class="st0" cx="254" cy="712.1" r="252"/>
<circle class="st0" cx="254" cy="683.6" r="252"/>
<circle class="st0" cx="254" cy="653.5" r="252"/>
<circle class="st0" cx="254" cy="622.5" r="252"/>
<circle class="st0" cx="254" cy="590.1" r="252"/>
<circle class="st0" cx="254" cy="561.7" r="252"/>
<circle class="st0" cx="254" cy="531.6" r="252"/>
<circle class="st0" cx="254" cy="500.6" r="252"/>
<circle class="st0" cx="254" cy="465.5" r="252"/>
<circle class="st0" cx="254" cy="437" r="252"/>
<circle class="st0" cx="254" cy="407" r="252"/>
<circle class="st0" cx="254" cy="376" r="252"/>
<circle class="st0" cx="254" cy="343.6" r="252"/>
<circle class="st0" cx="254" cy="315.1" r="252"/>
<circle class="st0" cx="254" cy="285" r="252"/>
<circle class="st0" cx="254" cy="254" r="252"/>
</svg>
