<?xml version="1.0" encoding="utf-8"?>
<!-- Generator: Adobe Illustrator 28.2.0, SVG Export Plug-In . SVG Version: 6.00 Build 0)  -->
<svg version="1.1" id="Layer_1" xmlns="http://www.w3.org/2000/svg" xmlns:xlink="http://www.w3.org/1999/xlink" x="0px" y="0px"
	 viewBox="0 0 508.1 1457.2" style="enable-background:new 0 0 508.1 1457.2;" xml:space="preserve">
<style type="text/css">
	.st0{opacity:0.5;fill:none;stroke:#FFFFFF;stroke-width:4;stroke-miterlimit:10;}
</style>
<circle class="st0" cx="122.3" cy="135" r="122.3"/>
<circle class="st0" cx="254" cy="130.3" r="122.3"/>
<circle class="st0" cx="385.8" cy="130.3" r="122.3"/>
<circle class="st0" cx="122.3" cy="173.5" r="122.3"/>
<circle class="st0" cx="254" cy="168.8" r="122.3"/>
<circle class="st0" cx="385.8" cy="168.8" r="122.3"/>
<circle class="st0" cx="122.3" cy="212" r="122.3"/>
<circle class="st0" cx="254" cy="207.3" r="122.3"/>
<circle class="st0" cx="385.8" cy="207.3" r="122.3"/>
<circle class="st0" cx="122.3" cy="250.5" r="122.3"/>
<circle class="st0" cx="254" cy="245.8" r="122.3"/>
<circle class="st0" cx="385.8" cy="245.8" r="122.3"/>
<circle class="st0" cx="122.3" cy="289" r="122.3"/>
<circle class="st0" cx="254" cy="284.3" r="122.3"/>
<circle class="st0" cx="385.8" cy="284.3" r="122.3"/>
<circle class="st0" cx="122.3" cy="327.5" r="122.3"/>
<circle class="st0" cx="254" cy="322.8" r="122.3"/>
<circle class="st0" cx="385.8" cy="322.8" r="122.3"/>
<circle class="st0" cx="122.3" cy="366" r="122.3"/>
<circle class="st0" cx="254" cy="361.3" r="122.3"/>
<circle class="st0" cx="385.8" cy="361.3" r="122.3"/>
<circle class="st0" cx="122.3" cy="404.5" r="122.3"/>
<circle class="st0" cx="254" cy="399.8" r="122.3"/>
<circle class="st0" cx="385.8" cy="399.8" r="122.3"/>
<circle class="st0" cx="122.3" cy="443" r="122.3"/>
<circle class="st0" cx="254" cy="438.3" r="122.3"/>
<circle class="st0" cx="385.8" cy="438.3" r="122.3"/>
<circle class="st0" cx="122.3" cy="481.5" r="122.3"/>
<circle class="st0" cx="254" cy="476.8" r="122.3"/>
<circle class="st0" cx="385.8" cy="476.8" r="122.3"/>
<circle class="st0" cx="122.3" cy="520" r="122.3"/>
<circle class="st0" cx="254" cy="515.3" r="122.3"/>
<circle class="st0" cx="385.8" cy="515.3" r="122.3"/>
<circle class="st0" cx="122.3" cy="558.5" r="122.3"/>
<circle class="st0" cx="254" cy="553.8" r="122.3"/>
<circle class="st0" cx="385.8" cy="553.8" r="122.3"/>
<circle class="st0" cx="122.3" cy="597.1" r="122.3"/>
<circle class="st0" cx="254" cy="592.3" r="122.3"/>
<circle class="st0" cx="385.8" cy="592.3" r="122.3"/>
<circle class="st0" cx="122.3" cy="635.6" r="122.3"/>
<circle class="st0" cx="254" cy="630.8" r="122.3"/>
<circle class="st0" cx="385.8" cy="630.8" r="122.3"/>
<circle class="st0" cx="122.3" cy="674.1" r="122.3"/>
<circle class="st0" cx="254" cy="669.3" r="122.3"/>
<circle class="st0" cx="385.8" cy="669.3" r="122.3"/>
<circle class="st0" cx="122.3" cy="712.6" r="122.3"/>
<circle class="st0" cx="254" cy="707.8" r="122.3"/>
<circle class="st0" cx="385.8" cy="707.8" r="122.3"/>
<circle class="st0" cx="122.3" cy="751.1" r="122.3"/>
<circle class="st0" cx="254" cy="746.3" r="122.3"/>
<circle class="st0" cx="385.8" cy="746.3" r="122.3"/>
<circle class="st0" cx="122.3" cy="789.6" r="122.3"/>
<circle class="st0" cx="254" cy="784.8" r="122.3"/>
<circle class="st0" cx="385.8" cy="784.8" r="122.3"/>
<circle class="st0" cx="122.3" cy="828.1" r="122.3"/>
<circle class="st0" cx="254" cy="823.3" r="122.3"/>
<circle class="st0" cx="385.8" cy="823.3" r="122.3"/>
<circle class="st0" cx="122.3" cy="866.6" r="122.3"/>
<circle class="st0" cx="254" cy="861.8" r="122.3"/>
<circle class="st0" cx="385.8" cy="861.8" r="122.3"/>
<circle class="st0" cx="122.3" cy="905.1" r="122.3"/>
<circle class="st0" cx="254" cy="900.3" r="122.3"/>
<circle class="st0" cx="385.8" cy="900.3" r="122.3"/>
<circle class="st0" cx="122.3" cy="943.6" r="122.3"/>
<circle class="st0" cx="254" cy="938.8" r="122.3"/>
<circle class="st0" cx="385.8" cy="938.8" r="122.3"/>
<circle class="st0" cx="122.3" cy="982.1" r="122.3"/>
<circle class="st0" cx="254" cy="977.3" r="122.3"/>
<circle class="st0" cx="385.8" cy="977.3" r="122.3"/>
<circle class="st0" cx="122.3" cy="1020.6" r="122.3"/>
<circle class="st0" cx="254" cy="1015.9" r="122.3"/>
<circle class="st0" cx="385.8" cy="1015.9" r="122.3"/>
<circle class="st0" cx="122.3" cy="1059.1" r="122.3"/>
<circle class="st0" cx="254" cy="1054.4" r="122.3"/>
<circle class="st0" cx="385.8" cy="1054.4" r="122.3"/>
<circle class="st0" cx="122.3" cy="1097.6" r="122.3"/>
<circle class="st0" cx="254" cy="1092.9" r="122.3"/>
<circle class="st0" cx="385.8" cy="1092.9" r="122.3"/>
<circle class="st0" cx="122.3" cy="1136.1" r="122.3"/>
<circle class="st0" cx="254" cy="1131.4" r="122.3"/>
<circle class="st0" cx="385.8" cy="1131.4" r="122.3"/>
<circle class="st0" cx="122.3" cy="1174.6" r="122.3"/>
<circle class="st0" cx="254" cy="1169.9" r="122.3"/>
<circle class="st0" cx="385.8" cy="1169.9" r="122.3"/>
<circle class="st0" cx="122.3" cy="1213.1" r="122.3"/>
<circle class="st0" cx="254" cy="1208.4" r="122.3"/>
<circle class="st0" cx="385.8" cy="1208.4" r="122.3"/>
<circle class="st0" cx="122.3" cy="1251.6" r="122.3"/>
<circle class="st0" cx="254" cy="1246.9" r="122.3"/>
<circle class="st0" cx="385.8" cy="1246.9" r="122.3"/>
<circle class="st0" cx="122.3" cy="1290.1" r="122.3"/>
<circle class="st0" cx="254" cy="1285.4" r="122.3"/>
<circle class="st0" cx="385.8" cy="1285.4" r="122.3"/>
<circle class="st0" cx="122.3" cy="1328.6" r="122.3"/>
<circle class="st0" cx="254" cy="1323.9" r="122.3"/>
<circle class="st0" cx="385.8" cy="1323.9" r="122.3"/>
<circle class="st0" cx="122.3" cy="1367.1" r="122.3"/>
<circle class="st0" cx="254" cy="1362.4" r="122.3"/>
<circle class="st0" cx="385.8" cy="1362.4" r="122.3"/>
<circle class="st0" cx="122.3" cy="1405.6" r="122.3"/>
<circle class="st0" cx="254" cy="1400.9" r="122.3"/>
<circle class="st0" cx="385.8" cy="1400.9" r="122.3"/>
</svg>
