<?xml version="1.0" encoding="utf-8"?>
<!-- Generator: Adobe Illustrator 28.2.0, SVG Export Plug-In . SVG Version: 6.00 Build 0)  -->
<svg version="1.1" id="Layer_1" xmlns="http://www.w3.org/2000/svg" xmlns:xlink="http://www.w3.org/1999/xlink" x="0px" y="0px"
	 viewBox="0 0 508.1 1457.2" style="enable-background:new 0 0 508.1 1457.2;" xml:space="preserve">
<style type="text/css">
	.st0{fill:none;stroke:#FFFFFF;stroke-width:5;stroke-miterlimit:10;}
</style>
<polygon class="st0" points="0.3,198.2 115,-0.4 229.6,198.2 "/>
<polygon class="st0" points="229.6,198.2 344.2,-0.4 458.9,198.2 "/>
<polygon class="st0" points="458.9,198.2 573.5,-0.4 688.2,198.2 "/>
<polygon class="st0" points="-114,198.2 0.6,-0.4 115.3,198.2 "/>
<polygon class="st0" points="115.3,198.2 229.9,-0.4 344.5,198.2 "/>
<polygon class="st0" points="344.5,198.2 459.2,-0.4 573.8,198.2 "/>
<polygon class="st0" points="59.4,198.7 174,0.2 288.7,198.7 "/>
<polygon class="st0" points="288.7,198.7 403.3,0.2 518,198.7 "/>
<polygon class="st0" points="518,198.7 632.6,0.2 747.2,198.7 "/>
<polygon class="st0" points="-55,198.7 59.7,0.2 174.3,198.7 "/>
<polygon class="st0" points="174.3,198.7 289,0.2 403.6,198.7 "/>
<polygon class="st0" points="403.6,198.7 518.2,0.2 632.9,198.7 "/>
</svg>
