<?xml version="1.0" encoding="utf-8"?>
<!-- Generator: Adobe Illustrator 28.2.0, SVG Export Plug-In . SVG Version: 6.00 Build 0)  -->
<svg version="1.1" id="Layer_1" xmlns="http://www.w3.org/2000/svg" xmlns:xlink="http://www.w3.org/1999/xlink" x="0px" y="0px"
	 viewBox="0 0 508.1 1457.2" style="enable-background:new 0 0 508.1 1457.2;" xml:space="preserve">
<style type="text/css">
	.st0{opacity:0.5;fill:none;stroke:#FFFFFF;stroke-width:4;stroke-miterlimit:10;}
</style>
<circle class="st0" cx="131.7" cy="135" r="122.3"/>
<circle class="st0" cx="254" cy="130.3" r="122.3"/>
<circle class="st0" cx="376.3" cy="130.3" r="122.3"/>
<circle class="st0" cx="131.7" cy="171.6" r="122.3"/>
<circle class="st0" cx="254" cy="166.9" r="122.3"/>
<circle class="st0" cx="376.3" cy="166.9" r="122.3"/>
<circle class="st0" cx="131.7" cy="208.1" r="122.3"/>
<circle class="st0" cx="254" cy="203.4" r="122.3"/>
<circle class="st0" cx="376.3" cy="203.4" r="122.3"/>
<circle class="st0" cx="131.7" cy="244.7" r="122.3"/>
<circle class="st0" cx="254" cy="240" r="122.3"/>
<circle class="st0" cx="376.3" cy="240" r="122.3"/>
<circle class="st0" cx="131.7" cy="281.3" r="122.3"/>
<circle class="st0" cx="254" cy="276.5" r="122.3"/>
<circle class="st0" cx="376.3" cy="276.5" r="122.3"/>
<circle class="st0" cx="131.7" cy="317.8" r="122.3"/>
<circle class="st0" cx="254" cy="313.1" r="122.3"/>
<circle class="st0" cx="376.3" cy="313.1" r="122.3"/>
<circle class="st0" cx="131.7" cy="354.4" r="122.3"/>
<circle class="st0" cx="254" cy="349.6" r="122.3"/>
<circle class="st0" cx="376.3" cy="349.6" r="122.3"/>
<circle class="st0" cx="131.7" cy="390.9" r="122.3"/>
<circle class="st0" cx="254" cy="386.2" r="122.3"/>
<circle class="st0" cx="376.3" cy="386.2" r="122.3"/>
<circle class="st0" cx="131.7" cy="427.5" r="122.3"/>
<circle class="st0" cx="254" cy="422.8" r="122.3"/>
<circle class="st0" cx="376.3" cy="422.8" r="122.3"/>
<circle class="st0" cx="131.7" cy="464.1" r="122.3"/>
<circle class="st0" cx="254" cy="459.3" r="122.3"/>
<circle class="st0" cx="376.3" cy="459.3" r="122.3"/>
<circle class="st0" cx="131.7" cy="500.6" r="122.3"/>
<circle class="st0" cx="254" cy="495.9" r="122.3"/>
<circle class="st0" cx="376.3" cy="495.9" r="122.3"/>
<circle class="st0" cx="131.7" cy="537.2" r="122.3"/>
<circle class="st0" cx="254" cy="532.4" r="122.3"/>
<circle class="st0" cx="376.3" cy="532.4" r="122.3"/>
<circle class="st0" cx="131.7" cy="573.7" r="122.3"/>
<circle class="st0" cx="254" cy="569" r="122.3"/>
<circle class="st0" cx="376.3" cy="569" r="122.3"/>
<circle class="st0" cx="131.7" cy="610.3" r="122.3"/>
<circle class="st0" cx="254" cy="605.6" r="122.3"/>
<circle class="st0" cx="376.3" cy="605.6" r="122.3"/>
<circle class="st0" cx="131.7" cy="646.9" r="122.3"/>
<circle class="st0" cx="254" cy="642.1" r="122.3"/>
<circle class="st0" cx="376.3" cy="642.1" r="122.3"/>
<circle class="st0" cx="131.7" cy="683.4" r="122.3"/>
<circle class="st0" cx="254" cy="678.7" r="122.3"/>
<circle class="st0" cx="376.3" cy="678.7" r="122.3"/>
<circle class="st0" cx="131.7" cy="720" r="122.3"/>
<circle class="st0" cx="254" cy="715.2" r="122.3"/>
<circle class="st0" cx="376.3" cy="715.2" r="122.3"/>
<circle class="st0" cx="131.7" cy="756.5" r="122.3"/>
<circle class="st0" cx="254" cy="751.8" r="122.3"/>
<circle class="st0" cx="376.3" cy="751.8" r="122.3"/>
<circle class="st0" cx="131.7" cy="793.1" r="122.3"/>
<circle class="st0" cx="254" cy="788.4" r="122.3"/>
<circle class="st0" cx="376.3" cy="788.4" r="122.3"/>
<circle class="st0" cx="131.7" cy="829.7" r="122.3"/>
<circle class="st0" cx="254" cy="824.9" r="122.3"/>
<circle class="st0" cx="376.3" cy="824.9" r="122.3"/>
<circle class="st0" cx="131.7" cy="866.2" r="122.3"/>
<circle class="st0" cx="254" cy="861.5" r="122.3"/>
<circle class="st0" cx="376.3" cy="861.5" r="122.3"/>
<circle class="st0" cx="131.7" cy="902.8" r="122.3"/>
<circle class="st0" cx="254" cy="898" r="122.3"/>
<circle class="st0" cx="376.3" cy="898" r="122.3"/>
<circle class="st0" cx="131.7" cy="939.3" r="122.3"/>
<circle class="st0" cx="254" cy="934.6" r="122.3"/>
<circle class="st0" cx="376.3" cy="934.6" r="122.3"/>
<circle class="st0" cx="131.7" cy="975.9" r="122.3"/>
<circle class="st0" cx="254" cy="971.2" r="122.3"/>
<circle class="st0" cx="376.3" cy="971.2" r="122.3"/>
<circle class="st0" cx="131.7" cy="1012.4" r="122.3"/>
<circle class="st0" cx="254" cy="1007.7" r="122.3"/>
<circle class="st0" cx="376.3" cy="1007.7" r="122.3"/>
<circle class="st0" cx="131.7" cy="1049" r="122.3"/>
<circle class="st0" cx="254" cy="1044.3" r="122.3"/>
<circle class="st0" cx="376.3" cy="1044.3" r="122.3"/>
<circle class="st0" cx="131.7" cy="1085.6" r="122.3"/>
<circle class="st0" cx="254" cy="1080.8" r="122.3"/>
<circle class="st0" cx="376.3" cy="1080.8" r="122.3"/>
<circle class="st0" cx="131.7" cy="1122.1" r="122.3"/>
<circle class="st0" cx="254" cy="1117.4" r="122.3"/>
<circle class="st0" cx="376.3" cy="1117.4" r="122.3"/>
<circle class="st0" cx="131.7" cy="1158.7" r="122.3"/>
<circle class="st0" cx="254" cy="1154" r="122.3"/>
<circle class="st0" cx="376.3" cy="1154" r="122.3"/>
<circle class="st0" cx="131.7" cy="1195.2" r="122.3"/>
<circle class="st0" cx="254" cy="1190.5" r="122.3"/>
<circle class="st0" cx="376.3" cy="1190.5" r="122.3"/>
<circle class="st0" cx="131.7" cy="1231.8" r="122.3"/>
<circle class="st0" cx="254" cy="1227.1" r="122.3"/>
<circle class="st0" cx="376.3" cy="1227.1" r="122.3"/>
<circle class="st0" cx="131.7" cy="1268.4" r="122.3"/>
<circle class="st0" cx="254" cy="1263.6" r="122.3"/>
<circle class="st0" cx="376.3" cy="1263.6" r="122.3"/>
<circle class="st0" cx="131.7" cy="1304.9" r="122.3"/>
<circle class="st0" cx="254" cy="1300.2" r="122.3"/>
<circle class="st0" cx="376.3" cy="1300.2" r="122.3"/>
<circle class="st0" cx="131.7" cy="1341.5" r="122.3"/>
<circle class="st0" cx="254" cy="1336.8" r="122.3"/>
<circle class="st0" cx="376.3" cy="1336.8" r="122.3"/>
<circle class="st0" cx="131.7" cy="1378" r="122.3"/>
<circle class="st0" cx="254" cy="1373.3" r="122.3"/>
<circle class="st0" cx="376.3" cy="1373.3" r="122.3"/>
<circle class="st0" cx="131.7" cy="1414.6" r="122.3"/>
<circle class="st0" cx="254" cy="1409.9" r="122.3"/>
<circle class="st0" cx="376.3" cy="1409.9" r="122.3"/>
</svg>
