<?xml version="1.0" encoding="utf-8"?>
<!-- Generator: Adobe Illustrator 28.2.0, SVG Export Plug-In . SVG Version: 6.00 Build 0)  -->
<svg version="1.1" id="Layer_1" xmlns="http://www.w3.org/2000/svg" xmlns:xlink="http://www.w3.org/1999/xlink" x="0px" y="0px"
	 viewBox="0 0 1756.3 1457.2" style="enable-background:new 0 0 1756.3 1457.2;" xml:space="preserve">
<style type="text/css">
	.st0{opacity:0.5;fill:none;stroke:#FFFFFF;stroke-width:4;stroke-miterlimit:10;}
	.st1{opacity:0.5;fill:none;stroke:#FFFFFF;stroke-width:5;stroke-miterlimit:10;}
</style>
<circle class="st0" cx="-57.9" cy="-533.3" r="563.2"/>
<circle class="st1" cx="564.7" cy="-532.3" r="563.2"/>
<circle class="st0" cx="-57.9" cy="-355.9" r="563.2"/>
<circle class="st1" cx="564.7" cy="-355" r="563.2"/>
<circle class="st0" cx="-57.9" cy="-178.6" r="563.2"/>
<circle class="st1" cx="564.7" cy="-177.7" r="563.2"/>
<circle class="st0" cx="-57.9" cy="-1.3" r="563.2"/>
<circle class="st1" cx="564.7" cy="-0.3" r="563.2"/>
<circle class="st0" cx="-57.9" cy="176.1" r="563.2"/>
<circle class="st1" cx="564.7" cy="177" r="563.2"/>
<circle class="st0" cx="-57.9" cy="353.4" r="563.2"/>
<circle class="st1" cx="564.7" cy="354.3" r="563.2"/>
<circle class="st0" cx="-57.9" cy="530.7" r="563.2"/>
<circle class="st1" cx="564.7" cy="531.7" r="563.2"/>
<circle class="st0" cx="-57.9" cy="708" r="563.2"/>
<circle class="st1" cx="564.7" cy="709" r="563.2"/>
<circle class="st0" cx="-57.9" cy="885.4" r="563.2"/>
<circle class="st1" cx="564.7" cy="886.3" r="563.2"/>
<circle class="st0" cx="-57.9" cy="1062.7" r="563.2"/>
<circle class="st1" cx="564.7" cy="1063.6" r="563.2"/>
<circle class="st0" cx="-57.9" cy="1240" r="563.2"/>
<circle class="st1" cx="564.7" cy="1241" r="563.2"/>
<circle class="st0" cx="-57.9" cy="1417.3" r="563.2"/>
<circle class="st1" cx="564.7" cy="1418.3" r="563.2"/>
<circle class="st0" cx="-57.9" cy="1594.7" r="563.2"/>
<circle class="st1" cx="564.7" cy="1595.6" r="563.2"/>
<circle class="st0" cx="-57.9" cy="1772" r="563.2"/>
<circle class="st1" cx="564.7" cy="1772.9" r="563.2"/>
<circle class="st0" cx="-57.9" cy="1949.3" r="563.2"/>
<circle class="st1" cx="564.7" cy="1950.3" r="563.2"/>
<circle class="st0" cx="1193.2" cy="-532.8" r="563.2"/>
<circle class="st1" cx="1815.8" cy="-531.8" r="563.2"/>
<circle class="st0" cx="1193.2" cy="-355.5" r="563.2"/>
<circle class="st1" cx="1815.8" cy="-354.5" r="563.2"/>
<circle class="st0" cx="1193.2" cy="-178.1" r="563.2"/>
<circle class="st1" cx="1815.8" cy="-177.2" r="563.2"/>
<circle class="st0" cx="1193.2" cy="-0.8" r="563.2"/>
<circle class="st1" cx="1815.8" cy="0.2" r="563.2"/>
<circle class="st0" cx="1193.2" cy="176.5" r="563.2"/>
<circle class="st1" cx="1815.8" cy="177.5" r="563.2"/>
<circle class="st0" cx="1193.2" cy="353.9" r="563.2"/>
<circle class="st1" cx="1815.8" cy="354.8" r="563.2"/>
<circle class="st0" cx="1193.2" cy="531.2" r="563.2"/>
<circle class="st1" cx="1815.8" cy="532.1" r="563.2"/>
<circle class="st0" cx="1193.2" cy="708.5" r="563.2"/>
<circle class="st1" cx="1815.8" cy="709.5" r="563.2"/>
<circle class="st0" cx="1193.2" cy="885.8" r="563.2"/>
<circle class="st1" cx="1815.8" cy="886.8" r="563.2"/>
<circle class="st0" cx="1193.2" cy="1063.2" r="563.2"/>
<circle class="st1" cx="1815.8" cy="1064.1" r="563.2"/>
<circle class="st0" cx="1193.2" cy="1240.5" r="563.2"/>
<circle class="st1" cx="1815.8" cy="1241.4" r="563.2"/>
<circle class="st0" cx="1193.2" cy="1417.8" r="563.2"/>
<circle class="st1" cx="1815.8" cy="1418.8" r="563.2"/>
<circle class="st0" cx="1193.2" cy="1595.1" r="563.2"/>
<circle class="st1" cx="1815.8" cy="1596.1" r="563.2"/>
<circle class="st0" cx="1193.2" cy="1772.5" r="563.2"/>
<circle class="st1" cx="1815.8" cy="1773.4" r="563.2"/>
<circle class="st0" cx="1193.2" cy="1949.8" r="563.2"/>
<circle class="st1" cx="1815.8" cy="1950.7" r="563.2"/>
<circle class="st0" cx="2394" cy="-431.3" r="563.2"/>
<circle class="st1" cx="3016.7" cy="-430.4" r="563.2"/>
<circle class="st0" cx="2394" cy="-254" r="563.2"/>
<circle class="st1" cx="3016.7" cy="-253" r="563.2"/>
<circle class="st0" cx="2394" cy="-76.7" r="563.2"/>
<circle class="st1" cx="3016.7" cy="-75.7" r="563.2"/>
<circle class="st0" cx="2394" cy="100.7" r="563.2"/>
<circle class="st1" cx="3016.7" cy="101.6" r="563.2"/>
<circle class="st0" cx="2394" cy="278" r="563.2"/>
<circle class="st1" cx="3016.7" cy="278.9" r="563.2"/>
<circle class="st0" cx="2394" cy="455.3" r="563.2"/>
<circle class="st1" cx="3016.7" cy="456.3" r="563.2"/>
<circle class="st0" cx="2394" cy="632.7" r="563.2"/>
<circle class="st1" cx="3016.7" cy="633.6" r="563.2"/>
<circle class="st0" cx="2394" cy="810" r="563.2"/>
<circle class="st1" cx="3016.7" cy="810.9" r="563.2"/>
<circle class="st0" cx="2394" cy="987.3" r="563.2"/>
<circle class="st1" cx="3016.7" cy="988.3" r="563.2"/>
<circle class="st0" cx="2394" cy="1164.6" r="563.2"/>
<circle class="st1" cx="3016.7" cy="1165.6" r="563.2"/>
<circle class="st0" cx="2394" cy="1342" r="563.2"/>
<circle class="st1" cx="3016.7" cy="1342.9" r="563.2"/>
<circle class="st0" cx="2394" cy="1519.3" r="563.2"/>
<circle class="st1" cx="3016.7" cy="1520.2" r="563.2"/>
<circle class="st0" cx="2394" cy="1696.6" r="563.2"/>
<circle class="st1" cx="3016.7" cy="1697.6" r="563.2"/>
<circle class="st0" cx="2394" cy="1873.9" r="563.2"/>
<circle class="st1" cx="3016.7" cy="1874.9" r="563.2"/>
<circle class="st0" cx="2394" cy="2051.3" r="563.2"/>
<circle class="st1" cx="3016.7" cy="2052.2" r="563.2"/>
<circle class="st0" cx="3645.1" cy="-430.8" r="563.2"/>
<circle class="st1" cx="4267.8" cy="-429.9" r="563.2"/>
<circle class="st0" cx="3645.1" cy="-253.5" r="563.2"/>
<circle class="st1" cx="4267.8" cy="-252.6" r="563.2"/>
<circle class="st0" cx="3645.1" cy="-76.2" r="563.2"/>
<circle class="st1" cx="4267.8" cy="-75.2" r="563.2"/>
<circle class="st0" cx="3645.1" cy="101.1" r="563.2"/>
<circle class="st1" cx="4267.8" cy="102.1" r="563.2"/>
<circle class="st0" cx="3645.1" cy="278.5" r="563.2"/>
<circle class="st1" cx="4267.8" cy="279.4" r="563.2"/>
<circle class="st0" cx="3645.1" cy="455.8" r="563.2"/>
<circle class="st1" cx="4267.8" cy="456.7" r="563.2"/>
<circle class="st0" cx="3645.1" cy="633.1" r="563.2"/>
<circle class="st1" cx="4267.8" cy="634.1" r="563.2"/>
<circle class="st0" cx="3645.1" cy="810.5" r="563.2"/>
<circle class="st1" cx="4267.8" cy="811.4" r="563.2"/>
<circle class="st0" cx="3645.1" cy="987.8" r="563.2"/>
<circle class="st1" cx="4267.8" cy="988.7" r="563.2"/>
<circle class="st0" cx="3645.1" cy="1165.1" r="563.2"/>
<circle class="st1" cx="4267.8" cy="1166.1" r="563.2"/>
<circle class="st0" cx="3645.1" cy="1342.4" r="563.2"/>
<circle class="st1" cx="4267.8" cy="1343.4" r="563.2"/>
<circle class="st0" cx="3645.1" cy="1519.8" r="563.2"/>
<circle class="st1" cx="4267.8" cy="1520.7" r="563.2"/>
<circle class="st0" cx="3645.1" cy="1697.1" r="563.2"/>
<circle class="st1" cx="4267.8" cy="1698" r="563.2"/>
<circle class="st0" cx="3645.1" cy="1874.4" r="563.2"/>
<circle class="st1" cx="4267.8" cy="1875.4" r="563.2"/>
<circle class="st0" cx="3645.1" cy="2051.7" r="563.2"/>
<circle class="st1" cx="4267.8" cy="2052.7" r="563.2"/>
</svg>
