<?xml version="1.0" encoding="utf-8"?>
<!-- Generator: Adobe Illustrator 28.2.0, SVG Export Plug-In . SVG Version: 6.00 Build 0)  -->
<svg version="1.1" id="Layer_1" xmlns="http://www.w3.org/2000/svg" xmlns:xlink="http://www.w3.org/1999/xlink" x="0px" y="0px"
	 viewBox="0 0 2459.4 1466.7" style="enable-background:new 0 0 2459.4 1466.7;" xml:space="preserve">
<style type="text/css">
	.st0{opacity:0.5;fill:none;stroke:#FFFFFF;stroke-width:4;stroke-miterlimit:10;}
	.st1{opacity:0.5;fill:none;stroke:#FFFFFF;stroke-width:5;stroke-miterlimit:10;}
</style>
<circle class="st0" cx="-304.6" cy="-540.5" r="563.2"/>
<circle class="st1" cx="318.1" cy="-522.9" r="563.2"/>
<circle class="st0" cx="-304.6" cy="-346.5" r="563.2"/>
<circle class="st1" cx="318.1" cy="-345.6" r="563.2"/>
<circle class="st0" cx="-304.6" cy="-169.2" r="563.2"/>
<circle class="st1" cx="318.1" cy="-168.2" r="563.2"/>
<circle class="st0" cx="-304.6" cy="8.1" r="563.2"/>
<circle class="st1" cx="318.1" cy="9.1" r="563.2"/>
<circle class="st0" cx="-304.6" cy="185.5" r="563.2"/>
<circle class="st1" cx="318.1" cy="186.4" r="563.2"/>
<circle class="st0" cx="-304.6" cy="362.8" r="563.2"/>
<circle class="st1" cx="318.1" cy="363.7" r="563.2"/>
<circle class="st0" cx="-304.6" cy="540.1" r="563.2"/>
<circle class="st1" cx="318.1" cy="541.1" r="563.2"/>
<circle class="st0" cx="-304.6" cy="717.4" r="563.2"/>
<circle class="st1" cx="318.1" cy="718.4" r="563.2"/>
<circle class="st0" cx="-304.6" cy="894.8" r="563.2"/>
<circle class="st1" cx="318.1" cy="895.7" r="563.2"/>
<circle class="st0" cx="-304.6" cy="1072.1" r="563.2"/>
<circle class="st1" cx="318.1" cy="1073" r="563.2"/>
<circle class="st0" cx="-304.6" cy="1249.4" r="563.2"/>
<circle class="st1" cx="318.1" cy="1250.4" r="563.2"/>
<circle class="st0" cx="-304.6" cy="1426.7" r="563.2"/>
<circle class="st1" cx="318.1" cy="1427.7" r="563.2"/>
<circle class="st0" cx="-304.6" cy="1604.1" r="563.2"/>
<circle class="st1" cx="318.1" cy="1605" r="563.2"/>
<circle class="st0" cx="-304.6" cy="1781.4" r="563.2"/>
<circle class="st1" cx="318.1" cy="1782.3" r="563.2"/>
<circle class="st0" cx="-304.6" cy="1942" r="563.2"/>
<circle class="st1" cx="318.1" cy="1959.7" r="563.2"/>
<circle class="st0" cx="946.5" cy="-523.4" r="563.2"/>
<circle class="st1" cx="1569.1" cy="-522.4" r="563.2"/>
<circle class="st0" cx="946.5" cy="-346" r="563.2"/>
<circle class="st1" cx="1569.1" cy="-345.1" r="563.2"/>
<circle class="st0" cx="946.5" cy="-168.7" r="563.2"/>
<circle class="st1" cx="1569.1" cy="-167.8" r="563.2"/>
<circle class="st0" cx="946.5" cy="8.6" r="563.2"/>
<circle class="st1" cx="1569.1" cy="9.6" r="563.2"/>
<circle class="st0" cx="946.5" cy="185.9" r="563.2"/>
<circle class="st1" cx="1569.1" cy="186.9" r="563.2"/>
<circle class="st0" cx="946.5" cy="363.3" r="563.2"/>
<circle class="st1" cx="1569.1" cy="364.2" r="563.2"/>
<circle class="st0" cx="946.5" cy="540.6" r="563.2"/>
<circle class="st1" cx="1569.1" cy="541.5" r="563.2"/>
<circle class="st0" cx="946.5" cy="717.9" r="563.2"/>
<circle class="st1" cx="1569.1" cy="718.9" r="563.2"/>
<circle class="st0" cx="946.5" cy="895.2" r="563.2"/>
<circle class="st1" cx="1569.1" cy="896.2" r="563.2"/>
<circle class="st0" cx="946.5" cy="1072.6" r="563.2"/>
<circle class="st1" cx="1569.1" cy="1073.5" r="563.2"/>
<circle class="st0" cx="946.5" cy="1249.9" r="563.2"/>
<circle class="st1" cx="1569.1" cy="1250.8" r="563.2"/>
<circle class="st0" cx="946.5" cy="1427.2" r="563.2"/>
<circle class="st1" cx="1569.1" cy="1428.2" r="563.2"/>
<circle class="st0" cx="946.5" cy="1604.5" r="563.2"/>
<circle class="st1" cx="1569.1" cy="1605.5" r="563.2"/>
<circle class="st0" cx="946.5" cy="1781.9" r="563.2"/>
<circle class="st1" cx="1569.1" cy="1782.8" r="563.2"/>
<circle class="st0" cx="946.5" cy="1959.2" r="563.2"/>
<circle class="st1" cx="1569.1" cy="1960.2" r="563.2"/>
<circle class="st0" cx="2147.4" cy="-421.9" r="563.2"/>
<circle class="st1" cx="2770" cy="-421" r="563.2"/>
<circle class="st0" cx="2147.4" cy="-244.6" r="563.2"/>
<circle class="st1" cx="2770" cy="-243.6" r="563.2"/>
<circle class="st0" cx="2147.4" cy="-67.2" r="563.2"/>
<circle class="st1" cx="2770" cy="-66.3" r="563.2"/>
<circle class="st0" cx="2147.4" cy="110.1" r="563.2"/>
<circle class="st1" cx="2770" cy="111" r="563.2"/>
<circle class="st0" cx="2147.4" cy="287.4" r="563.2"/>
<circle class="st1" cx="2770" cy="288.4" r="563.2"/>
<circle class="st0" cx="2147.4" cy="464.7" r="563.2"/>
<circle class="st1" cx="2770" cy="465.7" r="563.2"/>
<circle class="st0" cx="2147.4" cy="642.1" r="563.2"/>
<circle class="st1" cx="2770" cy="643" r="563.2"/>
<circle class="st0" cx="2147.4" cy="819.4" r="563.2"/>
<circle class="st1" cx="2770" cy="820.3" r="563.2"/>
<circle class="st0" cx="2147.4" cy="996.7" r="563.2"/>
<circle class="st1" cx="2770" cy="997.7" r="563.2"/>
<circle class="st0" cx="2147.4" cy="1174" r="563.2"/>
<circle class="st1" cx="2770" cy="1175" r="563.2"/>
<circle class="st0" cx="2147.4" cy="1351.4" r="563.2"/>
<circle class="st1" cx="2770" cy="1352.3" r="563.2"/>
<circle class="st0" cx="2147.4" cy="1528.7" r="563.2"/>
<circle class="st1" cx="2770" cy="1529.6" r="563.2"/>
<circle class="st0" cx="2147.4" cy="1706" r="563.2"/>
<circle class="st1" cx="2770" cy="1707" r="563.2"/>
<circle class="st0" cx="2147.4" cy="1883.3" r="563.2"/>
<circle class="st1" cx="2770" cy="1884.3" r="563.2"/>
<circle class="st0" cx="2147.4" cy="2044" r="563.2"/>
<circle class="st1" cx="2770" cy="2044.9" r="563.2"/>
<circle class="st0" cx="3398.5" cy="-438.1" r="563.2"/>
<circle class="st1" cx="4021.1" cy="-437.2" r="563.2"/>
<circle class="st0" cx="3398.5" cy="-260.8" r="563.2"/>
<circle class="st1" cx="4021.1" cy="-259.8" r="563.2"/>
<circle class="st0" cx="3398.5" cy="-83.5" r="563.2"/>
<circle class="st1" cx="4021.1" cy="-82.5" r="563.2"/>
<circle class="st0" cx="3398.5" cy="93.9" r="563.2"/>
<circle class="st1" cx="4021.1" cy="94.8" r="563.2"/>
<circle class="st0" cx="3398.5" cy="271.2" r="563.2"/>
<circle class="st1" cx="4021.1" cy="272.1" r="563.2"/>
<circle class="st0" cx="3398.5" cy="448.5" r="563.2"/>
<circle class="st1" cx="4021.1" cy="449.5" r="563.2"/>
<circle class="st0" cx="3398.5" cy="625.9" r="563.2"/>
<circle class="st1" cx="4021.1" cy="626.8" r="563.2"/>
<circle class="st0" cx="3398.5" cy="803.2" r="563.2"/>
<circle class="st1" cx="4021.1" cy="804.1" r="563.2"/>
<circle class="st0" cx="3398.5" cy="980.5" r="563.2"/>
<circle class="st1" cx="4021.1" cy="981.5" r="563.2"/>
<circle class="st0" cx="3398.5" cy="1157.8" r="563.2"/>
<circle class="st1" cx="4021.1" cy="1158.8" r="563.2"/>
<circle class="st0" cx="3398.5" cy="1335.2" r="563.2"/>
<circle class="st1" cx="4021.1" cy="1336.1" r="563.2"/>
<circle class="st0" cx="3398.5" cy="1512.5" r="563.2"/>
<circle class="st1" cx="4021.1" cy="1513.4" r="563.2"/>
<circle class="st0" cx="3398.5" cy="1689.8" r="563.2"/>
<circle class="st1" cx="4021.1" cy="1690.8" r="563.2"/>
<circle class="st0" cx="3398.5" cy="1867.1" r="563.2"/>
<circle class="st1" cx="4021.1" cy="1868.1" r="563.2"/>
<circle class="st0" cx="3398.5" cy="2044.5" r="563.2"/>
<circle class="st1" cx="4021.1" cy="2045.4" r="563.2"/>
</svg>
