<?xml version="1.0" encoding="utf-8"?>
<!-- Generator: Adobe Illustrator 28.2.0, SVG Export Plug-In . SVG Version: 6.00 Build 0)  -->
<svg version="1.1" id="Layer_1" xmlns="http://www.w3.org/2000/svg" xmlns:xlink="http://www.w3.org/1999/xlink" x="0px" y="0px"
	 viewBox="0 0 32 32" style="enable-background:new 0 0 32 32;" xml:space="preserve">
<style type="text/css">
	.st0{fill:none;stroke:#FFFFFF;stroke-width:2;stroke-miterlimit:10;}
</style>
<g>
	<path class="st0" d="M17.2,9.6c1.1,0.1,2.1,0.5,2.9,1.1L25.8,6c-2.4-2.3-5.7-3.7-9.3-3.7L17.2,9.6z"/>
	<path class="st0" d="M30.2,15.4c-0.2-3.7-1.8-6.9-4.3-9.3l-4.7,5.6c0.8,0.8,1.3,1.9,1.5,3L30.2,15.4z"/>
	<path class="st0" d="M15.6,9.6l0.6-7.3C12.7,2.3,9.5,3.7,7,6l5.7,4.7C13.6,10.1,14.6,9.7,15.6,9.6z"/>
	<path class="st0" d="M10.1,14.8c0.2-1.2,0.8-2.2,1.5-3L6.9,6.1c-2.5,2.4-4.1,5.7-4.3,9.3L10.1,14.8z"/>
	<path class="st0" d="M20.7,20.8c-1,0.9-2.3,1.5-3.7,1.6l-0.7,7.5c4,0,7.5-1.7,10-4.4L20.7,20.8z"/>
	<path class="st0" d="M22.8,16.2c0,1.3-0.5,2.6-1.2,3.6l4.8,5.8c2.3-2.5,3.7-5.8,3.7-9.4c0-0.2,0-0.4,0-0.6L22.8,16.2z"/>
	<path class="st0" d="M12.1,20.8l-5.7,4.8c2.5,2.7,6.1,4.4,10,4.4l-0.7-7.5C14.3,22.3,13.1,21.7,12.1,20.8z"/>
	<path class="st0" d="M11.2,19.8c-0.7-1-1.2-2.2-1.2-3.6l-7.3-0.7c0,0.2,0,0.4,0,0.6c0,3.6,1.4,7,3.7,9.4L11.2,19.8z"/>
</g>
</svg>
