<?xml version="1.0" encoding="utf-8"?>
<!-- Generator: Adobe Illustrator 28.2.0, SVG Export Plug-In . SVG Version: 6.00 Build 0)  -->
<svg version="1.1" id="Layer_1" xmlns="http://www.w3.org/2000/svg" xmlns:xlink="http://www.w3.org/1999/xlink" x="0px" y="0px"
	 viewBox="0 0 32 32" style="enable-background:new 0 0 32 32;" xml:space="preserve">
<style type="text/css">
	.st0{fill:none;stroke:#FFFFFF;stroke-width:2;stroke-miterlimit:10;}
	.st1{fill:#FFFFFF;}
</style>
<circle class="st0" cx="16" cy="16" r="13.8"/>
<path class="st1" d="M18.3,24.9"/>
<g>
	<g>
		<path class="st1" d="M30.6,16.1c0,8.3-6.7,14.5-14.7,14.5c-8.3,0-14.5-6.8-14.5-14.5C1.4,8.2,8,1.4,16.1,1.4
			C23.8,1.5,30.5,7.8,30.6,16.1z M13.6,23.5c0.1,0.1,0.2,0.2,0.2,0.2c0.3,0.1,0.5,0.3,0.8,0.4c1.4,0.4,2.7,0.3,4-0.3
			c1.1-0.5,2.2-0.5,3.3,0c0.8,0.4,1.6,0.5,2.4,0.3c1.2-0.2,2.2-0.7,2.8-1.9c1.5-2.8,2-5.6,1.4-8.7c-0.1-0.6-0.3-1.1-0.5-1.7
			c-1.1,0.6-1.8,1.5-2,2.8C26,14,26,13.6,26.1,13.1c0.2-0.9,0.7-1.6,1.5-2.1c0.1-0.1,0.2-0.2,0.1-0.3c-0.4-0.7-0.8-1.4-1.2-2
			c0-0.1-0.2-0.1-0.2-0.1c-0.3,0.1-0.7,0.2-1,0.4c-1.5,1-2.3,2.3-2.4,4.1c0,3.2,0,6.4,0,9.7c0,0.2,0,0.4,0,0.6
			c-0.2-0.1-0.4-0.2-0.7-0.3c-0.2-0.1-0.2-0.2-0.2-0.3c0-3.3,0-6.6,0-9.9c0-2,1-3.5,2.8-4.6c0.3-0.2,0.6-0.3,1-0.5
			c-3.2-3.6-7.1-5.2-11.9-4.5c-3.2,0.5-5.8,2.1-7.9,4.7C6.2,8,6.3,8,6.4,8c1.1,0.1,2.1,0.5,2.9,1.2c1.2,0.9,2,2,2,3.6
			c0,3.3,0,6.6,0,9.8c0,0.1,0,0.1,0,0.2c-0.4-0.1-0.7-0.1-1.1-0.2c0-0.1,0-0.2,0-0.3c0-0.7,0-1.4,0-2.1c0-0.8-0.2-1.4-0.7-2
			C9.1,17.9,9,17.4,9,16.9c0-0.4,0-0.8-0.1-1.1c-0.1-0.7-0.6-1.3-1.2-1.8c-0.3-0.2-0.4-0.5-0.5-0.9c0-0.4-0.1-0.7-0.3-1
			c-0.4-1.1-1.2-1.7-2.3-2.2c-0.4,0.7-0.8,1.4-1,2.2c-0.6,2-0.8,4.1-0.4,6.2c0.3,1.7,0.9,3.3,1.9,4.8c0.6,1,2.3,1.3,3.1,0.9
			c0.2-0.1,0.4-0.2,0.6-0.2c0.9-0.4,1.7-0.4,2.6,0c0.3,0.1,0.6,0.3,0.9,0.4c0.1,0,0.3,0,0.3,0c0.1-0.1,0.1-0.3,0-0.4
			c-0.1-0.1-0.2-0.3-0.4-0.3c-0.2-0.1-0.3-0.2-0.3-0.4c0-3.5,0-7,0-10.5c0-0.1,0-0.3,0-0.4c-0.1-0.4-0.2-0.8-0.4-1.2
			c0.7,0,1.3,0,2,0c0.1,0,0.2,0.1,0.3,0.2c0.4,0.4,0.4,0.9,0.4,1.4c0,3.6,0,7.3,0,10.9c0,0.1,0,0.2,0,0.3
			C14.1,23.5,13.9,23.5,13.6,23.5z M9.5,26.6c0.2,0.1,0.2,0.2,0.4,0.3c0.5,0.3,1.1,0.6,1.6,0.8c1.3,0.5,2.6,0.5,3.9-0.3
			c0.3-0.2,0.6-0.3,0.9-0.5c0.8-0.3,1.6-0.1,2.4,0.2c0.4,0.2,0.8,0.3,1.2,0.3c0.5,0.1,0.9,0,1.3-0.3c0.1-0.1,0.2-0.2,0.2-0.3
			c0-0.1-0.2-0.2-0.3-0.2c-0.2,0-0.3-0.1-0.5,0c-0.7,0-1.3-0.1-1.9-0.4c-0.8-0.4-1.7-0.5-2.6-0.2c-0.5,0.2-0.9,0.4-1.3,0.7
			c-0.5,0.3-1.1,0.5-1.8,0.5c-0.6,0-1.2-0.2-1.7-0.4C10.8,26.4,10.2,26.3,9.5,26.6z M6.9,25.1C6.9,25.1,6.9,25.2,6.9,25.1
			c0,0.1,0,0.1,0.1,0.1c0,0,0.1,0.1,0.1,0.1c0.5,0.6,1.1,0.7,1.8,0.4c1-0.4,2-0.4,3,0.1c1.1,0.5,2.3,0.3,3.1-0.6
			c0,0,0.1-0.1,0.1-0.2c-0.1,0-0.1-0.1-0.2-0.1c-0.2,0-0.3,0.1-0.5,0.1c-0.9,0.1-1.9,0.1-2.7-0.4c-0.9-0.5-1.8-0.4-2.8,0
			c-0.3,0.2-0.7,0.3-1.1,0.4C7.6,25.2,7.2,25.1,6.9,25.1z M25.2,25c-0.2,0-0.3,0.1-0.5,0.1c-0.9,0.1-1.8,0.2-2.7-0.3
			c-0.7-0.4-1.5-0.5-2.3-0.3c-0.4,0.1-0.8,0.2-1.1,0.5c0.6,0.3,1,0.7,1.7,0.5c0.6-0.2,1.2,0.1,1.7,0.4C23.2,26.4,24.4,26,25.2,25z
			 M10.6,15.5C10.6,15.5,10.6,15.5,10.6,15.5c0-0.5-0.1-1.1-0.2-1.6c-0.2-0.8-0.7-1.5-1.5-2c-0.2-0.2-0.5-0.1-0.6,0.1
			c-0.1,0.2-0.1,0.5,0.1,0.6c0.1,0,0.1,0.1,0.2,0.1c0.7,0.4,1.1,1.1,1.2,1.9c0.1,0.5,0.1,1,0.1,1.5c0,0.3,0.1,0.4,0.3,0.4
			c0.2,0,0.4-0.2,0.4-0.4C10.6,15.9,10.6,15.7,10.6,15.5z M13.6,20.6c0-0.6,0-1.2,0-1.7c0-0.3-0.1-0.4-0.3-0.4
			c-0.2,0-0.4,0.1-0.4,0.4c0,1.2,0,2.3,0,3.5c0,0.3,0.2,0.5,0.4,0.5c0.2,0,0.3-0.2,0.3-0.5C13.6,21.7,13.6,21.1,13.6,20.6z
			 M15.1,28.8c1.5,0.1,2.9-0.1,4.3-0.5C17.8,27.3,16.6,27.5,15.1,28.8z"/>
		<path class="st1" d="M17.1,23.5c0-0.2,0-0.4,0-0.5c0-1.3,0-2.6,0-3.9c0-0.1,0-0.3,0-0.4c0-0.2-0.1-0.3-0.3-0.3
			c-0.2,0-0.3,0.1-0.4,0.3c0,0.1,0,0.3,0,0.4c0,1.4,0,2.8,0,4.2c0,0.2-0.1,0.3-0.2,0.3c-0.2,0-0.5,0-0.7,0c-0.2,0-0.3-0.1-0.3-0.2
			c0-0.6,0-1.3,0-1.9c0-2.9,0-5.9,0-8.8c0-0.6,0-1.2-0.3-1.8c0.6,0,1.1,0,1.6,0c0,0.6,0,1.2,0,1.9c0,0.2,0.1,0.4,0.3,0.4
			c0.2,0,0.4-0.1,0.4-0.4c0-0.4,0-0.8,0-1.1c0-0.5,0.3-0.8,0.8-0.8c0.5,0,1,0,1.5,0c0,0.1-0.1,0.2-0.1,0.3c-0.2,0.4-0.3,0.8-0.3,1.3
			c0,3.4,0,6.8,0,10.2c0,0.2-0.1,0.3-0.3,0.4c-0.4,0.1-0.8,0.3-1.1,0.5C17.5,23.4,17.4,23.5,17.1,23.5z M16.4,15.7
			C16.4,15.7,16.4,15.7,16.4,15.7c0,0.4,0,0.8,0,1.1c0,0.2,0.1,0.3,0.3,0.4c0.2,0,0.4-0.1,0.4-0.3c0,0,0-0.1,0-0.1
			c0-0.7,0-1.4,0-2.1c0-0.3-0.1-0.4-0.4-0.4c-0.3,0-0.3,0.2-0.3,0.4C16.4,15,16.4,15.3,16.4,15.7z"/>
		<path class="st1" d="M21.8,10.7c-0.6,0.8-0.5,1.7-0.5,2.6c0,3,0,6.1,0,9.1c0,0.1,0,0.2,0,0.2c-0.5,0-0.9,0-1.4-0.1
			c0-0.1,0-0.2,0-0.3c0-3.3,0-6.6,0-9.9c0-0.4,0-0.7,0.2-1.1c0.2-0.4,0.5-0.7,1.1-0.7C21.3,10.7,21.5,10.7,21.8,10.7z"/>
		<path class="st1" d="M17.1,7.7c0-1,0.9-1.9,1.9-1.9c1.1,0,2,0.9,2,2c0,1.1-0.9,1.9-2,1.9C17.9,9.7,17.1,8.8,17.1,7.7z"/>
		<path class="st1" d="M6.2,19.2C6,17.8,5.3,16.6,4,15.7C5.4,16.2,6.3,17.7,6.2,19.2z"/>
	</g>
	<path class="st1" d="M11.3,3.8c0.1,0.8,0.4,1.4,1.3,1.4c-0.9,0-1.2,0.5-1.3,1.3c-0.1-0.3-0.1-0.7-0.4-1c-0.3-0.3-0.6-0.3-1-0.4
		c0.3-0.1,0.7-0.1,1-0.4C11.2,4.5,11.2,4.2,11.3,3.8"/>
	<path class="st1" d="M13.8,7.2c0-0.3-0.2-0.5-0.5-0.5c0.3-0.1,0.5-0.2,0.5-0.6c0,0.3,0.2,0.5,0.5,0.6C14,6.8,13.8,6.9,13.8,7.2z"/>
	<path class="st1" d="M13.1,8.7c0-0.3-0.2-0.5-0.5-0.5c0.3-0.1,0.5-0.2,0.5-0.5c0,0.3,0.2,0.5,0.5,0.5c-0.1,0.1-0.3,0.1-0.4,0.2
		C13.2,8.4,13.2,8.5,13.1,8.7"/>
	<path class="st1" d="M17.2,4.6c0,0.3,0.2,0.4,0.4,0.4c-0.2,0.1-0.4,0.2-0.4,0.5C17.2,5.2,17,5,16.8,5C17,4.9,17.2,4.8,17.2,4.6z"/>
	<path class="st1" d="M16.1,9.6c-0.2,0-0.3,0.2-0.4,0.4c0-0.2-0.1-0.3-0.3-0.4c0.2-0.1,0.3-0.1,0.3-0.4C15.8,9.4,15.9,9.5,16.1,9.6z
		"/>
	<path class="st1" d="M16.4,6.1c-0.1,0-0.2,0.1-0.2,0.3c0-0.2-0.1-0.3-0.2-0.3C16,6,16.1,5.9,16.1,5.8C16.2,5.9,16.3,6,16.4,6.1"/>
	<path class="st1" d="M9.1,6.9c0.1-0.1,0.2-0.2,0.3-0.3c0.1,0.1,0.1,0.2,0.2,0.3C9.5,7,9.4,7.1,9.4,7.2C9.4,7.1,9.3,7,9.1,6.9"/>
</g>
</svg>
