<?xml version="1.0" encoding="utf-8"?>
<!-- Generator: Adobe Illustrator 28.2.0, SVG Export Plug-In . SVG Version: 6.00 Build 0)  -->
<svg version="1.1" id="Layer_1" xmlns="http://www.w3.org/2000/svg" xmlns:xlink="http://www.w3.org/1999/xlink" x="0px" y="0px"
	 viewBox="0 0 32 32" style="enable-background:new 0 0 32 32;" xml:space="preserve">
<style type="text/css">
	.st0{fill:#FFFFFF;}
</style>
<g>
	<path class="st0" d="M9.4,7.4c-0.7,1-1,2.2-1,3.4c-0.1,1.4,0.4,2.7,1.2,3.9c0.4,0.5,0.8,1,1.3,1.3c0.2,0.1,0.4,0.1,0.5-0.1
		c0.1-0.2,0-0.4-0.1-0.5c-0.2-0.2-0.4-0.3-0.6-0.5c-2.2-2.2-2.2-5.8,0-8c1.6-1.6,3.6-2.1,5.8-1.7c2.9,0.6,4.7,3.3,4.2,6.3
		c-0.4,2.1-1.7,3.6-3.6,4.4c-0.4,0.2-0.9,0.3-1.3,0.5c-2.1,0.7-3.5,2.2-3.9,4.4c-0.3,1.6,0,3.2,1.1,4.5c1.6,1.9,4.3,2.5,6.7,1.7
		c2.3-0.8,4-2.2,5.4-4.1c1.2-1.7,2-3.6,2.2-5.7c0.2-1.9-0.2-3.8-1-5.6c-0.9-2-2.2-3.6-4-4.9c-1.8-1.3-3.7-2-5.8-2.2
		c-2.8-0.3-5.4,0.7-7.6,2.4c-1.6,1.2-2.8,2.8-3.6,4.6c-0.8,1.8-1.2,3.7-1,5.7c0.2,2,0.9,3.9,2.1,5.6c1.4,2,3.4,3.5,5.7,4.3
		c0.1,0,0.3,0.1,0.4,0.1c0.1,0,0.3-0.1,0.3-0.2c0-0.1,0-0.3-0.1-0.4c0-0.1-0.1-0.1-0.2-0.1c-1.9-0.6-3.5-1.7-4.8-3.3
		c-2.3-2.8-3.2-6-2.3-9.6c0.1-0.4,0.2-0.7,0.4-1.1c0.1,0.1,0.1,0.1,0.1,0.1c0,1.1,0.3,2.2,0.8,3.3c0.7,1.3,1.6,2.4,3,3
		C9.7,19,10,19,10.1,18.8c0.1-0.2,0-0.4-0.4-0.6c-0.4-0.2-0.9-0.5-1.2-0.8c-1.8-1.7-2.4-3.8-2-6.2c0.1-0.6,0.3-1.1,0.7-1.5
		C7.1,10.2,7,10.8,7,11.4c0,1.3,0.3,2.5,0.9,3.7c0.6,1,1.3,1.9,2.4,2.4c0.3,0.1,0.5,0.1,0.6-0.1c0.1-0.2,0-0.4-0.3-0.6
		c-0.1-0.1-0.3-0.1-0.4-0.2c-0.7-0.4-1.3-1.1-1.7-1.8c-1-1.7-1.1-3.5-0.6-5.4C8.2,8.6,8.7,7.9,9.4,7.4z M4,22.3c0.1,0,0.3,0,0.3,0
		c0.1,0,0.3-0.1,0.3-0.2c0-0.1,0-0.3-0.1-0.4c-0.3-0.2-0.6-0.2-0.9-0.1c-0.3,0.1-0.4,0.4-0.4,0.6c0,1.5,0,3,0,4.5
		c0,1.4,0.9,2.3,2.3,2.3c4.9,0,9.8,0,14.7,0c2.1,0,4.3,0,6.4,0c0.3,0,0.6-0.1,0.9-0.3c0.8-0.5,1.1-1.2,1.1-2.1c0-3.8,0-7.7,0-11.5
		c0-3.3,0-6.6,0-9.9C28.7,4,28,3.1,26.9,3c-0.6-0.1-1.3,0-1.9,0C19.8,3,14.6,3,9.4,3C8,3,6.7,3,5.4,3c-1.2,0-2,0.7-2.1,1.9
		c-0.1,0.6,0,1.2-0.1,1.9C3.2,7,3.3,7,3.5,7c0.9,0,1.7,0,2.6,0c0.1,0,0.2,0,0.3,0C6.1,7.4,5.9,7.7,5.6,8C5.6,8,5.5,8,5.4,8
		c-0.5,0-0.9,0-1.4,0C4,7.9,4,7.7,4,7.6C3.9,7.5,3.7,7.4,3.6,7.4c-0.1,0-0.2,0.2-0.3,0.3c0,0.1,0,0.2,0,0.3c0,1.4,0,2.7,0,4.1
		c0,0.3,0.1,0.5,0.3,0.5c0.3,0,0.4-0.1,0.5-0.4c0,0,0-0.1,0-0.1c0.4-0.8,0.7-1.6,1.1-2.3C6.5,7.8,8,6.3,10,5.2
		c2.7-1.5,5.6-1.8,8.6-1.1c2.5,0.6,4.6,2,6.3,3.9c2.6,3,3.7,6.5,2.9,10.5c-0.5,2.4-1.6,4.5-3.3,6.3c-1.4,1.4-3,2.5-5,3
		c-1.6,0.5-3.3,0.5-5,0.4c-1.8-0.1-3.5-0.6-5.1-1.6c-0.2-0.1-0.4-0.2-0.6-0.2c-1.4,0-2.9,0-4.3,0c-0.1,0-0.3,0-0.4,0
		c0-0.3,0-0.6,0-0.9c0.2,0,0.3,0,0.5,0c0.8,0,1.5,0,2.3,0c0.2,0,0.4-0.1,0.4-0.3c0-0.2-0.2-0.4-0.4-0.4c-0.1,0-0.2,0-0.3,0
		c-0.7,0-1.5,0-2.2,0c-0.1,0-0.2,0-0.3,0c0-0.3,0-0.6,0-0.9c0.4,0,0.7,0,1,0c0.4,0,0.6-0.1,0.6-0.4c0-0.2-0.2-0.4-0.6-0.4
		c-0.3,0-0.7,0-1,0C4,22.9,4,22.6,4,22.3z M15.7,11.9c1,0.1,2-0.7,2-1.9c0-1-0.8-2-1.8-2c-1.2,0-2.1,0.8-2.1,1.9
		C13.8,11.1,14.7,12,15.7,11.9z M8.9,20.5c0.1-0.1,0.3-0.2,0.3-0.3C9.3,20,9.2,19.8,9,19.7c-0.8-0.3-1.4-0.7-2-1.4
		c-0.2-0.2-0.4-0.2-0.6-0.1c-0.2,0.2-0.2,0.4,0.1,0.6c0.5,0.4,1,0.8,1.5,1.2C8.2,20.3,8.6,20.4,8.9,20.5z M6,16.5
		c-0.2,0-0.4,0.2-0.4,0.4c0,0.2,0.2,0.4,0.4,0.4c0.2,0,0.4-0.2,0.4-0.4C6.4,16.7,6.2,16.5,6,16.5z"/>
	<path class="st0" d="M9.4,7.4C8.7,7.9,8.2,8.6,8,9.4c-0.5,1.9-0.4,3.7,0.6,5.4c0.4,0.7,0.9,1.4,1.7,1.8c0.1,0.1,0.3,0.1,0.4,0.2
		c0.3,0.1,0.4,0.4,0.3,0.6c-0.1,0.2-0.3,0.2-0.6,0.1c-1.1-0.5-1.9-1.4-2.4-2.4C7.3,14,7,12.7,7,11.4c0-0.6,0.1-1.2,0.2-1.8
		c-0.3,0.4-0.6,1-0.7,1.5c-0.4,2.4,0.3,4.5,2,6.2c0.3,0.3,0.8,0.6,1.2,0.8c0.3,0.2,0.5,0.4,0.4,0.6C10,19,9.7,19,9.4,18.9
		c-1.4-0.6-2.3-1.7-3-3c-0.5-1-0.8-2.1-0.8-3.3c0,0,0-0.1-0.1-0.1c-0.1,0.4-0.3,0.7-0.4,1.1c-0.9,3.6,0,6.8,2.3,9.6
		c1.3,1.5,2.9,2.6,4.8,3.3c0.1,0,0.2,0.1,0.2,0.1c0.1,0.1,0.1,0.3,0.1,0.4c0,0.1-0.2,0.2-0.3,0.2c-0.1,0-0.2,0-0.4-0.1
		c-2.4-0.8-4.3-2.3-5.7-4.3c-1.2-1.7-1.9-3.5-2.1-5.6c-0.2-2,0.2-3.9,1-5.7c0.8-1.8,2-3.4,3.6-4.6c2.2-1.7,4.8-2.6,7.6-2.4
		c2.1,0.2,4.1,1,5.8,2.2c1.8,1.3,3.1,2.9,4,4.9c0.8,1.8,1.2,3.6,1,5.6c-0.2,2.1-0.9,4-2.2,5.7c-1.4,1.9-3.2,3.3-5.4,4.1
		c-2.4,0.8-5.1,0.2-6.7-1.7c-1.1-1.3-1.5-2.8-1.1-4.5c0.5-2.2,1.8-3.6,3.9-4.4c0.4-0.1,0.9-0.3,1.3-0.5c2-0.9,3.2-2.3,3.6-4.4
		c0.5-2.9-1.3-5.7-4.2-6.3c-2.2-0.4-4.2,0.1-5.8,1.7c-2.2,2.2-2.2,5.8,0,8c0.2,0.2,0.4,0.3,0.6,0.5c0.2,0.1,0.3,0.3,0.1,0.5
		c-0.1,0.2-0.3,0.2-0.5,0.1c-0.5-0.3-1-0.8-1.3-1.3c-0.8-1.2-1.2-2.5-1.2-3.9C8.4,9.6,8.7,8.5,9.4,7.4z M22.1,24.9
		c0.4-0.3,0.7-0.7,0.9-1.2c0.9-2,0.3-4.5-1.4-5.9c-1.2-1-2.5-1.3-4-1.1C17,16.8,16.5,17,16,17.2c-2.5,0.8-3.7,3.2-3.4,5.3
		c0.3,2.3,2.2,3.8,4.5,3.5c2.5-0.3,4.1-2.8,3.3-5.2c-0.4-1.2-1.2-2-2.4-2.5c-0.2-0.1-0.5-0.2-0.4-0.5c0-0.3,0.3-0.4,0.5-0.4
		c1.1-0.1,2,0.2,2.9,0.8c1.5,1.3,2,3,1.7,4.9C22.5,23.8,22.2,24.4,22.1,24.9z M18.8,16c1.8,0.1,3.2,0.9,4.2,2.3c1,1.4,1.2,3,0.9,4.8
		c0.4-0.4,0.7-1.1,0.8-1.6c0.1-1.4-0.2-2.6-1-3.8c-0.9-1.4-2.2-2.2-3.9-2.4c-0.1,0-0.2,0-0.3,0.1C19.3,15.5,19.1,15.8,18.8,16z
		 M26.2,19.1c0.3-1.3,0.3-2.4-0.2-3.6c-0.8-2-2.4-3-4.5-3.2c-0.1,0-0.2,0.1-0.2,0.1c-0.1,0.2-0.2,0.4-0.2,0.7
		C24.2,13.5,26,16.1,26.2,19.1z M20.1,14.7c1.6,0.2,2.8,0.9,3.8,2.1c0.9,1.2,1.4,2.5,1.5,4.1c0-0.1,0-0.1,0.1-0.2
		c0.1-1.1,0.1-2.2-0.3-3.3c-0.7-1.9-2-3.3-4.3-3.5c-0.1,0-0.2,0-0.2,0.1C20.4,14.2,20.3,14.4,20.1,14.7z M17.8,26.6
		c0.2,0,0.5-0.1,0.7-0.1c1-0.2,1.9-0.5,2.5-1.4c1.2-1.7,1.2-4-0.1-5.7c-0.4-0.5-1.1-1-1.5-1.1c1.4,1.2,2,2.8,1.6,4.6
		C20.7,24.8,19.6,26,17.8,26.6z M26.5,14.9C26.5,14.9,26.5,14.9,26.5,14.9c0-0.3,0-0.7-0.1-1c-0.2-0.5-0.2-1.1-0.7-1.5
		c-0.9-0.7-1.9-1.3-3-1.6c-0.4-0.1-0.7-0.1-1.1-0.2c0,0.4,0,0.7,0,1C23.8,11.8,25.4,12.9,26.5,14.9z M21.3,9.1
		c0.1,0.4,0.1,0.7,0.2,1c1.4,0,2.6,0.5,3.8,1.2c-0.2-0.5-0.5-1-0.9-1.4C23.5,9.3,22.4,9.1,21.3,9.1z M20.6,7.4
		c0.2,0.3,0.3,0.6,0.4,0.9c0,0.1,0.1,0.1,0.2,0.1c0.4,0,0.7,0.1,1.1,0.1c0.3,0.1,0.7,0.1,1,0.2C22.7,7.8,21.8,7.3,20.6,7.4z M19.6,6
		c0.3,0.6,0.7,0.7,1.3,0.6C20.5,6.4,20.1,6.2,19.6,6z"/>
	<path class="st0" d="M4,22.3c0,0.3,0,0.7,0,1c0.3,0,0.7,0,1,0c0.4,0,0.6,0.1,0.6,0.4C5.6,23.9,5.4,24,5,24c-0.3,0-0.7,0-1,0
		c0,0.3,0,0.6,0,0.9c0.1,0,0.2,0,0.3,0c0.7,0,1.5,0,2.2,0c0.1,0,0.2,0,0.3,0c0.2,0,0.4,0.2,0.4,0.4c0,0.2-0.2,0.3-0.4,0.3
		c-0.8,0-1.5,0-2.3,0c-0.2,0-0.3,0-0.5,0c0,0.3,0,0.6,0,0.9c0.1,0,0.3,0,0.4,0c1.4,0,2.9,0,4.3,0c0.2,0,0.4,0.1,0.6,0.2
		c1.6,0.9,3.3,1.4,5.1,1.6c1.7,0.1,3.4,0,5-0.4c1.9-0.5,3.6-1.6,5-3c1.7-1.8,2.9-3.9,3.3-6.3c0.7-4-0.3-7.4-2.9-10.5
		c-1.7-2-3.8-3.3-6.3-3.9c-3-0.7-5.9-0.4-8.6,1.1C8,6.3,6.5,7.8,5.3,9.7c-0.4,0.7-0.8,1.5-1.1,2.3c0,0,0,0.1,0,0.1
		c-0.1,0.2-0.2,0.4-0.5,0.4c-0.2,0-0.3-0.3-0.3-0.5c0-1.4,0-2.7,0-4.1c0-0.1,0-0.2,0-0.3c0.1-0.1,0.2-0.3,0.3-0.3
		c0.1,0,0.3,0.1,0.3,0.2C4,7.7,4,7.9,4.1,8.1c0.4,0,0.9,0,1.4,0c0,0,0.1,0,0.1-0.1C5.9,7.7,6.1,7.4,6.4,7C6.3,7,6.2,7,6.2,7
		C5.3,7,4.4,7,3.5,7C3.3,7,3.2,7,3.3,6.7c0-0.6,0-1.2,0.1-1.9C3.4,3.7,4.2,3,5.4,3c1.3,0,2.7,0,4,0c5.2,0,10.4,0,15.6,0
		c0.6,0,1.3,0,1.9,0c1.1,0.1,1.9,1,1.9,2.2c0,3.3,0,6.6,0,9.9c0,3.8,0,7.7,0,11.5c0,0.9-0.3,1.6-1.1,2.1C27.4,28.9,27,29,26.7,29
		c-2.1,0-4.3,0-6.4,0c-4.9,0-9.8,0-14.7,0c-1.4,0-2.3-0.9-2.3-2.3c0-1.5,0-3,0-4.5c0-0.3,0.1-0.5,0.4-0.6c0.3-0.1,0.7-0.1,0.9,0.1
		c0.1,0.1,0.1,0.3,0.1,0.4c0,0.1-0.2,0.2-0.3,0.2C4.3,22.3,4.1,22.3,4,22.3z M20.1,3.8C20.1,3.8,20.1,3.8,20.1,3.8
		c0.6,0.3,1.1,0.6,1.7,0.8c0.1,0,0.1,0,0.2,0c0.9,0,1.8,0,2.8,0c1,0,2.1,0,3.2,0c-0.1-0.1-0.1-0.2-0.1-0.3c-0.3-0.5-0.7-0.6-1.2-0.6
		c-1.6,0-3.2,0-4.8,0C21.2,3.8,20.6,3.8,20.1,3.8z M27.9,27.2c-0.1,0-0.2,0-0.3,0c-1.3,0-2.7,0-4,0c-0.5,0-1,0.1-1.5,0.4
		c-0.4,0.3-0.9,0.4-1.3,0.7c0.1,0,0.1,0,0.1,0c2,0,3.9,0,5.9,0C27.3,28.2,27.8,27.7,27.9,27.2z M10.9,28.2c-0.6-0.3-1.2-0.6-1.7-0.9
		c-0.1-0.1-0.3-0.1-0.5-0.1c-1.5,0-3,0-4.4,0c-0.1,0-0.1,0-0.2,0c0.1,0.6,0.6,1,1.2,1c1.5,0,3,0,4.4,0
		C10.1,28.2,10.5,28.2,10.9,28.2z M4.1,4.7c0.1,0,0.2,0,0.3,0c1.5,0,3,0,4.5,0c0.3,0,0.6,0,0.8-0.2c0.4-0.2,0.9-0.4,1.4-0.7
		c-0.1,0-0.1,0-0.1,0c-1.7,0-3.3,0-5,0c-0.4,0-0.7,0-1.1,0C4.6,3.8,4.2,4.2,4.1,4.7z M28,5.4c-1.6,0-3.3,0-4.9,0
		c0.4,0.3,0.7,0.6,1,0.8c0.1,0.1,0.3,0.1,0.4,0.1c1.1,0,2.2,0,3.3,0c0.1,0,0.1,0,0.2,0C28,6,28,5.7,28,5.4z M4,6.3
		c0.1,0,0.1,0,0.1,0c1,0,1.9,0,2.9,0c0.1,0,0.1,0,0.2-0.1C7.6,6,8,5.7,8.3,5.4c-1.5,0-2.9,0-4.3,0C4,5.7,4,6,4,6.3z M28,26.5
		c0-0.3,0-0.6,0-0.9c-1,0-2,0-3.1,0c0,0-0.1,0-0.1,0c-0.3,0.3-0.6,0.5-1,0.9C25.3,26.5,26.6,26.5,28,26.5z M25,7
		c0.3,0.3,0.6,0.6,0.8,0.9C25.9,8,25.9,8,26,8c0.7,0,1.3,0,2,0c0-0.3,0-0.6,0-1C27,7,26,7,25,7z M28,24c-0.6,0-1.2,0-1.7,0
		c0,0-0.1,0-0.1,0.1c-0.2,0.3-0.5,0.5-0.7,0.8c0.9,0,1.7,0,2.5,0C28,24.6,28,24.3,28,24z M28,23.3c0-0.8,0-1.7,0-2.5
		c-0.2,0.4-0.4,0.8-0.6,1.2c-0.2,0.4-0.5,0.8-0.7,1.2C27.1,23.3,27.5,23.3,28,23.3z M28,9.8c0-0.3,0-0.7,0-1c-0.1,0-0.2,0-0.3,0
		c-0.4,0-0.8,0-1.3,0c0.3,0.4,0.4,0.7,0.7,1c0.1,0.1,0.5,0,0.7,0.1C27.9,9.8,27.9,9.8,28,9.8z M4,9.8c0.2,0,0.4,0,0.4-0.1
		C4.7,9.4,4.8,9.1,5,8.7c-0.4,0-0.7,0-1,0C4,9.1,4,9.4,4,9.8z M28,11.6C28,11.6,28,11.6,28,11.6c0-0.4,0-0.8,0-1.2
		c-0.2,0-0.4,0-0.6,0C27.6,10.9,27.8,11.2,28,11.6z"/>
	<path class="st0" d="M8.9,20.5c-0.4-0.2-0.7-0.3-1-0.4c-0.5-0.4-1-0.8-1.5-1.2c-0.2-0.2-0.2-0.4-0.1-0.6c0.2-0.2,0.4-0.2,0.6,0.1
		c0.5,0.6,1.2,1.1,2,1.4c0.2,0.1,0.3,0.2,0.3,0.4C9.2,20.3,9.1,20.4,8.9,20.5z"/>
	<path class="st0" d="M6,16.5c0.2,0,0.4,0.2,0.4,0.4c0,0.2-0.2,0.4-0.4,0.4c-0.2,0-0.4-0.2-0.4-0.4C5.6,16.6,5.8,16.5,6,16.5z"/>
	<path d="M22.1,24.9c0.2-0.5,0.4-1.1,0.5-1.6c0.3-1.9-0.2-3.6-1.7-4.9c-0.8-0.7-1.8-1-2.9-0.8c-0.2,0-0.5,0.1-0.5,0.4
		c0,0.3,0.2,0.4,0.4,0.5c1.2,0.4,2,1.3,2.4,2.5c0.8,2.4-0.8,4.9-3.3,5.2c-2.3,0.3-4.2-1.3-4.5-3.5c-0.2-2.1,1-4.5,3.4-5.3
		c0.5-0.2,1.1-0.4,1.6-0.5c1.5-0.3,2.9,0.1,4,1.1c1.7,1.4,2.2,3.9,1.4,5.9C22.8,24.2,22.4,24.6,22.1,24.9z M13.6,22.5
		c0,1.2,1,2.2,2.2,2.2c1.1,0,2.1-1,2.1-2.1c0-1.2-0.8-2.2-2.1-2.3C14.6,20.3,13.6,21.3,13.6,22.5z"/>
	<path d="M18.8,16c0.3-0.2,0.5-0.5,0.8-0.7c0.1-0.1,0.2-0.1,0.3-0.1c1.7,0.2,3,1,3.9,2.4c0.7,1.2,1,2.4,1,3.8c0,0.5-0.3,1.2-0.8,1.6
		c0.3-1.7,0.1-3.3-0.9-4.8C22,16.9,20.6,16.1,18.8,16z"/>
	<path d="M26.2,19.1c-0.2-3.1-2-5.7-5.2-5.9c0.1-0.2,0.1-0.5,0.2-0.7c0-0.1,0.1-0.1,0.2-0.1c2.2,0.1,3.7,1.2,4.5,3.2
		C26.5,16.7,26.5,17.9,26.2,19.1z"/>
	<path d="M20.1,14.7c0.2-0.3,0.3-0.5,0.5-0.7c0-0.1,0.2-0.1,0.2-0.1c2.3,0.1,3.6,1.5,4.3,3.5c0.4,1.1,0.5,2.2,0.3,3.3
		c0,0.1,0,0.1-0.1,0.2c-0.1-1.5-0.6-2.9-1.5-4.1C23,15.5,21.7,14.9,20.1,14.7z"/>
	<path d="M17.8,26.6c1.8-0.6,2.9-1.8,3.3-3.6c0.4-1.8-0.3-3.4-1.6-4.6c0.4,0.1,1.1,0.6,1.5,1.1c1.3,1.6,1.3,4,0.1,5.7
		c-0.6,0.9-1.5,1.2-2.5,1.4C18.3,26.6,18.1,26.6,17.8,26.6z"/>
	<path d="M26.5,14.9c-1-2-2.7-3.1-5-3.2c0-0.3,0-0.6,0-1c0.4,0.1,0.8,0.1,1.1,0.2c1.1,0.3,2.1,0.8,3,1.6c0.5,0.4,0.5,0.9,0.7,1.5
		C26.4,14.2,26.5,14.6,26.5,14.9C26.5,14.9,26.5,14.9,26.5,14.9z"/>
	<path d="M21.3,9.1c1.1,0,2.1,0.2,3,0.8c0.5,0.3,0.7,0.8,0.9,1.4c-1.2-0.7-2.4-1.2-3.8-1.2C21.5,9.7,21.4,9.4,21.3,9.1z"/>
	<path d="M20.6,7.4c1.2,0,2,0.4,2.8,1.3c-0.4-0.1-0.7-0.2-1-0.2c-0.4-0.1-0.7-0.1-1.1-0.1c-0.1,0-0.2-0.1-0.2-0.1
		C20.9,8,20.8,7.7,20.6,7.4z"/>
	<path d="M19.6,6c0.4,0.2,0.9,0.4,1.3,0.6C20.3,6.7,19.9,6.6,19.6,6z"/>
	<path d="M20.1,3.8c0.5,0,1.1,0,1.6,0c1.6,0,3.2,0,4.8,0c0.5,0,1,0.1,1.2,0.6c0,0.1,0.1,0.2,0.1,0.3c-1.1,0-2.1,0-3.2,0
		c-0.9,0-1.8,0-2.8,0c-0.1,0-0.1,0-0.2,0C21.2,4.4,20.6,4.1,20.1,3.8C20.1,3.8,20.1,3.8,20.1,3.8z"/>
	<path d="M27.9,27.2c-0.1,0.6-0.6,1-1.2,1c-2,0-3.9,0-5.9,0c0,0-0.1,0-0.1,0c0.5-0.2,0.9-0.4,1.3-0.7c0.5-0.3,1-0.4,1.5-0.4
		c1.3,0,2.7,0,4,0C27.7,27.2,27.8,27.2,27.9,27.2z"/>
	<path d="M10.9,28.2c-0.4,0-0.8,0-1.2,0c-1.5,0-3,0-4.4,0c-0.6,0-1.1-0.4-1.2-1c0.1,0,0.1,0,0.2,0c1.5,0,3,0,4.4,0
		c0.2,0,0.3,0.1,0.5,0.1C9.8,27.6,10.3,27.9,10.9,28.2z"/>
	<path d="M4.1,4.7c0.1-0.4,0.5-0.8,1-0.9c0.4,0,0.7,0,1.1,0c1.7,0,3.3,0,5,0c0,0,0.1,0,0.1,0c-0.5,0.2-1,0.4-1.4,0.7
		C9.6,4.6,9.3,4.6,9,4.6c-1.5,0-3,0-4.5,0C4.4,4.7,4.2,4.7,4.1,4.7z"/>
	<path d="M28,5.4c0,0.3,0,0.6,0,0.9c-0.1,0-0.1,0-0.2,0c-1.1,0-2.2,0-3.3,0c-0.1,0-0.3-0.1-0.4-0.1c-0.3-0.2-0.6-0.5-1-0.8
		C24.7,5.4,26.4,5.4,28,5.4z"/>
	<path d="M4,6.3C4,6,4,5.7,4,5.4c1.4,0,2.9,0,4.3,0C8,5.7,7.6,6,7.2,6.3C7.2,6.3,7.1,6.3,7,6.3c-1,0-1.9,0-2.9,0
		C4.1,6.3,4.1,6.3,4,6.3z"/>
	<path d="M28,26.5c-1.4,0-2.7,0-4.2,0c0.4-0.3,0.7-0.6,1-0.9c0,0,0.1,0,0.1,0c1,0,2,0,3.1,0C28,25.9,28,26.2,28,26.5z"/>
	<path d="M25,7c1,0,2,0,3,0c0,0.3,0,0.7,0,1c-0.7,0-1.3,0-2,0c-0.1,0-0.1,0-0.2-0.1C25.6,7.6,25.3,7.4,25,7z"/>
	<path d="M28,24c0,0.3,0,0.6,0,0.9c-0.8,0-1.7,0-2.5,0c0.2-0.3,0.5-0.5,0.7-0.8c0,0,0.1-0.1,0.1-0.1C26.8,24,27.4,24,28,24z"/>
	<path d="M28,23.3c-0.5,0-0.9,0-1.3,0c0.2-0.4,0.5-0.8,0.7-1.2c0.2-0.4,0.4-0.8,0.6-1.2C28,21.7,28,22.5,28,23.3z"/>
	<path d="M28,9.8c-0.1,0-0.1,0-0.2,0c-0.2,0-0.6,0.1-0.7-0.1c-0.3-0.2-0.5-0.6-0.7-1c0.5,0,0.9,0,1.3,0c0.1,0,0.2,0,0.3,0
		C28,9.1,28,9.4,28,9.8z"/>
	<path d="M4,9.8c0-0.4,0-0.7,0-1c0.3,0,0.7,0,1,0C4.8,9.1,4.7,9.4,4.4,9.7C4.4,9.8,4.2,9.7,4,9.8z"/>
	<path d="M28,11.6c-0.2-0.4-0.4-0.8-0.5-1.2c0.2,0,0.4,0,0.6,0C28,10.8,28,11.2,28,11.6C28,11.6,28,11.6,28,11.6z"/>
	<path class="st0" d="M13.6,22.5c0-1.2,1-2.2,2.2-2.2c1.3,0,2.2,1.1,2.1,2.3c0,1.1-1,2.1-2.1,2.1C14.6,24.7,13.6,23.8,13.6,22.5z
		 M14.3,22.6c0,0.7,0.7,1.4,1.4,1.4c0.7,0,1.4-0.7,1.5-1.4c0-0.7-0.7-1.4-1.5-1.5C15,21.1,14.4,21.7,14.3,22.6z"/>
	<path d="M14.3,22.6c0-0.8,0.7-1.5,1.5-1.4c0.8,0,1.5,0.7,1.5,1.5c0,0.8-0.7,1.4-1.5,1.4C15,24,14.3,23.3,14.3,22.6z"/>
</g>
</svg>
